<svg xmlns="http://www.w3.org/2000/svg" fill="currentColor" width="54" height="54" viewBox="0 0 54 54"><g fill="#FFF"><path d="M45.564 35.468l-.066.18c-2.582 6.976-10.52 12.242-18.467 12.26h-.061c-7.947-.018-15.883-5.284-18.465-12.26l-.066-.18c-.109 0-.824-.003-1.139 0l-.021.001v-6.741h.271l.002.02c.496 4.178 2.654 8.11 6.078 11.073 3.361 2.909 7.637 4.692 12.043 5.021l.285.022v-8.835l.014-.007a39.672 39.672 0 0 0 2.033-1.023l.031-.018v9.883l.295-.022c4.406-.328 8.684-2.111 12.043-5.021 3.424-2.963 5.582-6.896 6.074-11.073l.004-.02h.27v6.741l-.02-.001c-.315-.003-1.03 0-1.138 0m-28.683 2.894c-.053.008-.088-.015-.098-.021l-.012-.008.002-.014c.039-.246.617-.767 1-1.112.633-.569 1.131-1.02 1.131-1.453a.618.618 0 0 0-.012-.12 3.124 3.124 0 0 1-.08-.693c0-.413.086-.728.158-.919 1.096-2.896 5.842-4.417 8.199-4.817l.127-.021.062-.113c.613-1.115 1.578-1.914 2.582-2.14l.037-.009-.012.037-.166.465c-.07.145-.141.398-.141.636a.82.82 0 0 0 .047.285c.08.2.252.314.477.314h.012l.287-.024c3.363-.398 7.02.366 10.033 2.096l.203.117.145-.185c.465-.596 1.479-.717 2.004-.695l.051.002-.035.034c-.303.307-.529.624-.656.919-.178.41-.646.48-.666.483l-.41.059c.055.087.217.352.217.352.059.098.215.408.215.67 0 .06-.008.114-.023.163a4.47 4.47 0 0 0-.229 1.04l-.004.038-.031-.023c-.438-.34-.959-.879-.959-1.508l.002-.062.012-.205-.195-.065c-4.299-1.43-8.203.268-11.781 2.314-2.806 1.603-7.499 3.662-11.493 4.183zm8.527-12.753c-1.02.372-2.004.824-2.926 1.342-1.031.581-6.398 3.508-10.75 4.077a.141.141 0 0 1-.098-.021l-.012-.008.002-.014c.041-.248.617-.768 1-1.113.633-.568 1.131-1.019 1.131-1.452 0-.04-.006-.08-.014-.12a3.118 3.118 0 0 1-.078-.692c0-.413.086-.729.158-.921 1.1-2.904 4.838-3.875 7.312-4.516l.564-.148.057-.105.055-.106.006-.016c.334-.877 1.154-1.729 1.951-2.021l.037-.015-.01.04c-.109.437-.162.784-.162 1.061 0 .257.045.444.137.558a.43.43 0 0 0 .379.161l.35-.022.359-.042c.166-.021.357-.044.541-.059l.023-.001v4.152l-.012.001zm.553-2.037V10.256H28.042v17.103l-.008.006c-.418.37-.779.814-1.076 1.321l-.004.008-.01.002c-.164.031-.504.1-.953.211l-.031.022v-5.357zm-.539-13.855v1.092l-.041-.062a1.904 1.904 0 0 1 1.611-2.918c1.048 0 1.904.853 1.904 1.902 0 .347-.096.687-.273.981l-.041.066V9.719l-3.16-.002zm0 7.161v.021H14.975V15.5h10.447v1.378zm0-5.268v1.383l-.031-.015a3.619 3.619 0 0 1-1.465-1.33 3.623 3.623 0 0 1-.551-1.914c0-1.996 1.625-3.62 3.621-3.62s3.621 1.624 3.621 3.62a3.61 3.61 0 0 1-.547 1.907 3.62 3.62 0 0 1-1.457 1.331l-.031.015v-1.404l.008-.007a2.442 2.442 0 0 0-1.597-4.286 2.443 2.443 0 0 0-1.578 4.304l.008.006v.01zm3.182 3.89h10.395v1.399H28.584V15.5h.02zm.001 6.088c1.949.242 3.791.856 5.631 1.878l.232.129.133-.232c.367-.646 1.377-.893 1.916-.935l.047-.004-.029.039c-.268.346-.457.699-.549 1.019a.785.785 0 0 1-.492.544l-.373.113.232.311c.008.011.207.281.207.579a.616.616 0 0 1-.012.122c-.047.231-.07.481-.07.743 0 .091.002.187.01.291l.002.041-.033-.02c-.492-.285-1.09-.76-1.146-1.404l-.018-.198-.195-.042c-.762-.16-2.924-.249-5.49.193l-.025.005v-3.174l.022.002zm18.653 14.423l.006-7.823-1.293.002-.023.241c-.42 4.138-2.523 8.038-5.926 10.982a20.39 20.39 0 0 1-11.416 4.861l-.023.001v-.022l-.006-9.559v-.014l.012-.006.023-.013.029-.017c3.406-1.949 7.115-3.579 11.152-2.326l.014.004.002.015c.107 1.247 1.566 2.079 1.629 2.114l.41.231-.008-.471v-.017c0-.123.01-.77.225-1.367a.997.997 0 0 0 .059-.346c0-.193-.047-.404-.137-.627l-.008-.02.02-.008c.344-.147.588-.382.723-.695.252-.582.926-1.092.932-1.097l.34-.254-.373-.2c-.598-.32-2.221-.19-3.014.567l-.012.011-.014-.008c-3.072-1.707-6.773-2.457-10.154-2.058l-.201.018-.021.003-.002-.021v-.007c-.002-.005-.002-.01-.002-.019 0-.088.025-.216.051-.306l.057-.158.459-1.282-.391.008c-.555.012-1.18.223-1.76.595l-.033.021v-1.641l.018-.003c2.158-.384 4.203-.398 5.191-.249l.016.002.004.014c.277 1.222 1.852 1.844 1.918 1.87l.473.182-.111-.494a3.52 3.52 0 0 1-.072-.738c0-.226.02-.438.061-.634.016-.073.021-.149.021-.226 0-.2-.049-.408-.146-.618l-.008-.018.016-.01c.27-.181.453-.437.545-.757.18-.631.797-1.223.803-1.229l.318-.3-.412-.15c-.57-.207-2.199.038-2.922.918l-.01.014-.016-.008c-1.855-.996-3.709-1.594-5.666-1.829l-.02-.002V17.43h.021l10.934.005v-2.478l-10.934.004h-.021v-1.386l.014-.005a4.146 4.146 0 0 0 1.857-1.531 4.14 4.14 0 0 0 .703-2.308 4.164 4.164 0 0 0-4.16-4.159 4.165 4.165 0 0 0-4.16 4.159c0 .824.244 1.625.707 2.314a4.132 4.132 0 0 0 1.865 1.529l.014.006v1.38H25.4l-10.965-.002v2.478l10.965.004h.021v3.471l-.02.002c-.201.015-.404.04-.611.065l-.342.04h-.012l-.24.015-.02.001-.002-.019a.669.669 0 0 1-.01-.116c0-.308.113-.893.277-1.422l.117-.38-.398.033c-1.062.09-2.332 1.176-2.826 2.421l-.006.01-.01.003-.322.083c-2.582.67-6.48 1.683-7.68 4.848-.09.234-.193.616-.193 1.113 0 .265.029.534.09.804v.004c0 .183-.49.641-.951 1.057-.615.553-1.146 1.031-1.182 1.487v.043c0 .146.059.282.168.387a.682.682 0 0 0 .553.172c4.451-.581 9.896-3.552 10.945-4.141a19.42 19.42 0 0 1 2.645-1.231l.029-.011v2.878l-.018.005c-2.143.596-5.893 2.008-6.938 4.77v.001a3.148 3.148 0 0 0-.193 1.11c0 .264.031.535.092.805v.005c0 .183-.492.641-.953 1.056-.613.553-1.145 1.032-1.182 1.486l-.002.043c0 .146.062.284.172.388a.678.678 0 0 0 .551.173c3.736-.488 6.758-1.851 8.381-2.582l.057-.025.031-.014v.033l.004 7.943v.022l-.022-.002a20.402 20.402 0 0 1-11.418-4.861c-3.4-2.944-5.506-6.845-5.926-10.982l-.025-.241-1.291-.002v7.841c.148-.001 1.059-.005 1.314-.008h.016l.006.014c1.322 3.429 3.967 6.575 7.447 8.858 3.482 2.286 7.557 3.544 11.471 3.548H27l.012.004c3.914-.004 7.986-1.266 11.469-3.554 3.48-2.286 6.125-5.435 7.447-8.865l.006-.014h.016l1.308-.001z"/><path d="M45.564 35.468l-.066.18c-2.582 6.976-10.52 12.242-18.467 12.26h-.061c-7.947-.018-15.883-5.284-18.465-12.26l-.066-.18c-.109 0-.824-.003-1.139 0l-.021.001v-6.741h.271l.002.02c.496 4.178 2.654 8.11 6.078 11.073 3.361 2.909 7.637 4.692 12.043 5.021l.285.022v-8.835l.014-.007a39.672 39.672 0 0 0 2.033-1.023l.031-.018v9.883l.295-.022c4.406-.328 8.684-2.111 12.043-5.021 3.424-2.963 5.582-6.896 6.074-11.073l.004-.02h.27v6.741l-.02-.001c-.315-.003-1.03 0-1.138 0zm-28.683 2.894c-.053.008-.088-.015-.098-.021l-.012-.008.002-.014c.039-.246.617-.767 1-1.112.633-.569 1.131-1.02 1.131-1.453a.618.618 0 0 0-.012-.12 3.124 3.124 0 0 1-.08-.693c0-.413.086-.728.158-.919 1.096-2.896 5.842-4.417 8.199-4.817l.127-.021.062-.113c.613-1.115 1.578-1.914 2.582-2.14l.037-.009-.012.037-.166.465c-.07.145-.141.398-.141.636a.82.82 0 0 0 .047.285c.08.2.252.314.477.314h.012l.287-.024c3.363-.398 7.02.366 10.033 2.096l.203.117.145-.185c.465-.596 1.479-.717 2.004-.695l.051.002-.035.034c-.303.307-.529.624-.656.919-.178.41-.646.48-.666.483l-.41.059c.055.087.217.352.217.352.059.098.215.408.215.67 0 .06-.008.114-.023.163a4.47 4.47 0 0 0-.229 1.04l-.004.038-.031-.023c-.438-.34-.959-.879-.959-1.508l.002-.062.012-.205-.195-.065c-4.299-1.43-8.203.268-11.781 2.314-2.806 1.603-7.499 3.662-11.493 4.183zm8.527-12.753c-1.02.372-2.004.824-2.926 1.342-1.031.581-6.398 3.508-10.75 4.077a.141.141 0 0 1-.098-.021l-.012-.008.002-.014c.041-.248.617-.768 1-1.113.633-.568 1.131-1.019 1.131-1.452 0-.04-.006-.08-.014-.12a3.118 3.118 0 0 1-.078-.692c0-.413.086-.729.158-.921 1.1-2.904 4.838-3.875 7.312-4.516l.564-.148.057-.105.055-.106.006-.016c.334-.877 1.154-1.729 1.951-2.021l.037-.015-.01.04c-.109.437-.162.784-.162 1.061 0 .257.045.444.137.558a.43.43 0 0 0 .379.161l.35-.022.359-.042c.166-.021.357-.044.541-.059l.023-.001v4.152l-.012.001zm.553-2.037V10.256H28.042v17.103l-.008.006c-.418.37-.779.814-1.076 1.321l-.004.008-.01.002c-.164.031-.504.1-.953.211l-.031.022v-5.357zm-.539-13.855v1.092l-.041-.062a1.904 1.904 0 0 1 1.611-2.918c1.048 0 1.904.853 1.904 1.902 0 .347-.096.687-.273.981l-.041.066V9.719l-3.16-.002zm0 7.161v.021H14.975V15.5h10.447v1.378zm0-5.268v1.383l-.031-.015a3.619 3.619 0 0 1-1.465-1.33 3.623 3.623 0 0 1-.551-1.914c0-1.996 1.625-3.62 3.621-3.62s3.621 1.624 3.621 3.62a3.61 3.61 0 0 1-.547 1.907 3.62 3.62 0 0 1-1.457 1.331l-.031.015v-1.404l.008-.007a2.442 2.442 0 0 0-1.597-4.286 2.443 2.443 0 0 0-1.578 4.304l.008.006v.01zm3.182 3.89h10.395v1.399H28.584V15.5h.02zm.001 6.088c1.949.242 3.791.856 5.631 1.878l.232.129.133-.232c.367-.646 1.377-.893 1.916-.935l.047-.004-.029.039c-.268.346-.457.699-.549 1.019a.785.785 0 0 1-.492.544l-.373.113.232.311c.008.011.207.281.207.579a.616.616 0 0 1-.012.122c-.047.231-.07.481-.07.743 0 .091.002.187.01.291l.002.041-.033-.02c-.492-.285-1.09-.76-1.146-1.404l-.018-.198-.195-.042c-.762-.16-2.924-.249-5.49.193l-.025.005v-3.174l.022.002zm18.653 14.423l.006-7.823-1.293.002-.023.241c-.42 4.138-2.523 8.038-5.926 10.982a20.39 20.39 0 0 1-11.416 4.861l-.023.001v-.022l-.006-9.559v-.014l.012-.006.023-.013.029-.017c3.406-1.949 7.115-3.579 11.152-2.326l.014.004.002.015c.107 1.247 1.566 2.079 1.629 2.114l.41.231-.008-.471v-.017c0-.123.01-.77.225-1.367a.997.997 0 0 0 .059-.346c0-.193-.047-.404-.137-.627l-.008-.02.02-.008c.344-.147.588-.382.723-.695.252-.582.926-1.092.932-1.097l.34-.254-.373-.2c-.598-.32-2.221-.19-3.014.567l-.012.011-.014-.008c-3.072-1.707-6.773-2.457-10.154-2.058l-.201.018-.021.003-.002-.021v-.007c-.002-.005-.002-.01-.002-.019 0-.088.025-.216.051-.306l.057-.158.459-1.282-.391.008c-.555.012-1.18.223-1.76.595l-.033.021v-1.641l.018-.003c2.158-.384 4.203-.398 5.191-.249l.016.002.004.014c.277 1.222 1.852 1.844 1.918 1.87l.473.182-.111-.494a3.52 3.52 0 0 1-.072-.738c0-.226.02-.438.061-.634.016-.073.021-.149.021-.226 0-.2-.049-.408-.146-.618l-.008-.018.016-.01c.27-.181.453-.437.545-.757.18-.631.797-1.223.803-1.229l.318-.3-.412-.15c-.57-.207-2.199.038-2.922.918l-.01.014-.016-.008c-1.855-.996-3.709-1.594-5.666-1.829l-.02-.002V17.43h.021l10.934.005v-2.478l-10.934.004h-.021v-1.386l.014-.005a4.146 4.146 0 0 0 1.857-1.531 4.14 4.14 0 0 0 .703-2.308 4.164 4.164 0 0 0-4.16-4.159 4.165 4.165 0 0 0-4.16 4.159c0 .824.244 1.625.707 2.314a4.132 4.132 0 0 0 1.865 1.529l.014.006v1.38H25.4l-10.965-.002v2.478l10.965.004h.021v3.471l-.02.002c-.201.015-.404.04-.611.065l-.342.04h-.012l-.24.015-.02.001-.002-.019a.669.669 0 0 1-.01-.116c0-.308.113-.893.277-1.422l.117-.38-.398.033c-1.062.09-2.332 1.176-2.826 2.421l-.006.01-.01.003-.322.083c-2.582.67-6.48 1.683-7.68 4.848-.09.234-.193.616-.193 1.113 0 .265.029.534.09.804v.004c0 .183-.49.641-.951 1.057-.615.553-1.146 1.031-1.182 1.487v.043c0 .146.059.282.168.387a.682.682 0 0 0 .553.172c4.451-.581 9.896-3.552 10.945-4.141a19.42 19.42 0 0 1 2.645-1.231l.029-.011v2.878l-.018.005c-2.143.596-5.893 2.008-6.938 4.77v.001a3.148 3.148 0 0 0-.193 1.11c0 .264.031.535.092.805v.005c0 .183-.492.641-.953 1.056-.613.553-1.145 1.032-1.182 1.486l-.002.043c0 .146.062.284.172.388a.678.678 0 0 0 .551.173c3.736-.488 6.758-1.851 8.381-2.582l.057-.025.031-.014v.033l.004 7.943v.022l-.022-.002a20.402 20.402 0 0 1-11.418-4.861c-3.4-2.944-5.506-6.845-5.926-10.982l-.025-.241-1.291-.002v7.841c.148-.001 1.059-.005 1.314-.008h.016l.006.014c1.322 3.429 3.967 6.575 7.447 8.858 3.482 2.286 7.557 3.544 11.471 3.548H27l.012.004c3.914-.004 7.986-1.266 11.469-3.554 3.48-2.286 6.125-5.435 7.447-8.865l.006-.014h.016l1.308-.001z"/><path d="M15.25 27.711c-.154.009-.223.151-.291.288a1.315 1.315 0 0 1-.164.274l.205.171.021.09c.564-.123.619-.253.639-.302a.19.19 0 0 0-.014-.179c-.132-.216-.246-.349-.396-.342"/><path d="M15.25 27.711c-.154.009-.223.151-.291.288a1.315 1.315 0 0 1-.164.274l.205.171.021.09c.564-.123.619-.253.639-.302a.19.19 0 0 0-.014-.179c-.132-.216-.246-.349-.396-.342zM20.393 35.059c-.154.008-.225.149-.291.286a1.386 1.386 0 0 1-.164.275l.205.17.02.092c.566-.125.619-.254.641-.303a.19.19 0 0 0-.016-.18c-.132-.215-.245-.348-.395-.34z"/><path d="M20.393 35.059c-.154.008-.225.149-.291.286a1.386 1.386 0 0 1-.164.275l.205.17.02.092c.566-.125.619-.254.641-.303a.19.19 0 0 0-.016-.18c-.132-.215-.245-.348-.395-.34zM1.664 28.919a.388.388 0 1 0 .776-.002.388.388 0 0 0-.776.002"/><circle cx="2.051" cy="28.919" r=".387"/><path d="M52.312 28.919a.386.386 0 1 0-.776-.002.386.386 0 0 0 .776.002"/><circle cx="51.926" cy="28.919" r=".387"/><path d="M2.213 26.583c.002-.001.232-.396.232-.397l.004-.005c.143-.259.289-.525.6-.513.258.011.551.211.527.735-.02.463-.207.596-.373.712l-.008.006-.066.047.078.012c.338.053.398.069.59.141l.027.011.012-.027c.086-.192.121-.28.158-.543.016-.106.025-.21.029-.318.025-.608-.186-.928-.312-1.065a1.084 1.084 0 0 0-.762-.338c-.566-.023-.787.382-1.004.773l-.002.006-.123.229c-.125.218-.266.467-.584.454-.266-.012-.539-.227-.52-.672a.861.861 0 0 1 .361-.695l.064-.052-.082-.006a2.153 2.153 0 0 1-.609-.107l-.035-.011-.005.036c-.01.057-.016.084-.039.189l-.029.132a2.555 2.555 0 0 0-.082.46c-.018.41.096.768.316 1.01.188.202.441.316.734.328.54.022.758-.312.903-.532"/><path d="M2.213 26.583c.002-.001.232-.396.232-.397l.004-.005c.143-.259.289-.525.6-.513.258.011.551.211.527.735-.02.463-.207.596-.373.712l-.008.006-.066.047.078.012c.338.053.398.069.59.141l.027.011.012-.027c.086-.192.121-.28.158-.543.016-.106.025-.21.029-.318.025-.608-.186-.928-.312-1.065a1.084 1.084 0 0 0-.762-.338c-.566-.023-.787.382-1.004.773l-.002.006-.123.229c-.125.218-.266.467-.584.454-.266-.012-.539-.227-.52-.672a.861.861 0 0 1 .361-.695l.064-.052-.082-.006a2.153 2.153 0 0 1-.609-.107l-.035-.011-.005.036c-.01.057-.016.084-.039.189l-.029.132a2.555 2.555 0 0 0-.082.46c-.018.41.096.768.316 1.01.188.202.441.316.734.328.54.022.758-.312.903-.532zM1.066 22.444a.915.915 0 0 1 .65-.729c.322-.099.715-.061.988-.011.402.072.715.195.928.366.125.1.225.222.291.351.076.167.1.356.066.547a.917.917 0 0 1-.57.694c-.26.107-.617.12-1.062.04-.689-.124-1.113-.392-1.26-.795a.962.962 0 0 1-.031-.463m1.168 1.891c.598.11 1.098.039 1.482-.21.201-.128.369-.309.482-.521.09-.164.154-.349.189-.549.096-.525-.004-.968-.295-1.314-.281-.341-.719-.568-1.299-.674-.561-.101-1.029-.049-1.389.153-.387.223-.652.63-.744 1.147-.09.493.006.936.277 1.282.276.35.709.58 1.297.686z"/><path d="M1.066 22.444a.915.915 0 0 1 .65-.729c.322-.099.715-.061.988-.011.402.072.715.195.928.366.125.1.225.222.291.351.076.167.1.356.066.547a.917.917 0 0 1-.57.694c-.26.107-.617.12-1.062.04-.689-.124-1.113-.392-1.26-.795a.962.962 0 0 1-.031-.463zm1.168 1.891c.598.11 1.098.039 1.482-.21.201-.128.369-.309.482-.521.09-.164.154-.349.189-.549.096-.525-.004-.968-.295-1.314-.281-.341-.719-.568-1.299-.674-.561-.101-1.029-.049-1.389.153-.387.223-.652.63-.744 1.147-.09.493.006.936.277 1.282.276.35.709.58 1.297.686zM1.832 19.808c.225.059.455.127.77.23l.887.291c.342.112.799.27 1.016.383.133.063.189.118.268.192l.041.039.014-.053c.082-.313.113-.429.303-1.009.18-.547.223-.653.338-.942l.012-.029-.029-.013a5.281 5.281 0 0 1-.568-.278l-.091-.049.043.09c.078.164.15.318-.027.864a2.935 2.935 0 0 1-.237.536 17.477 17.477 0 0 1-1.285-.382c-1.445-.474-1.602-.62-1.695-.707l-.01-.008-.043-.04-.01.057a2.86 2.86 0 0 1-.09.37 2.851 2.851 0 0 1-.143.34l-.033.051.061-.002c.141-.003.233-.002.508.069"/><path d="M1.832 19.808c.225.059.455.127.77.23l.887.291c.342.112.799.27 1.016.383.133.063.189.118.268.192l.041.039.014-.053c.082-.313.113-.429.303-1.009.18-.547.223-.653.338-.942l.012-.029-.029-.013a5.281 5.281 0 0 1-.568-.278l-.091-.049.043.09c.078.164.15.318-.027.864a2.935 2.935 0 0 1-.237.536 17.477 17.477 0 0 1-1.285-.382c-1.445-.474-1.602-.62-1.695-.707l-.01-.008-.043-.04-.01.057a2.86 2.86 0 0 1-.09.37 2.851 2.851 0 0 1-.143.34l-.033.051.061-.002c.141-.003.233-.002.508.069zM2.689 16.987c.145.042.221.071.945.362l.352.153c.404.174.736.324 1.154.526.375.184.443.257.529.349l.041.043.016-.057c.035-.145.072-.259.115-.359.053-.124.125-.241.182-.329l.031-.051-.059.001c-.201.003-.27-.009-.617-.144a38.351 38.351 0 0 1-1.178-.489l-.354-.153c-.891-.403-.979-.446-1.193-.669l-.037-.04-.016.054c-.041.134-.074.246-.121.357a3.513 3.513 0 0 1-.178.331l-.029.048.055.001c.097.005.159.005.362.066"/><path d="M2.689 16.987c.145.042.221.071.945.362l.352.153c.404.174.736.324 1.154.526.375.184.443.257.529.349l.041.043.016-.057c.035-.145.072-.259.115-.359.053-.124.125-.241.182-.329l.031-.051-.059.001c-.201.003-.27-.009-.617-.144a38.351 38.351 0 0 1-1.178-.489l-.354-.153c-.891-.403-.979-.446-1.193-.669l-.037-.04-.016.054c-.041.134-.074.246-.121.357a3.513 3.513 0 0 1-.178.331l-.029.048.055.001c.097.005.159.005.362.066zM3.914 14.571l.02-.046c.055-.123.135-.309.227-.467.16-.273.375-.467.617-.557.447-.16.879.039 1.203.229.566.333.85.695.863 1.106.014.325-.186.69-.246.794-.234.397-.354.332-.516.241l-1.242-.728c-.322-.19-.727-.445-.926-.572m.723 1.102l.533.313.176.109.373.23c.531.336.574.439.596.496l.027.063.031-.061c.02-.035.037-.07.055-.106.035-.072.076-.154.145-.271.043-.072.092-.148.148-.235.068-.107.148-.229.232-.372.238-.404.488-.94.328-1.516-.158-.563-.623-.936-.986-1.148-.111-.066-.508-.288-.896-.357-.799-.129-1.223.4-1.502.875-.096.162-.162.3-.227.434-.061.123-.117.239-.189.364-.09.152-.256.375-.303.425l-.039.04.055.013c.302.074.404.1 1.443.704z"/><path d="M3.914 14.571l.02-.046c.055-.123.135-.309.227-.467.16-.273.375-.467.617-.557.447-.16.879.039 1.203.229.566.333.85.695.863 1.106.014.325-.186.69-.246.794-.234.397-.354.332-.516.241l-1.242-.728c-.322-.19-.727-.445-.926-.572zm.723 1.102l.533.313.176.109.373.23c.531.336.574.439.596.496l.027.063.031-.061c.02-.035.037-.07.055-.106.035-.072.076-.154.145-.271.043-.072.092-.148.148-.235.068-.107.148-.229.232-.372.238-.404.488-.94.328-1.516-.158-.563-.623-.936-.986-1.148-.111-.066-.508-.288-.896-.357-.799-.129-1.223.4-1.502.875-.096.162-.162.3-.227.434-.061.123-.117.239-.189.364-.09.152-.256.375-.303.425l-.039.04.055.013c.302.074.404.1 1.443.704zM6.205 11.979l.992.811.008.006c.361.277.773.591 1.268.42.254-.085.525-.335.695-.542.172-.211.402-.533.416-.884.02-.514-.307-.808-.594-1.068l-.004-.004c-.002 0-1.045-.854-1.045-.854-.464-.394-.572-.511-.695-.712l-.027-.045-.028.045-.013.021c-.051.082-.104.168-.164.243a1.712 1.712 0 0 1-.221.222l-.045.038.057.016a.782.782 0 0 1 .256.125c.076.048.334.253.557.435l.84.688c.436.355.883.723.393 1.323-.299.366-.596.463-.936.308-.148-.065-.295-.186-.5-.354l-.842-.688c-.166-.136-.395-.322-.543-.5-.1-.117-.117-.164-.131-.225l-.018-.073-.039.063-.012.017a2.99 2.99 0 0 1-.217.31 3.13 3.13 0 0 1-.252.263l-.01.009-.045.043.062.012c.152.028.222.041.837.531"/><path d="M6.205 11.979l.992.811.008.006c.361.277.773.591 1.268.42.254-.085.525-.335.695-.542.172-.211.402-.533.416-.884.02-.514-.307-.808-.594-1.068l-.004-.004c-.002 0-1.045-.854-1.045-.854-.464-.394-.572-.511-.695-.712l-.027-.045-.028.045-.013.021c-.051.082-.104.168-.164.243a1.712 1.712 0 0 1-.221.222l-.045.038.057.016a.782.782 0 0 1 .256.125c.076.048.334.253.557.435l.84.688c.436.355.883.723.393 1.323-.299.366-.596.463-.936.308-.148-.065-.295-.186-.5-.354l-.842-.688c-.166-.136-.395-.322-.543-.5-.1-.117-.117-.164-.131-.225l-.018-.073-.039.063-.012.017a2.99 2.99 0 0 1-.217.31 3.13 3.13 0 0 1-.252.263l-.01.009-.045.043.062.012c.152.028.222.041.837.531zM8.832 8.865l.338.404.142.181c.434.544.748.938.891 1.163.125.186.168.293.209.398l.01.022.02.052.035-.045c.061-.08.135-.157.211-.223.088-.076.188-.142.281-.203l.041-.026-.039-.028c-.219-.148-.299-.226-.617-.607l-.432-.516a44.551 44.551 0 0 0-.67-.794 5.631 5.631 0 0 0-.221-.245c.25.154.414.249.709.412l1.947 1.127.02.011.018-.015.195-.169.016-.014-.006-.02-.797-2.25-.193-.553-.07-.202c.123.159.291.361.51.615l.627.724c.549.634.672.856.688.994l.01.074.047-.057c.1-.119.188-.208.271-.281.102-.087.215-.161.311-.221l.053-.034-.057-.023-.016-.006c-.072-.03-.131-.052-.256-.171-.273-.239-.643-.661-1.691-1.892-.314-.371-.346-.454-.428-.678l-.02-.049-.035.039c-.129.145-.236.25-.342.342a1.613 1.613 0 0 1-.303.214l-.025.016.014.027c.139.254.174.356.285.659l.004.007.363 1.059.072.212c.082.244.182.538.287.76a5.855 5.855 0 0 0-.656-.395l-.955-.555a5.997 5.997 0 0 1-.803-.532l-.024-.021-.02.021-.039.04a3.742 3.742 0 0 1-.293.286c-.113.101-.234.185-.361.276l-.016.012-.076.053.092.005c.084.004.236.012.744.62"/><path d="M8.832 8.865l.338.404.142.181c.434.544.748.938.891 1.163.125.186.168.293.209.398l.01.022.02.052.035-.045c.061-.08.135-.157.211-.223.088-.076.188-.142.281-.203l.041-.026-.039-.028c-.219-.148-.299-.226-.617-.607l-.432-.516a44.551 44.551 0 0 0-.67-.794 5.631 5.631 0 0 0-.221-.245c.25.154.414.249.709.412l1.947 1.127.02.011.018-.015.195-.169.016-.014-.006-.02-.797-2.25-.193-.553-.07-.202c.123.159.291.361.51.615l.627.724c.549.634.672.856.688.994l.01.074.047-.057c.1-.119.188-.208.271-.281.102-.087.215-.161.311-.221l.053-.034-.057-.023-.016-.006c-.072-.03-.131-.052-.256-.171-.273-.239-.643-.661-1.691-1.892-.314-.371-.346-.454-.428-.678l-.02-.049-.035.039c-.129.145-.236.25-.342.342a1.613 1.613 0 0 1-.303.214l-.025.016.014.027c.139.254.174.356.285.659l.004.007.363 1.059.072.212c.082.244.182.538.287.76a5.855 5.855 0 0 0-.656-.395l-.955-.555a5.997 5.997 0 0 1-.803-.532l-.024-.021-.02.021-.039.04a3.742 3.742 0 0 1-.293.286c-.113.101-.234.185-.361.276l-.016.012-.076.053.092.005c.084.004.236.012.744.62zM14.869 5.468l-.25-.47c-.221-.415-.285-.555-.375-.747l-.027-.058c.088-.061.154-.102.266-.161.125-.067.383-.207.637-.131.154.047.287.168.391.364.125.23.15.46.074.646-.064.159-.203.297-.414.411a4.308 4.308 0 0 1-.186.09l-.116.056m-.803-.302l.537 1.003c.346.644.514 1.049.498 1.206v.008l-.006.064.055-.034.014-.009c.104-.067.213-.135.326-.198.111-.058.23-.111.346-.161l.064-.027-.062-.031-.012-.005c-.059-.028-.191-.089-.695-1.026l-.064-.118.1-.05a6.62 6.62 0 0 0 .225-.114c.268-.145.641-.384.77-.795.115-.367-.012-.723-.139-.958-.158-.295-.354-.48-.582-.549-.346-.104-.707.063-1.016.23-.041.021-.148.082-.252.14l-.225.126c-.193.104-.336.164-.473.223l-.078.032-.051.022.045.033c.199.148.476.619.675.988z"/><path d="M14.869 5.468l-.25-.47c-.221-.415-.285-.555-.375-.747l-.027-.058c.088-.061.154-.102.266-.161.125-.067.383-.207.637-.131.154.047.287.168.391.364.125.23.15.46.074.646-.064.159-.203.297-.414.411a4.308 4.308 0 0 1-.186.09l-.116.056zm-.803-.302l.537 1.003c.346.644.514 1.049.498 1.206v.008l-.006.064.055-.034.014-.009c.104-.067.213-.135.326-.198.111-.058.23-.111.346-.161l.064-.027-.062-.031-.012-.005c-.059-.028-.191-.089-.695-1.026l-.064-.118.1-.05a6.62 6.62 0 0 0 .225-.114c.268-.145.641-.384.77-.795.115-.367-.012-.723-.139-.958-.158-.295-.354-.48-.582-.549-.346-.104-.707.063-1.016.23-.041.021-.148.082-.252.14l-.225.126c-.193.104-.336.164-.473.223l-.078.032-.051.022.045.033c.199.148.476.619.675.988zM16.902 3.615l.014.037.467 1.204c.111.292.236.627.293.907.023.11.027.18.027.296v.052l.047-.024c.234-.121.43-.197.854-.362l.041-.016c.4-.154.666-.242.842-.3l.148-.05.027-.01-.008-.028a2.523 2.523 0 0 1-.09-.634l-.004-.112-.057.097c-.08.144-.148.266-.467.433-.133.073-.242.114-.293.134-.51.197-.537.17-.682-.191 0 0-.264-.681-.32-.831.371-.153.572-.23.816-.298a.61.61 0 0 1 .354-.005l.072.015-.039-.063a1.907 1.907 0 0 1-.239-.62l-.02-.089-.041.081-.004.006c-.037.07-.061.117-.137.172-.074.053-.211.12-.389.188a6.035 6.035 0 0 1-.541.184l-.191-.492c-.062-.162-.131-.35-.188-.521.16-.071.26-.115.43-.181.537-.208.619-.186.82-.076l.092.049-.047-.093a1.9 1.9 0 0 1-.105-.229 2.731 2.731 0 0 1-.068-.198l-.043-.132-.012-.032-.031.012c-.301.132-.695.301-1.049.439-.465.18-.648.23-.748.257l-.01.002-.047.013.031.038c.208.265.263.401.495.971"/><path d="M16.902 3.615l.014.037.467 1.204c.111.292.236.627.293.907.023.11.027.18.027.296v.052l.047-.024c.234-.121.43-.197.854-.362l.041-.016c.4-.154.666-.242.842-.3l.148-.05.027-.01-.008-.028a2.523 2.523 0 0 1-.09-.634l-.004-.112-.057.097c-.08.144-.148.266-.467.433-.133.073-.242.114-.293.134-.51.197-.537.17-.682-.191 0 0-.264-.681-.32-.831.371-.153.572-.23.816-.298a.61.61 0 0 1 .354-.005l.072.015-.039-.063a1.907 1.907 0 0 1-.239-.62l-.02-.089-.041.081-.004.006c-.037.07-.061.117-.137.172-.074.053-.211.12-.389.188a6.035 6.035 0 0 1-.541.184l-.191-.492c-.062-.162-.131-.35-.188-.521.16-.071.26-.115.43-.181.537-.208.619-.186.82-.076l.092.049-.047-.093a1.9 1.9 0 0 1-.105-.229 2.731 2.731 0 0 1-.068-.198l-.043-.132-.012-.032-.031.012c-.301.132-.695.301-1.049.439-.465.18-.648.23-.748.257l-.01.002-.047.013.031.038c.208.265.263.401.495.971zM19.168 1.726c.029.075.055.139.072.214.023.093.031.191.035.274l.004.088.053-.069c.117-.15.188-.208.584-.312l.416-.102c.078.235.178.565.416 1.521.338 1.375.275 1.517.252 1.57l-.002.004-.031.07.072-.026.021-.009c.121-.044.236-.087.359-.117.115-.03.24-.049.361-.059l.062-.005-.041-.047a.776.776 0 0 1-.154-.274c-.111-.277-.25-.813-.371-1.302a27.248 27.248 0 0 1-.338-1.476l.367-.092c.463-.099.512-.1.734-.014l.07.027-.029-.07a2.16 2.16 0 0 1-.094-.277 2.657 2.657 0 0 1-.053-.314l-.004-.041-.037.013c-.359.12-.74.22-1.408.385-.586.145-1.17.286-1.33.292l-.045.002.016.042.043.104"/><path d="M19.168 1.726c.029.075.055.139.072.214.023.093.031.191.035.274l.004.088.053-.069c.117-.15.188-.208.584-.312l.416-.102c.078.235.178.565.416 1.521.338 1.375.275 1.517.252 1.57l-.002.004-.031.07.072-.026.021-.009c.121-.044.236-.087.359-.117.115-.03.24-.049.361-.059l.062-.005-.041-.047a.776.776 0 0 1-.154-.274c-.111-.277-.25-.813-.371-1.302a27.248 27.248 0 0 1-.338-1.476l.367-.092c.463-.099.512-.1.734-.014l.07.027-.029-.07a2.16 2.16 0 0 1-.094-.277 2.657 2.657 0 0 1-.053-.314l-.004-.041-.037.013c-.359.12-.74.22-1.408.385-.586.145-1.17.286-1.33.292l-.045.002.016.042.043.104zM23.088 2.547c.061.424.109.783.156 1.259.041.417.014.512-.018.632l-.016.057.055-.018c.107-.033.234-.069.367-.088.133-.021.271-.021.375-.019h.061l-.033-.049c-.107-.169-.135-.236-.201-.601-.08-.448-.133-.778-.201-1.258l-.057-.379c-.123-.97-.133-1.068-.057-1.367l.014-.053-.053.014-.016.004c-.115.03-.232.061-.352.079a3.126 3.126 0 0 1-.361.024h-.016l-.055.002.027.047c.049.081.082.135.137.338.039.146.057.227.188.995l.056.381"/><path d="M23.088 2.547c.061.424.109.783.156 1.259.041.417.014.512-.018.632l-.016.057.055-.018c.107-.033.234-.069.367-.088.133-.021.271-.021.375-.019h.061l-.033-.049c-.107-.169-.135-.236-.201-.601-.08-.448-.133-.778-.201-1.258l-.057-.379c-.123-.97-.133-1.068-.057-1.367l.014-.053-.053.014-.016.004c-.115.03-.232.061-.352.079a3.126 3.126 0 0 1-.361.024h-.016l-.055.002.027.047c.049.081.082.135.137.338.039.146.057.227.188.995l.056.381zM27.166.775a2.213 2.213 0 0 1 .008-.318l.004-.039-.039.005c-.369.047-.764.07-1.455.102-.602.027-1.205.051-1.361.027l-.045-.007.008.043.018.102c.016.082.027.152.031.231.004.096-.008.193-.02.276l-.014.087.066-.057c.143-.124.225-.167.633-.19l.428-.02c.029.241.062.58.107 1.573.064 1.414-.025 1.542-.059 1.589l-.004.004-.042.063.074-.012.004-.001c.135-.022.262-.042.396-.048.119-.006.248-.001.365.012l.064.008-.032-.055c-.039-.071-.064-.116-.098-.298-.055-.291-.086-.82-.109-1.35a27.716 27.716 0 0 1-.041-1.514l.379-.017c.473-.006.52.002.723.13l.062.041-.014-.074a1.94 1.94 0 0 1-.037-.293"/><path d="M27.166.775a2.213 2.213 0 0 1 .008-.318l.004-.039-.039.005c-.369.047-.764.07-1.455.102-.602.027-1.205.051-1.361.027l-.045-.007.008.043.018.102c.016.082.027.152.031.231.004.096-.008.193-.02.276l-.014.087.066-.057c.143-.124.225-.167.633-.19l.428-.02c.029.241.062.58.107 1.573.064 1.414-.025 1.542-.059 1.589l-.004.004-.042.063.074-.012.004-.001c.135-.022.262-.042.396-.048.119-.006.248-.001.365.012l.064.008-.032-.055c-.039-.071-.064-.116-.098-.298-.055-.291-.086-.82-.109-1.35a27.716 27.716 0 0 1-.041-1.514l.379-.017c.473-.006.52.002.723.13l.062.041-.014-.074a1.94 1.94 0 0 1-.037-.293zM29.627 4.303c.133.016.262.048.369.08l.057.016-.018-.059c-.061-.189-.07-.26-.043-.631.037-.438.07-.769.129-1.269l.043-.382c.125-.951.143-1.065.295-1.335l.025-.047h-.072c-.119 0-.242 0-.359-.014-.123-.014-.248-.045-.367-.073l-.057-.013.016.052c.027.091.045.151.045.364.002.155-.004.244-.074 1.01l-.043.381c-.051.433-.096.793-.17 1.257-.068.412-.117.498-.18.608l-.029.051.059-.003c.147-.007.267-.005.374.007"/><path d="M29.627 4.303c.133.016.262.048.369.08l.057.016-.018-.059c-.061-.189-.07-.26-.043-.631.037-.438.07-.769.129-1.269l.043-.382c.125-.951.143-1.065.295-1.335l.025-.047h-.072c-.119 0-.242 0-.359-.014-.123-.014-.248-.045-.367-.073l-.057-.013.016.052c.027.091.045.151.045.364.002.155-.004.244-.074 1.01l-.043.381c-.051.433-.096.793-.17 1.257-.068.412-.117.498-.18.608l-.029.051.059-.003c.147-.007.267-.005.374.007zM30.943 4.482c.111.007.217.014.32.039.1.025.203.07.301.113l.008.003.049.022-.006-.055c-.033-.321.053-.684.131-1.003v-.006l.156-.642c.152-.629.219-.97.26-1.275.029.111.074.256.143.471l.113.365.475 1.558c.16.5.178.565.271.929l.006.023.023.001c.096.003.182.014.27.034.094.023.182.059.273.096l.008.004.041.017.004-.043a6.84 6.84 0 0 1 .182-.979c.158-.652.316-1.257.482-1.848.123-.423.199-.563.281-.692l.027-.042-.049-.007-.018-.002c-.107-.016-.209-.031-.297-.053a2.446 2.446 0 0 1-.346-.104l-.057-.024.012.06c.025.114.064.304-.146 1.178l-.156.643c-.053.216-.152.624-.213.923-.02-.08-.051-.177-.096-.325l-.141-.454-.443-1.497c-.139-.579-.152-.639-.18-.838l-.004-.026-.025-.003a3.324 3.324 0 0 1-.881-.211l-.076-.029.037.073c.074.151.105.213.029.673-.104.615-.426 1.949-.613 2.47-.084.231-.139.32-.199.413l-.031.046.057.003.018.001"/><path d="M30.943 4.482c.111.007.217.014.32.039.1.025.203.07.301.113l.008.003.049.022-.006-.055c-.033-.321.053-.684.131-1.003v-.006l.156-.642c.152-.629.219-.97.26-1.275.029.111.074.256.143.471l.113.365.475 1.558c.16.5.178.565.271.929l.006.023.023.001c.096.003.182.014.27.034.094.023.182.059.273.096l.008.004.041.017.004-.043a6.84 6.84 0 0 1 .182-.979c.158-.652.316-1.257.482-1.848.123-.423.199-.563.281-.692l.027-.042-.049-.007-.018-.002c-.107-.016-.209-.031-.297-.053a2.446 2.446 0 0 1-.346-.104l-.057-.024.012.06c.025.114.064.304-.146 1.178l-.156.643c-.053.216-.152.624-.213.923-.02-.08-.051-.177-.096-.325l-.141-.454-.443-1.497c-.139-.579-.152-.639-.18-.838l-.004-.026-.025-.003a3.324 3.324 0 0 1-.881-.211l-.076-.029.037.073c.074.151.105.213.029.673-.104.615-.426 1.949-.613 2.47-.084.231-.139.32-.199.413l-.031.046.057.003.018.001zM37.906 3.285c.104.035.174.062.287.119.215.102.717.342.42.964-.113.236-.283.394-.478.442-.164.043-.363.013-.576-.089a3.48 3.48 0 0 1-.182-.096l-.113-.06.23-.481c.211-.432.281-.561.391-.757l.021-.042m-1.677 2.807c.109.053.217.114.336.184l.059.034-.01-.067a.033.033 0 0 1-.004-.014c-.014-.062-.041-.207.416-1.165l.059-.123.09.046c.088.045.158.082.232.118.275.131.688.289 1.098.15.363-.125.576-.438.691-.678.445-.936-.293-1.288-.689-1.477a13.543 13.543 0 0 0-.497-.225c-.205-.098-.342-.18-.475-.259l-.057-.034-.048-.029v.057c-.002.201-.135.581-.398 1.129l-.49 1.025c-.315.658-.542 1.033-.679 1.114l-.008.004-.053.034.059.023c.125.048.248.096.368.153z"/><path d="M37.906 3.285c.104.035.174.062.287.119.215.102.717.342.42.964-.113.236-.283.394-.478.442-.164.043-.363.013-.576-.089a3.48 3.48 0 0 1-.182-.096l-.113-.06.23-.481c.211-.432.281-.561.391-.757l.021-.042zm-1.677 2.807c.109.053.217.114.336.184l.059.034-.01-.067a.033.033 0 0 1-.004-.014c-.014-.062-.041-.207.416-1.165l.059-.123.09.046c.088.045.158.082.232.118.275.131.688.289 1.098.15.363-.125.576-.438.691-.678.445-.936-.293-1.288-.689-1.477a13.543 13.543 0 0 0-.497-.225c-.205-.098-.342-.18-.475-.259l-.057-.034-.048-.029v.057c-.002.201-.135.581-.398 1.129l-.49 1.025c-.315.658-.542 1.033-.679 1.114l-.008.004-.053.034.059.023c.125.048.248.096.368.153zM41.135 5.035c.406.264.496.578.264.934-.045.067-.178.271-.459.322-.273.043-.494-.101-.658-.208a1.682 1.682 0 0 1-.186-.136c.064-.1.311-.477.311-.477.152-.236.225-.347.428-.609l.3.174M38.477 7.17l-.012.005-.059.026.057.031c.117.064.23.126.336.194a4.3 4.3 0 0 1 .316.23l.045.034.008-.056v-.013c.01-.078.016-.145.08-.283.072-.153.154-.299.355-.625l.27-.414.311.212c.021.196.029.339-.012.94a7.51 7.51 0 0 1-.098.806l-.004.023.021.012.076.041c.119.063.193.104.295.169.096.064.176.127.264.203l.076.065-.023-.098c-.07-.282-.064-.486-.047-.981 0 0 .025-.736.033-.92a1.08 1.08 0 0 0 1.156-.462c.188-.286.254-.553.205-.792-.07-.33-.344-.546-.629-.731a14.442 14.442 0 0 0-.312-.196 6.844 6.844 0 0 1-.189-.119c-.328-.212-.377-.258-.482-.356l-.043-.04-.01.057c-.043.209-.203.531-.498.982l-.502.772c-.391.59-.619.933-.77 1.109-.105.125-.156.149-.214.175z"/><path d="M41.135 5.035c.406.264.496.578.264.934-.045.067-.178.271-.459.322-.273.043-.494-.101-.658-.208a1.682 1.682 0 0 1-.186-.136c.064-.1.311-.477.311-.477.152-.236.225-.347.428-.609l.3.174zM38.477 7.17l-.012.005-.059.026.057.031c.117.064.23.126.336.194a4.3 4.3 0 0 1 .316.23l.045.034.008-.056v-.013c.01-.078.016-.145.08-.283.072-.153.154-.299.355-.625l.27-.414.311.212c.021.196.029.339-.012.94a7.51 7.51 0 0 1-.098.806l-.004.023.021.012.076.041c.119.063.193.104.295.169.096.064.176.127.264.203l.076.065-.023-.098c-.07-.282-.064-.486-.047-.981 0 0 .025-.736.033-.92a1.08 1.08 0 0 0 1.156-.462c.188-.286.254-.553.205-.792-.07-.33-.344-.546-.629-.731a14.442 14.442 0 0 0-.312-.196 6.844 6.844 0 0 1-.189-.119c-.328-.212-.377-.258-.482-.356l-.043-.04-.01.057c-.043.209-.203.531-.498.982l-.502.772c-.391.59-.619.933-.77 1.109-.105.125-.156.149-.214.175zM44.641 8.348c-.088.343-.352.68-.5.85-.271.307-.539.51-.795.604a1.084 1.084 0 0 1-.451.068.926.926 0 0 1-.502-.227.92.92 0 0 1-.301-.847c.043-.277.217-.59.518-.929.471-.534.906-.752 1.332-.666a.913.913 0 0 1 .412.214.907.907 0 0 1 .287.933m-3.096.461c.006.239.072.475.195.683.094.16.217.31.373.447.398.353.83.498 1.277.428.438-.063.857-.32 1.248-.763.377-.427.576-.853.588-1.265.01-.446-.201-.884-.596-1.231-.375-.331-.805-.478-1.24-.425-.305.036-.77.195-1.258.75-.403.457-.603.92-.587 1.376z"/><path d="M44.641 8.348c-.088.343-.352.68-.5.85-.271.307-.539.51-.795.604a1.084 1.084 0 0 1-.451.068.926.926 0 0 1-.502-.227.92.92 0 0 1-.301-.847c.043-.277.217-.59.518-.929.471-.534.906-.752 1.332-.666a.913.913 0 0 1 .412.214.907.907 0 0 1 .287.933zm-3.096.461c.006.239.072.475.195.683.094.16.217.31.373.447.398.353.83.498 1.277.428.438-.063.857-.32 1.248-.763.377-.427.576-.853.588-1.265.01-.446-.201-.884-.596-1.231-.375-.331-.805-.478-1.24-.425-.305.036-.77.195-1.258.75-.403.457-.603.92-.587 1.376zM44.777 10.662c-.457.384-.732.616-1.027.727l-.049.018.039.036c.104.094.193.185.27.271.072.086.145.182.217.29l.031.048.023-.053.006-.012a.86.86 0 0 1 .109-.181c.186-.234.426-.446 1.088-1.012.127.136.203.221.258.283l.018.021.014.015c.057.066.174.203.246.309.145.205.156.275.172.383l.01.067a.427.427 0 0 0 .047-.048l.012-.013c.068-.077.139-.156.225-.231.074-.063.139-.105.213-.155l.043-.028.062-.04-.072-.018a.389.389 0 0 0-.047-.009c-.078-.015-.145-.027-.336-.223a3.142 3.142 0 0 1-.26-.292c-.023-.031-.051-.064-.088-.108-.043-.054-.1-.121-.172-.212l.346-.298c.174-.152.238-.209.484-.404.033.035.066.07.102.104.039.04.08.081.119.123.029.034.062.068.092.102.029.032.061.065.09.099.123.142.23.292.285.406.059.121.051.197.043.278l-.002.021-.01.108.066-.086a1.45 1.45 0 0 1 .434-.376l.033-.02-.027-.029c-.23-.244-.494-.52-.699-.757-.191-.22-.441-.538-.562-.69l-.055-.067-.029-.04-.023.045c-.084.163-.133.26-1.01 1.022l-.717.62-.012.006"/><path d="M44.777 10.662c-.457.384-.732.616-1.027.727l-.049.018.039.036c.104.094.193.185.27.271.072.086.145.182.217.29l.031.048.023-.053.006-.012a.86.86 0 0 1 .109-.181c.186-.234.426-.446 1.088-1.012.127.136.203.221.258.283l.018.021.014.015c.057.066.174.203.246.309.145.205.156.275.172.383l.01.067a.427.427 0 0 0 .047-.048l.012-.013c.068-.077.139-.156.225-.231.074-.063.139-.105.213-.155l.043-.028.062-.04-.072-.018a.389.389 0 0 0-.047-.009c-.078-.015-.145-.027-.336-.223a3.142 3.142 0 0 1-.26-.292c-.023-.031-.051-.064-.088-.108-.043-.054-.1-.121-.172-.212l.346-.298c.174-.152.238-.209.484-.404.033.035.066.07.102.104.039.04.08.081.119.123.029.034.062.068.092.102.029.032.061.065.09.099.123.142.23.292.285.406.059.121.051.197.043.278l-.002.021-.01.108.066-.086a1.45 1.45 0 0 1 .434-.376l.033-.02-.027-.029c-.23-.244-.494-.52-.699-.757-.191-.22-.441-.538-.562-.69l-.055-.067-.029-.04-.023.045c-.084.163-.133.26-1.01 1.022l-.717.62-.012.006zM46.662 12.706h-.002l-.002.001c-.377.263-.803.56-.789 1.084.004.268.16.602.307.826.148.228.385.545.717.665.482.175.863-.046 1.199-.242l.002-.001c.002 0 1.131-.737 1.131-.737.516-.323.66-.389.889-.447l.051-.013-.035-.04c-.074-.085-.143-.163-.197-.248a1.559 1.559 0 0 1-.145-.277l-.023-.054-.033.049a.778.778 0 0 1-.195.206c-.07.058-.352.246-.584.396l-.908.593c-.471.306-.957.622-1.381-.028-.258-.396-.262-.709-.01-.983.105-.118.254-.218.49-.371l.91-.593c.168-.111.424-.277.641-.366.141-.059.191-.06.252-.055l.076.005-.049-.059-.008-.009a2.995 2.995 0 0 1-.232-.306 3.186 3.186 0 0 1-.172-.315l-.008-.016-.027-.055-.031.054c-.072.136-.107.198-.76.635 0 .002-1.074.701-1.074.701"/><path d="M46.662 12.706h-.002l-.002.001c-.377.263-.803.56-.789 1.084.004.268.16.602.307.826.148.228.385.545.717.665.482.175.863-.046 1.199-.242l.002-.001c.002 0 1.131-.737 1.131-.737.516-.323.66-.389.889-.447l.051-.013-.035-.04c-.074-.085-.143-.163-.197-.248a1.559 1.559 0 0 1-.145-.277l-.023-.054-.033.049a.778.778 0 0 1-.195.206c-.07.058-.352.246-.584.396l-.908.593c-.471.306-.957.622-1.381-.028-.258-.396-.262-.709-.01-.983.105-.118.254-.218.49-.371l.91-.593c.168-.111.424-.277.641-.366.141-.059.191-.06.252-.055l.076.005-.049-.059-.008-.009a2.995 2.995 0 0 1-.232-.306 3.186 3.186 0 0 1-.172-.315l-.008-.016-.027-.055-.031.054c-.072.136-.107.198-.76.635 0 .002-1.074.701-1.074.701zM47.391 16.45l-.055.004.031.045.01.014c.062.092.121.181.166.281.041.094.066.204.092.311l.002.003.012.053.041-.038c.238-.228.582-.378.883-.511l.604-.266c.6-.264.91-.42 1.17-.568-.068.089-.154.212-.285.395l-.223.316-.949 1.324c-.299.432-.34.486-.572.778l-.016.019.016.02c.059.084.102.157.135.235.039.088.064.178.09.273l.004.011.012.041.035-.022a6.75 6.75 0 0 1 .889-.45c.627-.277 1.203-.52 1.762-.741.406-.159.561-.183.721-.197l.049-.005-.023-.043a2.866 2.866 0 0 1-.275-.619l-.016-.061-.045.048c-.074.087-.203.235-1.023.598l-.605.268-.051.022c-.236.104-.566.252-.812.371.051-.064.109-.147.199-.272l.277-.39.914-1.261.027-.032c.355-.437.393-.482.531-.621l.018-.018-.014-.022a3.585 3.585 0 0 1-.366-.827l-.023-.079-.037.074c-.072.147-.105.213-.516.432-.549.292-1.805.848-2.336 1.016a1.77 1.77 0 0 1-.448.091"/><path d="M47.391 16.45l-.055.004.031.045.01.014c.062.092.121.181.166.281.041.094.066.204.092.311l.002.003.012.053.041-.038c.238-.228.582-.378.883-.511l.604-.266c.6-.264.91-.42 1.17-.568-.068.089-.154.212-.285.395l-.223.316-.949 1.324c-.299.432-.34.486-.572.778l-.016.019.016.02c.059.084.102.157.135.235.039.088.064.178.09.273l.004.011.012.041.035-.022a6.75 6.75 0 0 1 .889-.45c.627-.277 1.203-.52 1.762-.741.406-.159.561-.183.721-.197l.049-.005-.023-.043a2.866 2.866 0 0 1-.275-.619l-.016-.061-.045.048c-.074.087-.203.235-1.023.598l-.605.268-.051.022c-.236.104-.566.252-.812.371.051-.064.109-.147.199-.272l.277-.39.914-1.261.027-.032c.355-.437.393-.482.531-.621l.018-.018-.014-.022a3.585 3.585 0 0 1-.366-.827l-.023-.079-.037.074c-.072.147-.105.213-.516.432-.549.292-1.805.848-2.336 1.016a1.77 1.77 0 0 1-.448.091zM52.178 19.836l.016.042c.049.126.125.316.172.496.078.307.062.594-.047.829-.203.429-.648.591-1.014.685-.637.163-1.092.104-1.393-.176-.238-.223-.355-.621-.385-.737-.115-.447.016-.484.195-.535l1.395-.356c.346-.089.811-.195 1.061-.248m-1.889-.12l-.207.048-.422.098c-.617.137-.717.093-.771.069l-.064-.028.02.067c.012.04.025.077.039.117.025.076.055.162.088.292.02.081.039.168.059.269.027.125.057.269.098.43.117.454.316 1.012.836 1.306.51.289 1.102.226 1.51.121.125-.032.562-.154.887-.379.658-.472.586-1.144.449-1.679-.045-.181-.096-.325-.143-.465a4.351 4.351 0 0 1-.125-.395 3.613 3.613 0 0 1-.084-.514l-.002-.055-.047.028c-.266.16-.357.215-1.52.518l-.601.152z"/><path d="M52.178 19.836l.016.042c.049.126.125.316.172.496.078.307.062.594-.047.829-.203.429-.648.591-1.014.685-.637.163-1.092.104-1.393-.176-.238-.223-.355-.621-.385-.737-.115-.447.016-.484.195-.535l1.395-.356c.346-.089.811-.195 1.061-.248zm-1.889-.12l-.207.048-.422.098c-.617.137-.717.093-.771.069l-.064-.028.02.067c.012.04.025.077.039.117.025.076.055.162.088.292.02.081.039.168.059.269.027.125.057.269.098.43.117.454.316 1.012.836 1.306.51.289 1.102.226 1.51.121.125-.032.562-.154.887-.379.658-.472.586-1.144.449-1.679-.045-.181-.096-.325-.143-.465a4.351 4.351 0 0 1-.125-.395 3.613 3.613 0 0 1-.084-.514l-.002-.055-.047.028c-.266.16-.357.215-1.52.518l-.601.152zM51.6 23.465c-.449.06-.799.105-1.262.148-.414.037-.512.01-.633-.023l-.057-.016.018.056c.029.1.068.231.086.366.014.107.02.223.016.375l-.002.061.051-.032c.172-.106.236-.132.602-.198.461-.077.791-.128 1.262-.191l.379-.053c.973-.117 1.07-.126 1.369-.046l.053.014-.014-.053v-.004a3.053 3.053 0 0 1-.082-.365c-.016-.121-.018-.246-.02-.367v-.008l-.002-.056-.048.027c-.082.05-.137.081-.34.133-.148.041-.234.058-.996.182l-.38.05"/><path d="M51.6 23.465c-.449.06-.799.105-1.262.148-.414.037-.512.01-.633-.023l-.057-.016.018.056c.029.1.068.231.086.366.014.107.02.223.016.375l-.002.061.051-.032c.172-.106.236-.132.602-.198.461-.077.791-.128 1.262-.191l.379-.053c.973-.117 1.07-.126 1.369-.046l.053.014-.014-.053v-.004a3.053 3.053 0 0 1-.082-.365c-.016-.121-.018-.246-.02-.367v-.008l-.002-.056-.048.027c-.082.05-.137.081-.34.133-.148.041-.234.058-.996.182l-.38.05zM53.684 26.345c-.016-.41-.156-.757-.398-.982a1.03 1.03 0 0 0-.758-.269c-.541.02-.73.372-.857.604l-.201.413-.002.003c-.121.27-.246.549-.557.56a.517.517 0 0 1-.371-.134c-.131-.121-.205-.313-.213-.557-.018-.462.158-.609.314-.739l.008-.007.062-.05-.08-.006c-.342-.025-.404-.038-.598-.093l-.027-.009-.01.028c-.07.197-.1.288-.117.554a3.407 3.407 0 0 0-.002.32c.023.608.258.91.396 1.036.205.19.484.289.787.277.566-.022.756-.444.938-.852l.004-.006.104-.238c.107-.229.229-.486.547-.499.264-.01.555.182.57.628.016.423-.201.625-.305.722l-.061.057h.082c.273-.001.355 0 .617.059l.035.008.004-.037c.006-.066.01-.093.029-.241l.014-.085a2.54 2.54 0 0 0 .046-.465"/><path d="M53.684 26.345c-.016-.41-.156-.757-.398-.982a1.03 1.03 0 0 0-.758-.269c-.541.02-.73.372-.857.604l-.201.413-.002.003c-.121.27-.246.549-.557.56a.517.517 0 0 1-.371-.134c-.131-.121-.205-.313-.213-.557-.018-.462.158-.609.314-.739l.008-.007.062-.05-.08-.006c-.342-.025-.404-.038-.598-.093l-.027-.009-.01.028c-.07.197-.1.288-.117.554a3.407 3.407 0 0 0-.002.32c.023.608.258.91.396 1.036.205.19.484.289.787.277.566-.022.756-.444.938-.852l.004-.006.104-.238c.107-.229.229-.486.547-.499.264-.01.555.182.57.628.016.423-.201.625-.305.722l-.061.057h.082c.273-.001.355 0 .617.059l.035.008.004-.037c.006-.066.01-.093.029-.241l.014-.085a2.54 2.54 0 0 0 .046-.465zM2.4 33.512h.004l1.32-.267c.6-.112.758-.12.992-.089l.053.007-.018-.049c-.035-.1-.072-.201-.094-.304-.02-.1-.029-.194-.031-.311l-.002-.06-.049.033a.727.727 0 0 1-.258.119c-.086.027-.406.098-.689.153l-1.064.216c-.34.067-.725.146-.982-.023-.145-.098-.238-.264-.289-.512-.094-.463.018-.755.354-.918.145-.072.332-.11.592-.163l1.064-.215c.211-.043.5-.103.732-.104.154-.002.201.016.256.043l.068.033-.023-.071-.004-.012a3.524 3.524 0 0 1-.105-.37 3.396 3.396 0 0 1-.043-.375l-.006-.062-.047.04c-.119.1-.174.145-.941.31l-1.258.254-.004.001c-.447.105-.953.225-1.133.716-.096.25-.072.618-.02.88.053.269.156.651.418.883.387.342.823.275 1.207.217"/><path d="M2.4 33.512h.004l1.32-.267c.6-.112.758-.12.992-.089l.053.007-.018-.049c-.035-.1-.072-.201-.094-.304-.02-.1-.029-.194-.031-.311l-.002-.06-.049.033a.727.727 0 0 1-.258.119c-.086.027-.406.098-.689.153l-1.064.216c-.34.067-.725.146-.982-.023-.145-.098-.238-.264-.289-.512-.094-.463.018-.755.354-.918.145-.072.332-.11.592-.163l1.064-.215c.211-.043.5-.103.732-.104.154-.002.201.016.256.043l.068.033-.023-.071-.004-.012a3.524 3.524 0 0 1-.105-.37 3.396 3.396 0 0 1-.043-.375l-.006-.062-.047.04c-.119.1-.174.145-.941.31l-1.258.254-.004.001c-.447.105-.953.225-1.133.716-.096.25-.072.618-.02.88.053.269.156.651.418.883.387.342.823.275 1.207.217zM5.281 36.916c.418-.138.578-.154.73-.159l.049-.002-.021-.045a3.38 3.38 0 0 1-.133-.29 2.305 2.305 0 0 1-.109-.343l-.012-.061-.043.045c-.08.084-.213.223-1.055.545l-.617.236-.068.025c-.236.091-.568.219-.814.321.055-.06.117-.139.211-.259l.299-.376.98-1.213c.398-.443.439-.488.59-.624l.02-.018-.014-.022a3.77 3.77 0 0 1-.199-.439 2.95 2.95 0 0 1-.124-.407l-.02-.081-.039.072c-.084.148-.117.209-.539.406-.564.265-1.846.754-2.385.895-.248.064-.357.067-.453.07l-.055.002.027.048.014.021c.057.094.109.183.146.282.035.095.057.203.076.309l.002.01.01.056.043-.037c.246-.211.594-.346.902-.463l.006-.002.617-.236c.609-.231.926-.371 1.197-.506-.072.084-.166.201-.301.375l-.244.309-1.016 1.272c-.32.414-.365.468-.613.749l-.016.019.014.021c.053.083.094.16.125.242.033.088.053.176.072.27l.004.02.01.042.037-.021c.295-.166.613-.291.91-.405.651-.25 1.239-.462 1.799-.653"/><path d="M5.281 36.916c.418-.138.578-.154.73-.159l.049-.002-.021-.045a3.38 3.38 0 0 1-.133-.29 2.305 2.305 0 0 1-.109-.343l-.012-.061-.043.045c-.08.084-.213.223-1.055.545l-.617.236-.068.025c-.236.091-.568.219-.814.321.055-.06.117-.139.211-.259l.299-.376.98-1.213c.398-.443.439-.488.59-.624l.02-.018-.014-.022a3.77 3.77 0 0 1-.199-.439 2.95 2.95 0 0 1-.124-.407l-.02-.081-.039.072c-.084.148-.117.209-.539.406-.564.265-1.846.754-2.385.895-.248.064-.357.067-.453.07l-.055.002.027.048.014.021c.057.094.109.183.146.282.035.095.057.203.076.309l.002.01.01.056.043-.037c.246-.211.594-.346.902-.463l.006-.002.617-.236c.609-.231.926-.371 1.197-.506-.072.084-.166.201-.301.375l-.244.309-1.016 1.272c-.32.414-.365.468-.613.749l-.016.019.014.021c.053.083.094.16.125.242.033.088.053.176.072.27l.004.02.01.042.037-.021c.295-.166.613-.291.91-.405.651-.25 1.239-.462 1.799-.653zM5.58 38.795c.869-.445.957-.487 1.268-.516l.052-.005-.031-.047-.012-.016c-.066-.096-.137-.196-.191-.301a2.686 2.686 0 0 1-.148-.346l-.02-.052-.037.043c-.059.072-.098.122-.271.241-.125.088-.201.134-.873.515l-.34.179c-.379.203-.701.37-1.133.575-.377.18-.477.188-.602.197l-.059.004.035.047c.064.083.143.193.207.313.051.096.096.203.146.349l.018.056.037-.047c.123-.158.176-.206.496-.394.396-.227.689-.388 1.117-.614l.341-.181"/><path d="M5.58 38.795c.869-.445.957-.487 1.268-.516l.052-.005-.031-.047-.012-.016c-.066-.096-.137-.196-.191-.301a2.686 2.686 0 0 1-.148-.346l-.02-.052-.037.043c-.059.072-.098.122-.271.241-.125.088-.201.134-.873.515l-.34.179c-.379.203-.701.37-1.133.575-.377.18-.477.188-.602.197l-.059.004.035.047c.064.083.143.193.207.313.051.096.096.203.146.349l.018.056.037-.047c.123-.158.176-.206.496-.394.396-.227.689-.388 1.117-.614l.341-.181zM8.836 41.477l.057-.008.057-.009-.037-.044c-.064-.077-.131-.155-.188-.239a3.588 3.588 0 0 1-.184-.339l-.018-.038-.033.026-.01.011c-.123.112-.518.272-1.176.476l-1.77.544c.314-.433.404-.552.965-1.269l.264-.339c.203-.264.305-.396.398-.507.207-.249.312-.29.359-.308.004-.001.008-.002.01-.004l.041-.017-.029-.035-.004-.005c-.082-.096-.17-.195-.24-.3-.072-.104-.131-.215-.197-.339l-.031-.059-.025.062c-.043.105-.072.153-.135.259-.105.171-.215.333-.547.793l-1.006 1.353a8.22 8.22 0 0 1-.385.497c-.109.133-.143.166-.195.218l-.017.016-.021.021.018.022.02.022c.062.078.129.157.184.236.064.095.121.195.168.283l.014.025.027-.012c.387-.163.539-.213 1.078-.367a37.253 37.253 0 0 1 1.799-.474c.408-.099.619-.129.789-.152"/><path d="M8.836 41.477l.057-.008.057-.009-.037-.044c-.064-.077-.131-.155-.188-.239a3.588 3.588 0 0 1-.184-.339l-.018-.038-.033.026-.01.011c-.123.112-.518.272-1.176.476l-1.77.544c.314-.433.404-.552.965-1.269l.264-.339c.203-.264.305-.396.398-.507.207-.249.312-.29.359-.308.004-.001.008-.002.01-.004l.041-.017-.029-.035-.004-.005c-.082-.096-.17-.195-.24-.3-.072-.104-.131-.215-.197-.339l-.031-.059-.025.062c-.043.105-.072.153-.135.259-.105.171-.215.333-.547.793l-1.006 1.353a8.22 8.22 0 0 1-.385.497c-.109.133-.143.166-.195.218l-.017.016-.021.021.018.022.02.022c.062.078.129.157.184.236.064.095.121.195.168.283l.014.025.027-.012c.387-.163.539-.213 1.078-.367a37.253 37.253 0 0 1 1.799-.474c.408-.099.619-.129.789-.152zM7.873 45.128a2.381 2.381 0 0 1-.23-.225c-.365-.406-.35-.441-.066-.705l.662-.596c.27.283.42.45.57.655a.608.608 0 0 1 .131.329l.014.072.045-.059a1.914 1.914 0 0 1 .492-.445l.076-.05-.09-.01-.008-.001a.397.397 0 0 1-.209-.066 2.042 2.042 0 0 1-.314-.296 6.453 6.453 0 0 1-.365-.439l.393-.354c.127-.114.277-.244.42-.36.129.13.203.205.32.335.389.429.396.514.367.739l-.016.104.07-.079a1.91 1.91 0 0 1 .18-.18c.051-.048.104-.09.156-.133a2.53 2.53 0 0 0 .109-.089l.027-.022-.025-.024c-.248-.254-.537-.55-.785-.824a6.349 6.349 0 0 1-.504-.604l-.01-.01-.029-.039-.024.042c-.174.289-.281.389-.73.809l-.029.026-.957.865c-.232.21-.502.446-.742.599a1.28 1.28 0 0 1-.268.131l-.049.02.039.035c.201.179.346.338.66.685l.014.015c.289.32.467.539.584.683l.096.118.02.021.023-.017c.219-.15.279-.188.561-.311l.102-.046-.109-.016c-.166-.025-.304-.047-.572-.283"/><path d="M7.873 45.128a2.381 2.381 0 0 1-.23-.225c-.365-.406-.35-.441-.066-.705l.662-.596c.27.283.42.45.57.655a.608.608 0 0 1 .131.329l.014.072.045-.059a1.914 1.914 0 0 1 .492-.445l.076-.05-.09-.01-.008-.001a.397.397 0 0 1-.209-.066 2.042 2.042 0 0 1-.314-.296 6.453 6.453 0 0 1-.365-.439l.393-.354c.127-.114.277-.244.42-.36.129.13.203.205.32.335.389.429.396.514.367.739l-.016.104.07-.079a1.91 1.91 0 0 1 .18-.18c.051-.048.104-.09.156-.133a2.53 2.53 0 0 0 .109-.089l.027-.022-.025-.024c-.248-.254-.537-.55-.785-.824a6.349 6.349 0 0 1-.504-.604l-.01-.01-.029-.039-.024.042c-.174.289-.281.389-.73.809l-.029.026-.957.865c-.232.21-.502.446-.742.599a1.28 1.28 0 0 1-.268.131l-.049.02.039.035c.201.179.346.338.66.685l.014.015c.289.32.467.539.584.683l.096.118.02.021.023-.017c.219-.15.279-.188.561-.311l.102-.046-.109-.016c-.166-.025-.304-.047-.572-.283zM11.492 44.69l.277.209c.195.165.303.337.318.508.012.149-.047.301-.172.45a.681.681 0 0 1-.496.263c-.277.01-.479-.161-.627-.286a2.146 2.146 0 0 1-.168-.158l.367-.436.009-.01c.18-.211.266-.312.492-.54m.901 1.571c.221-.262.322-.517.301-.761-.031-.383-.357-.657-.531-.805-.104-.087-.205-.167-.293-.237l-.168-.136c-.295-.249-.338-.301-.434-.414l-.039-.043-.018.055c-.064.201-.266.499-.615.912l-.594.704c-.447.521-.729.849-.898 1.006-.125.111-.176.127-.24.146l-.008.003-.063.019.053.039c.109.077.215.154.309.233.096.081.188.171.277.259l.01.01.041.039.012-.056.004-.011c.018-.077.033-.143.113-.272.088-.141.189-.276.43-.577 0 0 .246-.29.318-.377l.281.249c-.002.198-.01.342-.127.931-.049.24-.109.519-.195.788l-.008.022.019.013.076.055c.107.078.174.125.266.2.096.082.168.16.236.234l.068.074-.012-.1c-.035-.283-.006-.469.072-.964l.002-.016s.119-.727.146-.909c.254.105.818.15 1.209-.313z"/><path d="M11.492 44.69l.277.209c.195.165.303.337.318.508.012.149-.047.301-.172.45a.681.681 0 0 1-.496.263c-.277.01-.479-.161-.627-.286a2.146 2.146 0 0 1-.168-.158l.367-.436.009-.01c.18-.211.266-.312.492-.54zm.901 1.571c.221-.262.322-.517.301-.761-.031-.383-.357-.657-.531-.805-.104-.087-.205-.167-.293-.237l-.168-.136c-.295-.249-.338-.301-.434-.414l-.039-.043-.018.055c-.064.201-.266.499-.615.912l-.594.704c-.447.521-.729.849-.898 1.006-.125.111-.176.127-.24.146l-.008.003-.063.019.053.039c.109.077.215.154.309.233.096.081.188.171.277.259l.01.01.041.039.012-.056.004-.011c.018-.077.033-.143.113-.272.088-.141.189-.276.43-.577 0 0 .246-.29.318-.377l.281.249c-.002.198-.01.342-.127.931-.049.24-.109.519-.195.788l-.008.022.019.013.076.055c.107.078.174.125.266.2.096.082.168.16.236.234l.068.074-.012-.1c-.035-.283-.006-.469.072-.964l.002-.016s.119-.727.146-.909c.254.105.818.15 1.209-.313zM13.918 47.987l-.137-.221c-.127-.219-.27-.467-.098-.734.143-.222.467-.351.842-.11.357.229.4.533.42.662l.012.083.047-.068c.154-.225.203-.291.398-.473l.027-.023-.027-.023c-.049-.04-.068-.061-.16-.146l-.082-.077-.004-.004c-.08-.075-.227-.217-.354-.299-.652-.417-1.33-.322-1.688.236-.293.454-.113.811.006 1.047l.227.4.002.005c.15.254.309.516.139.776a.508.508 0 0 1-.32.228c-.174.038-.373-.012-.578-.144-.391-.249-.41-.478-.428-.68l-.002-.012-.006-.078-.051.062c-.215.264-.262.307-.418.437l-.021.02.018.024c.119.169.178.243.389.411.09.07.172.129.26.185.512.327.895.308 1.078.264.271-.059.514-.231.676-.487.305-.476.066-.872-.164-1.256l-.003-.005"/><path d="M13.918 47.987l-.137-.221c-.127-.219-.27-.467-.098-.734.143-.222.467-.351.842-.11.357.229.4.533.42.662l.012.083.047-.068c.154-.225.203-.291.398-.473l.027-.023-.027-.023c-.049-.04-.068-.061-.16-.146l-.082-.077-.004-.004c-.08-.075-.227-.217-.354-.299-.652-.417-1.33-.322-1.688.236-.293.454-.113.811.006 1.047l.227.4.002.005c.15.254.309.516.139.776a.508.508 0 0 1-.32.228c-.174.038-.373-.012-.578-.144-.391-.249-.41-.478-.428-.68l-.002-.012-.006-.078-.051.062c-.215.264-.262.307-.418.437l-.021.02.018.024c.119.169.178.243.389.411.09.07.172.129.26.185.512.327.895.308 1.078.264.271-.059.514-.231.676-.487.305-.476.066-.872-.164-1.256l-.003-.005zM16.975 47.79l-.051-.02-.027-.01c-.107-.041-.219-.082-.322-.134a3.084 3.084 0 0 1-.322-.198l-.045-.031-.004.057c-.008.096-.012.158-.084.355-.053.145-.088.227-.42.922l-.174.342c-.195.383-.363.706-.596 1.119-.207.362-.283.426-.381.507l-.045.038.057.017c.098.033.229.077.35.139.121.062.232.14.318.202l.049.034.002-.06c.01-.199.023-.268.18-.607.193-.412.34-.712.561-1.145l.174-.343c.455-.862.504-.949.74-1.149l.04-.035"/><path d="M16.975 47.79l-.051-.02-.027-.01c-.107-.041-.219-.082-.322-.134a3.084 3.084 0 0 1-.322-.198l-.045-.031-.004.057c-.008.096-.012.158-.084.355-.053.145-.088.227-.42.922l-.174.342c-.195.383-.363.706-.596 1.119-.207.362-.283.426-.381.507l-.045.038.057.017c.098.033.229.077.35.139.121.062.232.14.318.202l.049.034.002-.06c.01-.199.023-.268.18-.607.193-.412.34-.712.561-1.145l.174-.343c.455-.862.504-.949.74-1.149l.04-.035zM19.158 49.272c.436.186.477.213.609.411l.041.062.018-.074c.023-.103.051-.197.082-.282.037-.092.08-.186.139-.287l.018-.035-.037-.012c-.363-.106-.732-.244-1.375-.492-.666-.256-1.135-.442-1.258-.521l-.037-.025-.012.044c-.01.037-.018.071-.025.104a1.694 1.694 0 0 1-.062.22 1.346 1.346 0 0 1-.131.246l-.047.072.084-.025c.182-.057.273-.062.658.082 0 0 .305.115.398.152-.072.237-.178.564-.533 1.483-.508 1.319-.643 1.401-.693 1.433l-.004.002-.064.039.073.02.025.008c.125.033.242.063.359.108.115.045.229.099.328.16l.055.03-.006-.062c-.008-.079-.014-.134.029-.312.066-.29.262-.81.443-1.28.275-.716.424-1.073.57-1.403l.355.134"/><path d="M19.158 49.272c.436.186.477.213.609.411l.041.062.018-.074c.023-.103.051-.197.082-.282.037-.092.08-.186.139-.287l.018-.035-.037-.012c-.363-.106-.732-.244-1.375-.492-.666-.256-1.135-.442-1.258-.521l-.037-.025-.012.044c-.01.037-.018.071-.025.104a1.694 1.694 0 0 1-.062.22 1.346 1.346 0 0 1-.131.246l-.047.072.084-.025c.182-.057.273-.062.658.082 0 0 .305.115.398.152-.072.237-.178.564-.533 1.483-.508 1.319-.643 1.401-.693 1.433l-.004.002-.064.039.073.02.025.008c.125.033.242.063.359.108.115.045.229.099.328.16l.055.03-.006-.062c-.008-.079-.014-.134.029-.312.066-.29.262-.81.443-1.28.275-.716.424-1.073.57-1.403l.355.134zM21.328 50.687v.038l.037.878a9.276 9.276 0 0 1-.479-.1c-.162-.041-.324-.09-.473-.135l.914-1.509-.004.089c-.005.323-.003.453.005.739m.715 2.158c-.01-.103-.021-.237-.029-.367l-.029-.37-.094-1.452a7.512 7.512 0 0 1-.016-1.108v-.03l-.029-.003c-.141-.019-.266-.035-.387-.065a3.34 3.34 0 0 1-.385-.127l-.029-.012-.012.031c-.072.171-.133.295-.408.738l-.936 1.52c-.402.643-.473.729-.729.991l-.047.048.066.007c.117.013.23.025.334.053.113.025.217.068.32.109l.037.016.006-.041c.008-.051.012-.066.018-.094.016-.063.033-.094.236-.473l.02-.037.211-.373c.223.039.43.076.639.128.188.046.383.104.578.173l.023.5c.004.19.008.371-.016.461a.74.74 0 0 1-.045.117l-.014.041.041.003a2.23 2.23 0 0 1 .752.187l.086.034-.047-.081c-.049-.091-.086-.157-.115-.524z"/><path d="M21.328 50.687v.038l.037.878a9.276 9.276 0 0 1-.479-.1c-.162-.041-.324-.09-.473-.135l.914-1.509-.004.089c-.005.323-.003.453.005.739zm.715 2.158c-.01-.103-.021-.237-.029-.367l-.029-.37-.094-1.452a7.512 7.512 0 0 1-.016-1.108v-.03l-.029-.003c-.141-.019-.266-.035-.387-.065a3.34 3.34 0 0 1-.385-.127l-.029-.012-.012.031c-.072.171-.133.295-.408.738l-.936 1.52c-.402.643-.473.729-.729.991l-.047.048.066.007c.117.013.23.025.334.053.113.025.217.068.32.109l.037.016.006-.041c.008-.051.012-.066.018-.094.016-.063.033-.094.236-.473l.02-.037.211-.373c.223.039.43.076.639.128.188.046.383.104.578.173l.023.5c.004.19.008.371-.016.461a.74.74 0 0 1-.045.117l-.014.041.041.003a2.23 2.23 0 0 1 .752.187l.086.034-.047-.081c-.049-.091-.086-.157-.115-.524zM25.188 50.062l-.084-.025c-.098-.03-.299-.093-.455-.111-.768-.085-1.332.302-1.406.96-.059.539.262.777.473.935l.379.26.004.003c.248.159.506.324.473.633a.513.513 0 0 1-.188.348c-.139.111-.34.156-.582.129-.461-.051-.58-.247-.686-.42l-.006-.01-.041-.067-.018.077c-.076.332-.096.393-.18.576l-.012.029.025.014c.186.098.27.141.531.195.104.02.207.037.316.049.604.066.938-.122 1.082-.24.219-.174.357-.437.391-.738.061-.562-.33-.812-.707-1.054l-.004-.001-.221-.139c-.209-.139-.449-.295-.414-.614a.519.519 0 0 1 .191-.347c.131-.105.309-.146.514-.125.422.045.59.291.67.408l.047.066.012-.081c.039-.269.055-.351.148-.6l.014-.035-.035-.008a3.487 3.487 0 0 1-.231-.067"/><path d="M25.188 50.062l-.084-.025c-.098-.03-.299-.093-.455-.111-.768-.085-1.332.302-1.406.96-.059.539.262.777.473.935l.379.26.004.003c.248.159.506.324.473.633a.513.513 0 0 1-.188.348c-.139.111-.34.156-.582.129-.461-.051-.58-.247-.686-.42l-.006-.01-.041-.067-.018.077c-.076.332-.096.393-.18.576l-.012.029.025.014c.186.098.27.141.531.195.104.02.207.037.316.049.604.066.938-.122 1.082-.24.219-.174.357-.437.391-.738.061-.562-.33-.812-.707-1.054l-.004-.001-.221-.139c-.209-.139-.449-.295-.414-.614a.519.519 0 0 1 .191-.347c.131-.105.309-.146.514-.125.422.045.59.291.67.408l.047.066.012-.081c.039-.269.055-.351.148-.6l.014-.035-.035-.008a3.487 3.487 0 0 1-.231-.067zM28.643 52.173l.377-1.722.025.085c.096.305.141.427.24.693l.016.041.318.818c-.16.023-.324.047-.484.061-.162.014-.321.02-.492.024m2.017.872l-.146-.339a16.107 16.107 0 0 0-.146-.339l-.557-1.345a7.581 7.581 0 0 1-.375-1.044l-.008-.028-.029.006c-.125.025-.26.052-.385.062-.135.012-.27.01-.408.006h-.031l-.002.03c-.012.192-.031.329-.146.831l-.395 1.742c-.168.71-.205.831-.369 1.173l-.027.06.064-.015c.113-.025.225-.051.332-.06.115-.011.229-.004.338.001l.039.003-.006-.041c-.01-.049-.01-.062-.014-.092-.004-.066 0-.102.072-.529l.006-.036.078-.422.01-.001a9.14 9.14 0 0 1 .637-.085c.201-.017.404-.024.605-.024l.18.467c.066.179.127.349.135.443.004.029 0 .062-.002.09 0 .012 0 .023-.002.035v.042l.041-.011c.148-.037.264-.057.375-.067.113-.011.238-.009.396.001l.094.006-.07-.062c-.079-.069-.135-.12-.284-.458z"/><path d="M28.643 52.173l.377-1.722.025.085c.096.305.141.427.24.693l.016.041.318.818c-.16.023-.324.047-.484.061-.162.014-.321.02-.492.024zm2.017.872l-.146-.339a16.107 16.107 0 0 0-.146-.339l-.557-1.345a7.581 7.581 0 0 1-.375-1.044l-.008-.028-.029.006c-.125.025-.26.052-.385.062-.135.012-.27.01-.408.006h-.031l-.002.03c-.012.192-.031.329-.146.831l-.395 1.742c-.168.71-.205.831-.369 1.173l-.027.06.064-.015c.113-.025.225-.051.332-.06.115-.011.229-.004.338.001l.039.003-.006-.041c-.01-.049-.01-.062-.014-.092-.004-.066 0-.102.072-.529l.006-.036.078-.422.01-.001a9.14 9.14 0 0 1 .637-.085c.201-.017.404-.024.605-.024l.18.467c.066.179.127.349.135.443.004.029 0 .062-.002.09 0 .012 0 .023-.002.035v.042l.041-.011c.148-.037.264-.057.375-.067.113-.011.238-.009.396.001l.094.006-.07-.062c-.079-.069-.135-.12-.284-.458zM32.09 51.308l-.131-.555a7.422 7.422 0 0 1-.143-.729l.334-.098c.25-.059.451-.041.598.049.127.079.213.216.258.407a.679.679 0 0 1-.084.554c-.158.229-.416.288-.605.331-.088.021-.145.03-.227.041m1.699.747l-.643-.659a1.08 1.08 0 0 0 .467-1.154c-.238-1.02-1.018-.838-1.393-.75-.129.03-.25.062-.357.09-.084.021-.156.041-.219.056-.375.087-.443.092-.59.102l-.059.003.033.049c.123.172.244.511.367 1.037l.209.897c.156.691.246 1.095.27 1.321a.534.534 0 0 1-.023.277l-.004.01-.021.062.061-.021c.123-.04.25-.079.373-.107.115-.026.236-.044.352-.063l.035-.006.057-.01-.037-.043-.01-.012a.724.724 0 0 1-.148-.252 6.176 6.176 0 0 1-.207-.689c.002.002-.086-.369-.113-.48l.369-.076c.156.117.266.21.67.658.164.182.354.396.516.627l.016.021.021-.008.082-.026a2.612 2.612 0 0 1 .654-.147l.102-.011-.088-.049c-.252-.144-.385-.282-.742-.647z"/><path d="M32.09 51.308l-.131-.555a7.422 7.422 0 0 1-.143-.729l.334-.098c.25-.059.451-.041.598.049.127.079.213.216.258.407a.679.679 0 0 1-.084.554c-.158.229-.416.288-.605.331-.088.021-.145.03-.227.041zm1.699.747l-.643-.659a1.08 1.08 0 0 0 .467-1.154c-.238-1.02-1.018-.838-1.393-.75-.129.03-.25.062-.357.09-.084.021-.156.041-.219.056-.375.087-.443.092-.59.102l-.059.003.033.049c.123.172.244.511.367 1.037l.209.897c.156.691.246 1.095.27 1.321a.534.534 0 0 1-.023.277l-.004.01-.021.062.061-.021c.123-.04.25-.079.373-.107.115-.026.236-.044.352-.063l.035-.006.057-.01-.037-.043-.01-.012a.724.724 0 0 1-.148-.252 6.176 6.176 0 0 1-.207-.689c.002.002-.086-.369-.113-.48l.369-.076c.156.117.266.21.67.658.164.182.354.396.516.627l.016.021.021-.008.082-.026a2.612 2.612 0 0 1 .654-.147l.102-.011-.088-.049c-.252-.144-.385-.282-.742-.647zM38.062 50.866a17.822 17.822 0 0 1-.482-1.127l-.01-.025-.156-.384c-.148-.39-.309-.826-.381-1.106-.041-.145-.049-.225-.059-.316l-.002-.025-.006-.048-.043.022-.037.021a2.627 2.627 0 0 1-.291.145c-.113.047-.234.08-.352.111l-.008.002-.049.014.033.039c.088.098.158.175.334.54.051.11.098.223.154.353l.074.174.102.25-.127.057c-.209.094-.391.173-.59.255-.246.1-.488.187-.742.279l-.002.001-.084-.208a8.48 8.48 0 0 1-.311-.866.954.954 0 0 1-.033-.322v-.013l.002-.056-.049.027-.018.01a3.527 3.527 0 0 1-.32.158c-.109.044-.23.078-.346.109l-.014.004-.055.015.039.038c.053.054.119.121.27.407.121.246.262.584.412.942l.156.383c.141.348.273.672.422 1.12.1.297.1.376.092.526l-.004.057.051-.027.012-.006a3.25 3.25 0 0 1 .334-.167c.117-.048.24-.081.365-.114l.055-.016-.043-.04c-.125-.117-.215-.204-.582-1.097l-.17-.418c.268-.125.508-.232.732-.323.203-.083.422-.163.725-.267l.17.422c.219.587.332.907.344 1.193l.002.051.047-.025c.121-.066.229-.127.342-.17.109-.046.221-.075.338-.107l.016-.005.057-.016-.043-.039c-.069-.064-.136-.126-.271-.392"/><path d="M38.062 50.866a17.822 17.822 0 0 1-.482-1.127l-.01-.025-.156-.384c-.148-.39-.309-.826-.381-1.106-.041-.145-.049-.225-.059-.316l-.002-.025-.006-.048-.043.022-.037.021a2.627 2.627 0 0 1-.291.145c-.113.047-.234.08-.352.111l-.008.002-.049.014.033.039c.088.098.158.175.334.54.051.11.098.223.154.353l.074.174.102.25-.127.057c-.209.094-.391.173-.59.255-.246.1-.488.187-.742.279l-.002.001-.084-.208a8.48 8.48 0 0 1-.311-.866.954.954 0 0 1-.033-.322v-.013l.002-.056-.049.027-.018.01a3.527 3.527 0 0 1-.32.158c-.109.044-.23.078-.346.109l-.014.004-.055.015.039.038c.053.054.119.121.27.407.121.246.262.584.412.942l.156.383c.141.348.273.672.422 1.12.1.297.1.376.092.526l-.004.057.051-.027.012-.006a3.25 3.25 0 0 1 .334-.167c.117-.048.24-.081.365-.114l.055-.016-.043-.04c-.125-.117-.215-.204-.582-1.097l-.17-.418c.268-.125.508-.232.732-.323.203-.083.422-.163.725-.267l.17.422c.219.587.332.907.344 1.193l.002.051.047-.025c.121-.066.229-.127.342-.17.109-.046.221-.075.338-.107l.016-.005.057-.016-.043-.039c-.069-.064-.136-.126-.271-.392zM40.59 46.907c-.309-.524-.369-.67-.422-.902l-.012-.051-.039.033c-.08.066-.164.137-.254.191-.086.052-.17.092-.281.136l-.055.021.047.034c.082.059.127.1.199.202.055.071.236.358.381.595l.566.928c.18.296.385.63.312.93-.041.17-.166.316-.381.447-.404.246-.717.24-.984-.021-.117-.108-.219-.272-.357-.499l-.564-.928c-.111-.183-.266-.434-.348-.65-.055-.143-.055-.193-.047-.256l.008-.074-.061.047-.002.001c-.102.079-.207.161-.318.229-.105.064-.217.114-.338.17l-.057.025.055.031c.133.079.195.114.611.78l.668 1.092.004.007c.25.383.535.816 1.059.818.27.004.607-.143.834-.281.232-.143.557-.369.688-.697.189-.479-.023-.865-.209-1.207-.002 0-.703-1.151-.703-1.151"/><path d="M40.59 46.907c-.309-.524-.369-.67-.422-.902l-.012-.051-.039.033c-.08.066-.164.137-.254.191-.086.052-.17.092-.281.136l-.055.021.047.034c.082.059.127.1.199.202.055.071.236.358.381.595l.566.928c.18.296.385.63.312.93-.041.17-.166.316-.381.447-.404.246-.717.24-.984-.021-.117-.108-.219-.272-.357-.499l-.564-.928c-.111-.183-.266-.434-.348-.65-.055-.143-.055-.193-.047-.256l.008-.074-.061.047-.002.001c-.102.079-.207.161-.318.229-.105.064-.217.114-.338.17l-.057.025.055.031c.133.079.195.114.611.78l.668 1.092.004.007c.25.383.535.816 1.059.818.27.004.607-.143.834-.281.232-.143.557-.369.688-.697.189-.479-.023-.865-.209-1.207-.002 0-.703-1.151-.703-1.151zM42.771 45.975l-.006.002-.252.062c-.246.053-.525.112-.729-.133-.168-.204-.189-.552.154-.835.328-.27.619-.218.76-.193l.08.013-.049-.065a2.218 2.218 0 0 1-.326-.524l-.016-.033-.031.02a3.438 3.438 0 0 1-.18.104l-.107.06c-.09.047-.277.147-.396.245-.316.26-.508.584-.539.91a1.04 1.04 0 0 0 .244.767c.344.419.738.356 1 .315l.451-.09h.002c.287-.068.586-.137.785.104a.509.509 0 0 1 .117.376c-.018.177-.125.352-.314.507-.357.293-.58.242-.779.197l-.01-.002-.078-.018.043.065c.186.286.215.343.287.532l.012.027.029-.009c.197-.064.287-.096.51-.244.094-.063.176-.125.258-.19.469-.388.566-.758.582-.944a1.084 1.084 0 0 0-.256-.793c-.359-.439-.81-.334-1.246-.233"/><path d="M42.771 45.975l-.006.002-.252.062c-.246.053-.525.112-.729-.133-.168-.204-.189-.552.154-.835.328-.27.619-.218.76-.193l.08.013-.049-.065a2.218 2.218 0 0 1-.326-.524l-.016-.033-.031.02a3.438 3.438 0 0 1-.18.104l-.107.06c-.09.047-.277.147-.396.245-.316.26-.508.584-.539.91a1.04 1.04 0 0 0 .244.767c.344.419.738.356 1 .315l.451-.09h.002c.287-.068.586-.137.785.104a.509.509 0 0 1 .117.376c-.018.177-.125.352-.314.507-.357.293-.58.242-.779.197l-.01-.002-.078-.018.043.065c.186.286.215.343.287.532l.012.027.029-.009c.197-.064.287-.096.51-.244.094-.063.176-.125.258-.19.469-.388.566-.758.582-.944a1.084 1.084 0 0 0-.256-.793c-.359-.439-.81-.334-1.246-.233zM45.596 45.271a37.526 37.526 0 0 1-.916-.886l-.273-.271c-.682-.699-.748-.771-.867-1.057l-.021-.051-.033.043-.008.01c-.074.095-.15.191-.234.277-.09.091-.195.172-.287.245l-.045.034.051.021c.088.035.145.058.312.189.121.095.182.147.748.685 0-.002.271.27.271.27.309.307.562.565.883.912.281.309.318.402.365.519l.021.054.035-.047c.061-.085.143-.193.238-.29.076-.077.166-.151.289-.241l.049-.035-.057-.021c-.187-.072-.248-.108-.521-.36"/><path d="M45.596 45.271a37.526 37.526 0 0 1-.916-.886l-.273-.271c-.682-.699-.748-.771-.867-1.057l-.021-.051-.033.043-.008.01c-.074.095-.15.191-.234.277-.09.091-.195.172-.287.245l-.045.034.051.021c.088.035.145.058.312.189.121.095.182.147.748.685 0-.002.271.27.271.27.309.307.562.565.883.912.281.309.318.402.365.519l.021.054.035-.047c.061-.085.143-.193.238-.29.076-.077.166-.151.289-.241l.049-.035-.057-.021c-.187-.072-.248-.108-.521-.36zM47.957 42.562l-.061-.095.002.112c0 .164.002.307-.191.607a1.963 1.963 0 0 1-.186.26c-.346.428-.383.417-.688.176l-.691-.561a6.44 6.44 0 0 1 .561-.666.617.617 0 0 1 .303-.18l.07-.022-.064-.035a1.946 1.946 0 0 1-.518-.42l-.061-.067.004.091v.006c.004.08.008.133-.033.22-.053.119-.195.296-.24.354-.166.201-.266.31-.381.432l-.41-.332a12.675 12.675 0 0 1-.422-.359c.104-.145.17-.231.281-.371.365-.448.445-.47.674-.476l.104-.002-.086-.057a2.6 2.6 0 0 1-.207-.148c-.055-.045-.105-.091-.158-.139-.031-.028-.064-.059-.102-.091l-.025-.023-.021.028c-.178.241-.443.597-.691.904a7.12 7.12 0 0 1-.518.591l-.01.012-.035.035.045.018c.316.126.42.209.922.604l.021.017 1.004.812c.242.197.518.426.707.642.074.083.113.143.17.242l.027.046.029-.045c.146-.23.285-.401.586-.773.27-.332.455-.541.58-.68.043-.048.078-.085.105-.118l.018-.021-.02-.021a2.646 2.646 0 0 1-.394-.507"/><path d="M47.957 42.562l-.061-.095.002.112c0 .164.002.307-.191.607a1.963 1.963 0 0 1-.186.26c-.346.428-.383.417-.688.176l-.691-.561a6.44 6.44 0 0 1 .561-.666.617.617 0 0 1 .303-.18l.07-.022-.064-.035a1.946 1.946 0 0 1-.518-.42l-.061-.067.004.091v.006c.004.08.008.133-.033.22-.053.119-.195.296-.24.354-.166.201-.266.31-.381.432l-.41-.332a12.675 12.675 0 0 1-.422-.359c.104-.145.17-.231.281-.371.365-.448.445-.47.674-.476l.104-.002-.086-.057a2.6 2.6 0 0 1-.207-.148c-.055-.045-.105-.091-.158-.139-.031-.028-.064-.059-.102-.091l-.025-.023-.021.028c-.178.241-.443.597-.691.904a7.12 7.12 0 0 1-.518.591l-.01.012-.035.035.045.018c.316.126.42.209.922.604l.021.017 1.004.812c.242.197.518.426.707.642.074.083.113.143.17.242l.027.046.029-.045c.146-.23.285-.401.586-.773.27-.332.455-.541.58-.68.043-.048.078-.085.105-.118l.018-.021-.02-.021a2.646 2.646 0 0 1-.394-.507zM49.781 38.922a47.537 47.537 0 0 1-1.629-.997c-.371-.238-.482-.354-.582-.469l-.031-.037-.021.044-.006.011a3.142 3.142 0 0 1-.139.273c-.08.139-.148.239-.199.3l-.041.048.062.006c.115.011.311.028 1.084.482l.57.336.012.006c.219.13.557.328.811.466a5.704 5.704 0 0 0-.336-.002l-.479.002-1.559-.009-.016-.002c-.584-.033-.645-.037-.842-.069l-.025-.004-.01.023a3.369 3.369 0 0 1-.219.431 3.033 3.033 0 0 1-.24.352l-.051.064.08-.014c.162-.027.236-.039.654.167.559.276 1.742.971 2.188 1.303.207.155.277.237.34.31l.035.042.018-.052.008-.017c.039-.104.076-.203.131-.297.051-.088.121-.168.193-.253l.006-.007.037-.042-.055-.01c-.322-.062-.645-.253-.93-.42l-.57-.334c-.559-.33-.867-.492-1.145-.619.113.003.266.002.488.001l.385-.003 1.631-.002c.52-.008.588-.006.967.012l.025.001.008-.023c.031-.095.066-.172.111-.249.047-.081.105-.153.166-.229l.01-.012.027-.033-.039-.018a6.552 6.552 0 0 1-.883-.457"/><path d="M49.781 38.922a47.537 47.537 0 0 1-1.629-.997c-.371-.238-.482-.354-.582-.469l-.031-.037-.021.044-.006.011a3.142 3.142 0 0 1-.139.273c-.08.139-.148.239-.199.3l-.041.048.062.006c.115.011.311.028 1.084.482l.57.336.012.006c.219.13.557.328.811.466a5.704 5.704 0 0 0-.336-.002l-.479.002-1.559-.009-.016-.002c-.584-.033-.645-.037-.842-.069l-.025-.004-.01.023a3.369 3.369 0 0 1-.219.431 3.033 3.033 0 0 1-.24.352l-.051.064.08-.014c.162-.027.236-.039.654.167.559.276 1.742.971 2.188 1.303.207.155.277.237.34.31l.035.042.018-.052.008-.017c.039-.104.076-.203.131-.297.051-.088.121-.168.193-.253l.006-.007.037-.042-.055-.01c-.322-.062-.645-.253-.93-.42l-.57-.334c-.559-.33-.867-.492-1.145-.619.113.003.266.002.488.001l.385-.003 1.631-.002c.52-.008.588-.006.967.012l.025.001.008-.023c.031-.095.066-.172.111-.249.047-.081.105-.153.166-.229l.01-.012.027-.033-.039-.018a6.552 6.552 0 0 1-.883-.457zM51.045 35.8c-.523-.213-.869.092-1.203.388l-.008.005-.191.174c-.191.164-.412.35-.705.229a.52.52 0 0 1-.281-.28c-.066-.153-.059-.335.02-.527a.859.859 0 0 1 .578-.531l.078-.027-.076-.034a2.026 2.026 0 0 1-.535-.308l-.031-.021-.018.031c-.029.052-.045.076-.102.167l-.072.113a2.495 2.495 0 0 0-.232.405c-.293.716-.078 1.365.535 1.615.502.204.82-.036 1.029-.195l.355-.295.002-.003c.223-.194.451-.396.74-.278.129.052.229.15.281.274.068.164.057.369-.035.595-.174.429-.396.49-.592.544l-.012.004-.076.021.07.037c.299.164.35.201.506.332l.023.02.02-.021c.145-.151.207-.221.334-.458.049-.093.092-.188.135-.289.23-.564.139-.937.064-1.106a1.07 1.07 0 0 0-.601-.581"/><path d="M51.045 35.8c-.523-.213-.869.092-1.203.388l-.008.005-.191.174c-.191.164-.412.35-.705.229a.52.52 0 0 1-.281-.28c-.066-.153-.059-.335.02-.527a.859.859 0 0 1 .578-.531l.078-.027-.076-.034a2.026 2.026 0 0 1-.535-.308l-.031-.021-.018.031c-.029.052-.045.076-.102.167l-.072.113a2.495 2.495 0 0 0-.232.405c-.293.716-.078 1.365.535 1.615.502.204.82-.036 1.029-.195l.355-.295.002-.003c.223-.194.451-.396.74-.278.129.052.229.15.281.274.068.164.057.369-.035.595-.174.429-.396.49-.592.544l-.012.004-.076.021.07.037c.299.164.35.201.506.332l.023.02.02-.021c.145-.151.207-.221.334-.458.049-.093.092-.188.135-.289.23-.564.139-.937.064-1.106a1.07 1.07 0 0 0-.601-.581zM51.982 34.252a36.78 36.78 0 0 1-1.229-.344l-.368-.108c-.916-.287-1.025-.325-1.266-.52l-.043-.035-.008.055a3.413 3.413 0 0 1-.078.369c-.035.118-.086.234-.133.348l-.002.004-.021.051.055-.006c.094-.011.156-.019.363.019.152.024.23.044.982.245l.367.108c.42.125.77.232 1.211.385.396.137.473.2.568.281l.045.038.008-.059c.02-.15.041-.264.072-.369.037-.126.092-.247.141-.348l.025-.055-.061.008c-.196.027-.268.026-.628-.067"/><path d="M51.982 34.252a36.78 36.78 0 0 1-1.229-.344l-.368-.108c-.916-.287-1.025-.325-1.266-.52l-.043-.035-.008.055a3.413 3.413 0 0 1-.078.369c-.035.118-.086.234-.133.348l-.002.004-.021.051.055-.006c.094-.011.156-.019.363.019.152.024.23.044.982.245l.367.108c.42.125.77.232 1.211.385.396.137.473.2.568.281l.045.038.008-.059c.02-.15.041-.264.072-.369.037-.126.092-.247.141-.348l.025-.055-.061.008c-.196.027-.268.026-.628-.067zM52.279 30.866c-.557-.105-.834.263-1.104.621l-.004.005-.153.208c-.156.199-.332.425-.645.365-.26-.049-.5-.301-.418-.739.08-.417.336-.565.459-.637l.072-.04-.08-.02a2.15 2.15 0 0 1-.588-.194l-.033-.016-.012.035c-.02.062-.029.086-.08.22l-.035.089c-.037.094-.117.291-.146.444-.076.401-.016.771.168 1.043.156.229.391.378.68.433.531.101.795-.199.969-.397l.289-.358.004-.004c.178-.236.363-.479.668-.421a.507.507 0 0 1 .33.213c.102.147.131.352.084.591-.086.455-.291.56-.473.651l-.008.004-.072.036.076.023c.33.102.387.127.562.225l.025.015.018-.026a1.59 1.59 0 0 0 .234-.515c.031-.109.055-.208.076-.311.111-.598-.051-.945-.158-1.098a1.083 1.083 0 0 0-.705-.445"/><path d="M52.279 30.866c-.557-.105-.834.263-1.104.621l-.004.005-.153.208c-.156.199-.332.425-.645.365-.26-.049-.5-.301-.418-.739.08-.417.336-.565.459-.637l.072-.04-.08-.02a2.15 2.15 0 0 1-.588-.194l-.033-.016-.012.035c-.02.062-.029.086-.08.22l-.035.089c-.037.094-.117.291-.146.444-.076.401-.016.771.168 1.043.156.229.391.378.68.433.531.101.795-.199.969-.397l.289-.358.004-.004c.178-.236.363-.479.668-.421a.507.507 0 0 1 .33.213c.102.147.131.352.084.591-.086.455-.291.56-.473.651l-.008.004-.072.036.076.023c.33.102.387.127.562.225l.025.015.018-.026a1.59 1.59 0 0 0 .234-.515c.031-.109.055-.208.076-.311.111-.598-.051-.945-.158-1.098a1.083 1.083 0 0 0-.705-.445z"/></g></svg>
