<?xml version="1.0" encoding="utf-8" standalone="no"?>
<!DOCTYPE svg PUBLIC "-//W3C//DTD SVG 1.1//EN"
  "http://www.w3.org/Graphics/SVG/1.1/DTD/svg11.dtd">
<!-- Created with matplotlib (https://matplotlib.org/) -->
<svg height="266.611458pt" version="1.1" viewBox="0 0 845.778906 266.611458" width="845.778906pt" xmlns="http://www.w3.org/2000/svg" xmlns:xlink="http://www.w3.org/1999/xlink">
 <defs>
  <style type="text/css">
*{stroke-linecap:butt;stroke-linejoin:round;white-space:pre;}
  </style>
 </defs>
 <g id="figure_1">
  <g id="patch_1">
   <path d="M 0 266.611458 
L 845.778906 266.611458 
L 845.778906 -0 
L 0 -0 
z
" style="fill:none;"/>
  </g>
  <g id="axes_1">
   <g id="patch_2">
    <path d="M 108.853906 220.036458 
L 838.578906 220.036458 
L 838.578906 7.2 
L 108.853906 7.2 
z
" style="fill:none;"/>
   </g>
   <g id="matplotlib.axis_1">
    <g id="xtick_1">
     <g id="text_1">
      <text style="fill:#262626;font-family:AU Passata;font-size:13.75px;font-style:normal;font-weight:normal;text-anchor:middle;" transform="rotate(-0, 124.05651, 239.161458)" x="124.05651" y="239.161458">0</text>
     </g>
    </g>
    <g id="xtick_2">
     <g id="text_2">
      <text style="fill:#262626;font-family:AU Passata;font-size:13.75px;font-style:normal;font-weight:normal;text-anchor:middle;" transform="rotate(-0, 154.461719, 239.161458)" x="154.461719" y="239.161458">1</text>
     </g>
    </g>
    <g id="xtick_3">
     <g id="text_3">
      <text style="fill:#262626;font-family:AU Passata;font-size:13.75px;font-style:normal;font-weight:normal;text-anchor:middle;" transform="rotate(-0, 184.866927, 239.161458)" x="184.866927" y="239.161458">2</text>
     </g>
    </g>
    <g id="xtick_4">
     <g id="text_4">
      <text style="fill:#262626;font-family:AU Passata;font-size:13.75px;font-style:normal;font-weight:normal;text-anchor:middle;" transform="rotate(-0, 215.272135, 239.161458)" x="215.272135" y="239.161458">3</text>
     </g>
    </g>
    <g id="xtick_5">
     <g id="text_5">
      <text style="fill:#262626;font-family:AU Passata;font-size:13.75px;font-style:normal;font-weight:normal;text-anchor:middle;" transform="rotate(-0, 245.677344, 239.161458)" x="245.677344" y="239.161458">4</text>
     </g>
    </g>
    <g id="xtick_6">
     <g id="text_6">
      <text style="fill:#262626;font-family:AU Passata;font-size:13.75px;font-style:normal;font-weight:normal;text-anchor:middle;" transform="rotate(-0, 276.082552, 239.161458)" x="276.082552" y="239.161458">5</text>
     </g>
    </g>
    <g id="xtick_7">
     <g id="text_7">
      <text style="fill:#262626;font-family:AU Passata;font-size:13.75px;font-style:normal;font-weight:normal;text-anchor:middle;" transform="rotate(-0, 306.48776, 239.161458)" x="306.48776" y="239.161458">6</text>
     </g>
    </g>
    <g id="xtick_8">
     <g id="text_8">
      <text style="fill:#262626;font-family:AU Passata;font-size:13.75px;font-style:normal;font-weight:normal;text-anchor:middle;" transform="rotate(-0, 336.892969, 239.161458)" x="336.892969" y="239.161458">7</text>
     </g>
    </g>
    <g id="xtick_9">
     <g id="text_9">
      <text style="fill:#262626;font-family:AU Passata;font-size:13.75px;font-style:normal;font-weight:normal;text-anchor:middle;" transform="rotate(-0, 367.298177, 239.161458)" x="367.298177" y="239.161458">8</text>
     </g>
    </g>
    <g id="xtick_10">
     <g id="text_10">
      <text style="fill:#262626;font-family:AU Passata;font-size:13.75px;font-style:normal;font-weight:normal;text-anchor:middle;" transform="rotate(-0, 397.703385, 239.161458)" x="397.703385" y="239.161458">9</text>
     </g>
    </g>
    <g id="xtick_11">
     <g id="text_11">
      <text style="fill:#262626;font-family:AU Passata;font-size:13.75px;font-style:normal;font-weight:normal;text-anchor:middle;" transform="rotate(-0, 428.108594, 239.161458)" x="428.108594" y="239.161458">10</text>
     </g>
    </g>
    <g id="xtick_12">
     <g id="text_12">
      <text style="fill:#262626;font-family:AU Passata;font-size:13.75px;font-style:normal;font-weight:normal;text-anchor:middle;" transform="rotate(-0, 458.513802, 239.161458)" x="458.513802" y="239.161458">11</text>
     </g>
    </g>
    <g id="xtick_13">
     <g id="text_13">
      <text style="fill:#262626;font-family:AU Passata;font-size:13.75px;font-style:normal;font-weight:normal;text-anchor:middle;" transform="rotate(-0, 488.91901, 239.161458)" x="488.91901" y="239.161458">12</text>
     </g>
    </g>
    <g id="xtick_14">
     <g id="text_14">
      <text style="fill:#262626;font-family:AU Passata;font-size:13.75px;font-style:normal;font-weight:normal;text-anchor:middle;" transform="rotate(-0, 519.324219, 239.161458)" x="519.324219" y="239.161458">13</text>
     </g>
    </g>
    <g id="xtick_15">
     <g id="text_15">
      <text style="fill:#262626;font-family:AU Passata;font-size:13.75px;font-style:normal;font-weight:normal;text-anchor:middle;" transform="rotate(-0, 549.729427, 239.161458)" x="549.729427" y="239.161458">14</text>
     </g>
    </g>
    <g id="xtick_16">
     <g id="text_16">
      <text style="fill:#262626;font-family:AU Passata;font-size:13.75px;font-style:normal;font-weight:normal;text-anchor:middle;" transform="rotate(-0, 580.134635, 239.161458)" x="580.134635" y="239.161458">15</text>
     </g>
    </g>
    <g id="xtick_17">
     <g id="text_17">
      <text style="fill:#262626;font-family:AU Passata;font-size:13.75px;font-style:normal;font-weight:normal;text-anchor:middle;" transform="rotate(-0, 610.539844, 239.161458)" x="610.539844" y="239.161458">16</text>
     </g>
    </g>
    <g id="xtick_18">
     <g id="text_18">
      <text style="fill:#262626;font-family:AU Passata;font-size:13.75px;font-style:normal;font-weight:normal;text-anchor:middle;" transform="rotate(-0, 640.945052, 239.161458)" x="640.945052" y="239.161458">17</text>
     </g>
    </g>
    <g id="xtick_19">
     <g id="text_19">
      <text style="fill:#262626;font-family:AU Passata;font-size:13.75px;font-style:normal;font-weight:normal;text-anchor:middle;" transform="rotate(-0, 671.35026, 239.161458)" x="671.35026" y="239.161458">18</text>
     </g>
    </g>
    <g id="xtick_20">
     <g id="text_20">
      <text style="fill:#262626;font-family:AU Passata;font-size:13.75px;font-style:normal;font-weight:normal;text-anchor:middle;" transform="rotate(-0, 701.755469, 239.161458)" x="701.755469" y="239.161458">19</text>
     </g>
    </g>
    <g id="xtick_21">
     <g id="text_21">
      <text style="fill:#262626;font-family:AU Passata;font-size:13.75px;font-style:normal;font-weight:normal;text-anchor:middle;" transform="rotate(-0, 732.160677, 239.161458)" x="732.160677" y="239.161458">20</text>
     </g>
    </g>
    <g id="xtick_22">
     <g id="text_22">
      <text style="fill:#262626;font-family:AU Passata;font-size:13.75px;font-style:normal;font-weight:normal;text-anchor:middle;" transform="rotate(-0, 762.565885, 239.161458)" x="762.565885" y="239.161458">21</text>
     </g>
    </g>
    <g id="xtick_23">
     <g id="text_23">
      <text style="fill:#262626;font-family:AU Passata;font-size:13.75px;font-style:normal;font-weight:normal;text-anchor:middle;" transform="rotate(-0, 792.971094, 239.161458)" x="792.971094" y="239.161458">22</text>
     </g>
    </g>
    <g id="xtick_24">
     <g id="text_24">
      <text style="fill:#262626;font-family:AU Passata;font-size:13.75px;font-style:normal;font-weight:normal;text-anchor:middle;" transform="rotate(-0, 823.376302, 239.161458)" x="823.376302" y="239.161458">23</text>
     </g>
    </g>
    <g id="text_25">
     <text style="fill:#262626;font-family:AU Passata;font-size:15px;font-style:normal;font-weight:normal;text-anchor:middle;" transform="rotate(-0, 473.716406, 256.411458)" x="473.716406" y="256.411458">Hour of day</text>
    </g>
   </g>
   <g id="matplotlib.axis_2">
    <g id="ytick_1">
     <g id="text_26">
      <text style="fill:#262626;font-family:AU Passata;font-size:13.75px;font-style:normal;font-weight:normal;text-anchor:end;" transform="rotate(-0, 99.353906, 27.386979)" x="99.353906" y="27.386979">Monday</text>
     </g>
    </g>
    <g id="ytick_2">
     <g id="text_27">
      <text style="fill:#262626;font-family:AU Passata;font-size:13.75px;font-style:normal;font-weight:normal;text-anchor:end;" transform="rotate(-0, 99.353906, 57.620312)" x="99.353906" y="57.620312">Tuesday</text>
     </g>
    </g>
    <g id="ytick_3">
     <g id="text_28">
      <text style="fill:#262626;font-family:AU Passata;font-size:13.75px;font-style:normal;font-weight:normal;text-anchor:end;" transform="rotate(-0, 99.353906, 88.163021)" x="99.353906" y="88.163021">Wednesday</text>
     </g>
    </g>
    <g id="ytick_4">
     <g id="text_29">
      <text style="fill:#262626;font-family:AU Passata;font-size:13.75px;font-style:normal;font-weight:normal;text-anchor:end;" transform="rotate(-0, 99.353906, 118.430729)" x="99.353906" y="118.430729">Thursday</text>
     </g>
    </g>
    <g id="ytick_5">
     <g id="text_30">
      <text style="fill:#262626;font-family:AU Passata;font-size:13.75px;font-style:normal;font-weight:normal;text-anchor:end;" transform="rotate(-0, 99.353906, 148.835937)" x="99.353906" y="148.835937">Friday</text>
     </g>
    </g>
    <g id="ytick_6">
     <g id="text_31">
      <text style="fill:#262626;font-family:AU Passata;font-size:13.75px;font-style:normal;font-weight:normal;text-anchor:end;" transform="rotate(-0, 99.353906, 179.344271)" x="99.353906" y="179.344271">Saturday</text>
     </g>
    </g>
    <g id="ytick_7">
     <g id="text_32">
      <text style="fill:#262626;font-family:AU Passata;font-size:13.75px;font-style:normal;font-weight:normal;text-anchor:end;" transform="rotate(-0, 99.353906, 209.749479)" x="99.353906" y="209.749479">Sunday</text>
     </g>
    </g>
    <g id="text_33">
     <text style="fill:#262626;font-family:AU Passata;font-size:15px;font-style:normal;font-weight:normal;text-anchor:middle;" transform="rotate(-90, 17.7, 113.618229)" x="17.7" y="113.618229">Day of week</text>
    </g>
   </g>
   <g id="QuadMesh_1">
    <path clip-path="url(#p9b44e988eb)" d="M 108.853906 7.2 
L 139.259115 7.2 
L 139.259115 37.605208 
L 108.853906 37.605208 
L 108.853906 7.2 
" style="fill:#f8eee8;"/>
    <path clip-path="url(#p9b44e988eb)" d="M 139.259115 7.2 
L 169.664323 7.2 
L 169.664323 37.605208 
L 139.259115 37.605208 
L 139.259115 7.2 
" style="fill:#fbf7f4;"/>
    <path clip-path="url(#p9b44e988eb)" d="M 169.664323 7.2 
L 200.069531 7.2 
L 200.069531 37.605208 
L 169.664323 37.605208 
L 169.664323 7.2 
" style="fill:#f4e4dd;"/>
    <path clip-path="url(#p9b44e988eb)" d="M 200.069531 7.2 
L 230.47474 7.2 
L 230.47474 37.605208 
L 200.069531 37.605208 
L 200.069531 7.2 
" style="fill:#f3e0d9;"/>
    <path clip-path="url(#p9b44e988eb)" d="M 230.47474 7.2 
L 260.879948 7.2 
L 260.879948 37.605208 
L 230.47474 37.605208 
L 230.47474 7.2 
" style="fill:#fbf7f4;"/>
    <path clip-path="url(#p9b44e988eb)" d="M 260.879948 7.2 
L 291.285156 7.2 
L 291.285156 37.605208 
L 260.879948 37.605208 
L 260.879948 7.2 
" style="fill:#ffffff;"/>
    <path clip-path="url(#p9b44e988eb)" d="M 291.285156 7.2 
L 321.690365 7.2 
L 321.690365 37.605208 
L 291.285156 37.605208 
L 291.285156 7.2 
" style="fill:#ffffff;"/>
    <path clip-path="url(#p9b44e988eb)" d="M 321.690365 7.2 
L 352.095573 7.2 
L 352.095573 37.605208 
L 321.690365 37.605208 
L 321.690365 7.2 
" style="fill:#ffffff;"/>
    <path clip-path="url(#p9b44e988eb)" d="M 352.095573 7.2 
L 382.500781 7.2 
L 382.500781 37.605208 
L 352.095573 37.605208 
L 352.095573 7.2 
" style="fill:#f6e9e2;"/>
    <path clip-path="url(#p9b44e988eb)" d="M 382.500781 7.2 
L 412.90599 7.2 
L 412.90599 37.605208 
L 382.500781 37.605208 
L 382.500781 7.2 
" style="fill:#eed4cd;"/>
    <path clip-path="url(#p9b44e988eb)" d="M 412.90599 7.2 
L 443.311198 7.2 
L 443.311198 37.605208 
L 412.90599 37.605208 
L 412.90599 7.2 
" style="fill:#e9c6c2;"/>
    <path clip-path="url(#p9b44e988eb)" d="M 443.311198 7.2 
L 473.716406 7.2 
L 473.716406 37.605208 
L 443.311198 37.605208 
L 443.311198 7.2 
" style="fill:#915584;"/>
    <path clip-path="url(#p9b44e988eb)" d="M 473.716406 7.2 
L 504.121615 7.2 
L 504.121615 37.605208 
L 473.716406 37.605208 
L 473.716406 7.2 
" style="fill:#e1b1b4;"/>
    <path clip-path="url(#p9b44e988eb)" d="M 504.121615 7.2 
L 534.526823 7.2 
L 534.526823 37.605208 
L 504.121615 37.605208 
L 504.121615 7.2 
" style="fill:#c2809b;"/>
    <path clip-path="url(#p9b44e988eb)" d="M 534.526823 7.2 
L 564.932031 7.2 
L 564.932031 37.605208 
L 534.526823 37.605208 
L 534.526823 7.2 
" style="fill:#e3b6b7;"/>
    <path clip-path="url(#p9b44e988eb)" d="M 564.932031 7.2 
L 595.33724 7.2 
L 595.33724 37.605208 
L 564.932031 37.605208 
L 564.932031 7.2 
" style="fill:#b67395;"/>
    <path clip-path="url(#p9b44e988eb)" d="M 595.33724 7.2 
L 625.742448 7.2 
L 625.742448 37.605208 
L 595.33724 37.605208 
L 595.33724 7.2 
" style="fill:#b67395;"/>
    <path clip-path="url(#p9b44e988eb)" d="M 625.742448 7.2 
L 656.147656 7.2 
L 656.147656 37.605208 
L 625.742448 37.605208 
L 625.742448 7.2 
" style="fill:#6b3e6f;"/>
    <path clip-path="url(#p9b44e988eb)" d="M 656.147656 7.2 
L 686.552865 7.2 
L 686.552865 37.605208 
L 656.147656 37.605208 
L 656.147656 7.2 
" style="fill:#814a7c;"/>
    <path clip-path="url(#p9b44e988eb)" d="M 686.552865 7.2 
L 716.958073 7.2 
L 716.958073 37.605208 
L 686.552865 37.605208 
L 686.552865 7.2 
" style="fill:#52315f;"/>
    <path clip-path="url(#p9b44e988eb)" d="M 716.958073 7.2 
L 747.363281 7.2 
L 747.363281 37.605208 
L 716.958073 37.605208 
L 716.958073 7.2 
" style="fill:#bb7797;"/>
    <path clip-path="url(#p9b44e988eb)" d="M 747.363281 7.2 
L 777.76849 7.2 
L 777.76849 37.605208 
L 747.363281 37.605208 
L 747.363281 7.2 
" style="fill:#c17e9a;"/>
    <path clip-path="url(#p9b44e988eb)" d="M 777.76849 7.2 
L 808.173698 7.2 
L 808.173698 37.605208 
L 777.76849 37.605208 
L 777.76849 7.2 
" style="fill:#b16e92;"/>
    <path clip-path="url(#p9b44e988eb)" d="M 808.173698 7.2 
L 838.578906 7.2 
L 838.578906 37.605208 
L 808.173698 37.605208 
L 808.173698 7.2 
" style="fill:#dfacb1;"/>
    <path clip-path="url(#p9b44e988eb)" d="M 108.853906 37.605208 
L 139.259115 37.605208 
L 139.259115 68.010417 
L 108.853906 68.010417 
L 108.853906 37.605208 
" style="fill:#f1dcd6;"/>
    <path clip-path="url(#p9b44e988eb)" d="M 139.259115 37.605208 
L 169.664323 37.605208 
L 169.664323 68.010417 
L 139.259115 68.010417 
L 139.259115 37.605208 
" style="fill:#fbf7f4;"/>
    <path clip-path="url(#p9b44e988eb)" d="M 169.664323 37.605208 
L 200.069531 37.605208 
L 200.069531 68.010417 
L 169.664323 68.010417 
L 169.664323 37.605208 
" style="fill:#fcf9f7;"/>
    <path clip-path="url(#p9b44e988eb)" d="M 200.069531 37.605208 
L 230.47474 37.605208 
L 230.47474 68.010417 
L 200.069531 68.010417 
L 200.069531 37.605208 
" style="fill:#fbf6f2;"/>
    <path clip-path="url(#p9b44e988eb)" d="M 230.47474 37.605208 
L 260.879948 37.605208 
L 260.879948 68.010417 
L 230.47474 68.010417 
L 230.47474 37.605208 
" style="fill:#fcf9f7;"/>
    <path clip-path="url(#p9b44e988eb)" d="M 260.879948 37.605208 
L 291.285156 37.605208 
L 291.285156 68.010417 
L 260.879948 68.010417 
L 260.879948 37.605208 
" style="fill:#fcf8f5;"/>
    <path clip-path="url(#p9b44e988eb)" d="M 291.285156 37.605208 
L 321.690365 37.605208 
L 321.690365 68.010417 
L 291.285156 68.010417 
L 291.285156 37.605208 
" style="fill:#ffffff;"/>
    <path clip-path="url(#p9b44e988eb)" d="M 321.690365 37.605208 
L 352.095573 37.605208 
L 352.095573 68.010417 
L 321.690365 68.010417 
L 321.690365 37.605208 
" style="fill:#fefefd;"/>
    <path clip-path="url(#p9b44e988eb)" d="M 352.095573 37.605208 
L 382.500781 37.605208 
L 382.500781 68.010417 
L 352.095573 68.010417 
L 352.095573 37.605208 
" style="fill:#f6eae4;"/>
    <path clip-path="url(#p9b44e988eb)" d="M 382.500781 37.605208 
L 412.90599 37.605208 
L 412.90599 68.010417 
L 382.500781 68.010417 
L 382.500781 37.605208 
" style="fill:#f7ece7;"/>
    <path clip-path="url(#p9b44e988eb)" d="M 412.90599 37.605208 
L 443.311198 37.605208 
L 443.311198 68.010417 
L 412.90599 68.010417 
L 412.90599 37.605208 
" style="fill:#c2809b;"/>
    <path clip-path="url(#p9b44e988eb)" d="M 443.311198 37.605208 
L 473.716406 37.605208 
L 473.716406 68.010417 
L 443.311198 68.010417 
L 443.311198 37.605208 
" style="fill:#9f5f8a;"/>
    <path clip-path="url(#p9b44e988eb)" d="M 473.716406 37.605208 
L 504.121615 37.605208 
L 504.121615 68.010417 
L 473.716406 68.010417 
L 473.716406 37.605208 
" style="fill:#e4b9b9;"/>
    <path clip-path="url(#p9b44e988eb)" d="M 504.121615 37.605208 
L 534.526823 37.605208 
L 534.526823 68.010417 
L 504.121615 68.010417 
L 504.121615 37.605208 
" style="fill:#b57294;"/>
    <path clip-path="url(#p9b44e988eb)" d="M 534.526823 37.605208 
L 564.932031 37.605208 
L 564.932031 68.010417 
L 534.526823 68.010417 
L 534.526823 37.605208 
" style="fill:#8c5181;"/>
    <path clip-path="url(#p9b44e988eb)" d="M 564.932031 37.605208 
L 595.33724 37.605208 
L 595.33724 68.010417 
L 564.932031 68.010417 
L 564.932031 37.605208 
" style="fill:#3c264d;"/>
    <path clip-path="url(#p9b44e988eb)" d="M 595.33724 37.605208 
L 625.742448 37.605208 
L 625.742448 68.010417 
L 595.33724 68.010417 
L 595.33724 37.605208 
" style="fill:#7c4879;"/>
    <path clip-path="url(#p9b44e988eb)" d="M 625.742448 37.605208 
L 656.147656 37.605208 
L 656.147656 68.010417 
L 625.742448 68.010417 
L 625.742448 37.605208 
" style="fill:#aa688f;"/>
    <path clip-path="url(#p9b44e988eb)" d="M 656.147656 37.605208 
L 686.552865 37.605208 
L 686.552865 68.010417 
L 656.147656 68.010417 
L 656.147656 37.605208 
" style="fill:#965886;"/>
    <path clip-path="url(#p9b44e988eb)" d="M 686.552865 37.605208 
L 716.958073 37.605208 
L 716.958073 68.010417 
L 686.552865 68.010417 
L 686.552865 37.605208 
" style="fill:#ba7696;"/>
    <path clip-path="url(#p9b44e988eb)" d="M 716.958073 37.605208 
L 747.363281 37.605208 
L 747.363281 68.010417 
L 716.958073 68.010417 
L 716.958073 37.605208 
" style="fill:#e4b9b9;"/>
    <path clip-path="url(#p9b44e988eb)" d="M 747.363281 37.605208 
L 777.76849 37.605208 
L 777.76849 68.010417 
L 747.363281 68.010417 
L 747.363281 37.605208 
" style="fill:#dda9af;"/>
    <path clip-path="url(#p9b44e988eb)" d="M 777.76849 37.605208 
L 808.173698 37.605208 
L 808.173698 68.010417 
L 777.76849 68.010417 
L 777.76849 37.605208 
" style="fill:#d9a1ab;"/>
    <path clip-path="url(#p9b44e988eb)" d="M 808.173698 37.605208 
L 838.578906 37.605208 
L 838.578906 68.010417 
L 808.173698 68.010417 
L 808.173698 37.605208 
" style="fill:#e7bfbd;"/>
    <path clip-path="url(#p9b44e988eb)" d="M 108.853906 68.010417 
L 139.259115 68.010417 
L 139.259115 98.415625 
L 108.853906 98.415625 
L 108.853906 68.010417 
" style="fill:#f1dbd4;"/>
    <path clip-path="url(#p9b44e988eb)" d="M 139.259115 68.010417 
L 169.664323 68.010417 
L 169.664323 98.415625 
L 139.259115 98.415625 
L 139.259115 68.010417 
" style="fill:#f3e0d9;"/>
    <path clip-path="url(#p9b44e988eb)" d="M 169.664323 68.010417 
L 200.069531 68.010417 
L 200.069531 98.415625 
L 169.664323 98.415625 
L 169.664323 68.010417 
" style="fill:#f9f1ec;"/>
    <path clip-path="url(#p9b44e988eb)" d="M 200.069531 68.010417 
L 230.47474 68.010417 
L 230.47474 98.415625 
L 200.069531 98.415625 
L 200.069531 68.010417 
" style="fill:#f7ece7;"/>
    <path clip-path="url(#p9b44e988eb)" d="M 230.47474 68.010417 
L 260.879948 68.010417 
L 260.879948 98.415625 
L 230.47474 98.415625 
L 230.47474 68.010417 
" style="fill:#faf2ee;"/>
    <path clip-path="url(#p9b44e988eb)" d="M 260.879948 68.010417 
L 291.285156 68.010417 
L 291.285156 98.415625 
L 260.879948 98.415625 
L 260.879948 68.010417 
" style="fill:#fbf7f4;"/>
    <path clip-path="url(#p9b44e988eb)" d="M 291.285156 68.010417 
L 321.690365 68.010417 
L 321.690365 98.415625 
L 291.285156 98.415625 
L 291.285156 68.010417 
" style="fill:#fcf9f7;"/>
    <path clip-path="url(#p9b44e988eb)" d="M 321.690365 68.010417 
L 352.095573 68.010417 
L 352.095573 98.415625 
L 321.690365 98.415625 
L 321.690365 68.010417 
" style="fill:#f1dcd6;"/>
    <path clip-path="url(#p9b44e988eb)" d="M 352.095573 68.010417 
L 382.500781 68.010417 
L 382.500781 98.415625 
L 352.095573 98.415625 
L 352.095573 68.010417 
" style="fill:#dfacb1;"/>
    <path clip-path="url(#p9b44e988eb)" d="M 382.500781 68.010417 
L 412.90599 68.010417 
L 412.90599 98.415625 
L 382.500781 98.415625 
L 382.500781 68.010417 
" style="fill:#c5849d;"/>
    <path clip-path="url(#p9b44e988eb)" d="M 412.90599 68.010417 
L 443.311198 68.010417 
L 443.311198 98.415625 
L 412.90599 98.415625 
L 412.90599 68.010417 
" style="fill:#d69ca8;"/>
    <path clip-path="url(#p9b44e988eb)" d="M 443.311198 68.010417 
L 473.716406 68.010417 
L 473.716406 98.415625 
L 443.311198 98.415625 
L 443.311198 68.010417 
" style="fill:#dda9af;"/>
    <path clip-path="url(#p9b44e988eb)" d="M 473.716406 68.010417 
L 504.121615 68.010417 
L 504.121615 98.415625 
L 473.716406 98.415625 
L 473.716406 68.010417 
" style="fill:#dca6ae;"/>
    <path clip-path="url(#p9b44e988eb)" d="M 504.121615 68.010417 
L 534.526823 68.010417 
L 534.526823 98.415625 
L 504.121615 98.415625 
L 504.121615 68.010417 
" style="fill:#dba5ad;"/>
    <path clip-path="url(#p9b44e988eb)" d="M 534.526823 68.010417 
L 564.932031 68.010417 
L 564.932031 98.415625 
L 534.526823 98.415625 
L 534.526823 68.010417 
" style="fill:#aa688f;"/>
    <path clip-path="url(#p9b44e988eb)" d="M 564.932031 68.010417 
L 595.33724 68.010417 
L 595.33724 98.415625 
L 564.932031 98.415625 
L 564.932031 68.010417 
" style="fill:#422952;"/>
    <path clip-path="url(#p9b44e988eb)" d="M 595.33724 68.010417 
L 625.742448 68.010417 
L 625.742448 98.415625 
L 595.33724 98.415625 
L 595.33724 68.010417 
" style="fill:#d59aa7;"/>
    <path clip-path="url(#p9b44e988eb)" d="M 625.742448 68.010417 
L 656.147656 68.010417 
L 656.147656 98.415625 
L 625.742448 98.415625 
L 625.742448 68.010417 
" style="fill:#c4829c;"/>
    <path clip-path="url(#p9b44e988eb)" d="M 656.147656 68.010417 
L 686.552865 68.010417 
L 686.552865 98.415625 
L 656.147656 98.415625 
L 656.147656 68.010417 
" style="fill:#e1b1b4;"/>
    <path clip-path="url(#p9b44e988eb)" d="M 686.552865 68.010417 
L 716.958073 68.010417 
L 716.958073 98.415625 
L 686.552865 98.415625 
L 686.552865 68.010417 
" style="fill:#e0b0b3;"/>
    <path clip-path="url(#p9b44e988eb)" d="M 716.958073 68.010417 
L 747.363281 68.010417 
L 747.363281 98.415625 
L 716.958073 98.415625 
L 716.958073 68.010417 
" style="fill:#e5baba;"/>
    <path clip-path="url(#p9b44e988eb)" d="M 747.363281 68.010417 
L 777.76849 68.010417 
L 777.76849 98.415625 
L 747.363281 98.415625 
L 747.363281 68.010417 
" style="fill:#e2b3b5;"/>
    <path clip-path="url(#p9b44e988eb)" d="M 777.76849 68.010417 
L 808.173698 68.010417 
L 808.173698 98.415625 
L 777.76849 98.415625 
L 777.76849 68.010417 
" style="fill:#cf91a3;"/>
    <path clip-path="url(#p9b44e988eb)" d="M 808.173698 68.010417 
L 838.578906 68.010417 
L 838.578906 98.415625 
L 808.173698 98.415625 
L 808.173698 68.010417 
" style="fill:#bd7a98;"/>
    <path clip-path="url(#p9b44e988eb)" d="M 108.853906 98.415625 
L 139.259115 98.415625 
L 139.259115 128.820833 
L 108.853906 128.820833 
L 108.853906 98.415625 
" style="fill:#e0afb3;"/>
    <path clip-path="url(#p9b44e988eb)" d="M 139.259115 98.415625 
L 169.664323 98.415625 
L 169.664323 128.820833 
L 139.259115 128.820833 
L 139.259115 98.415625 
" style="fill:#f1dcd6;"/>
    <path clip-path="url(#p9b44e988eb)" d="M 169.664323 98.415625 
L 200.069531 98.415625 
L 200.069531 128.820833 
L 169.664323 128.820833 
L 169.664323 98.415625 
" style="fill:#f9f0eb;"/>
    <path clip-path="url(#p9b44e988eb)" d="M 200.069531 98.415625 
L 230.47474 98.415625 
L 230.47474 128.820833 
L 200.069531 128.820833 
L 200.069531 98.415625 
" style="fill:#faf2ee;"/>
    <path clip-path="url(#p9b44e988eb)" d="M 230.47474 98.415625 
L 260.879948 98.415625 
L 260.879948 128.820833 
L 230.47474 128.820833 
L 230.47474 98.415625 
" style="fill:#faf2ee;"/>
    <path clip-path="url(#p9b44e988eb)" d="M 260.879948 98.415625 
L 291.285156 98.415625 
L 291.285156 128.820833 
L 260.879948 128.820833 
L 260.879948 98.415625 
" style="fill:#fcf8f5;"/>
    <path clip-path="url(#p9b44e988eb)" d="M 291.285156 98.415625 
L 321.690365 98.415625 
L 321.690365 128.820833 
L 291.285156 128.820833 
L 291.285156 98.415625 
" style="fill:#faf5f1;"/>
    <path clip-path="url(#p9b44e988eb)" d="M 321.690365 98.415625 
L 352.095573 98.415625 
L 352.095573 128.820833 
L 321.690365 128.820833 
L 321.690365 98.415625 
" style="fill:#faf5f1;"/>
    <path clip-path="url(#p9b44e988eb)" d="M 352.095573 98.415625 
L 382.500781 98.415625 
L 382.500781 128.820833 
L 352.095573 128.820833 
L 352.095573 98.415625 
" style="fill:#e9c4c1;"/>
    <path clip-path="url(#p9b44e988eb)" d="M 382.500781 98.415625 
L 412.90599 98.415625 
L 412.90599 128.820833 
L 382.500781 128.820833 
L 382.500781 98.415625 
" style="fill:#e7c1be;"/>
    <path clip-path="url(#p9b44e988eb)" d="M 412.90599 98.415625 
L 443.311198 98.415625 
L 443.311198 128.820833 
L 412.90599 128.820833 
L 412.90599 98.415625 
" style="fill:#dca6ae;"/>
    <path clip-path="url(#p9b44e988eb)" d="M 443.311198 98.415625 
L 473.716406 98.415625 
L 473.716406 128.820833 
L 443.311198 128.820833 
L 443.311198 98.415625 
" style="fill:#d9a1ab;"/>
    <path clip-path="url(#p9b44e988eb)" d="M 473.716406 98.415625 
L 504.121615 98.415625 
L 504.121615 128.820833 
L 473.716406 128.820833 
L 473.716406 98.415625 
" style="fill:#dda9af;"/>
    <path clip-path="url(#p9b44e988eb)" d="M 504.121615 98.415625 
L 534.526823 98.415625 
L 534.526823 128.820833 
L 504.121615 128.820833 
L 504.121615 98.415625 
" style="fill:#cf91a3;"/>
    <path clip-path="url(#p9b44e988eb)" d="M 534.526823 98.415625 
L 564.932031 98.415625 
L 564.932031 128.820833 
L 534.526823 128.820833 
L 534.526823 98.415625 
" style="fill:#b77495;"/>
    <path clip-path="url(#p9b44e988eb)" d="M 564.932031 98.415625 
L 595.33724 98.415625 
L 595.33724 128.820833 
L 564.932031 128.820833 
L 564.932031 98.415625 
" style="fill:#b77495;"/>
    <path clip-path="url(#p9b44e988eb)" d="M 595.33724 98.415625 
L 625.742448 98.415625 
L 625.742448 128.820833 
L 595.33724 128.820833 
L 595.33724 98.415625 
" style="fill:#ddaab0;"/>
    <path clip-path="url(#p9b44e988eb)" d="M 625.742448 98.415625 
L 656.147656 98.415625 
L 656.147656 128.820833 
L 625.742448 128.820833 
L 625.742448 98.415625 
" style="fill:#daa2ac;"/>
    <path clip-path="url(#p9b44e988eb)" d="M 656.147656 98.415625 
L 686.552865 98.415625 
L 686.552865 128.820833 
L 656.147656 128.820833 
L 656.147656 98.415625 
" style="fill:#814a7c;"/>
    <path clip-path="url(#p9b44e988eb)" d="M 686.552865 98.415625 
L 716.958073 98.415625 
L 716.958073 128.820833 
L 686.552865 128.820833 
L 686.552865 98.415625 
" style="fill:#9f5f8a;"/>
    <path clip-path="url(#p9b44e988eb)" d="M 716.958073 98.415625 
L 747.363281 98.415625 
L 747.363281 128.820833 
L 716.958073 128.820833 
L 716.958073 98.415625 
" style="fill:#bd7a98;"/>
    <path clip-path="url(#p9b44e988eb)" d="M 747.363281 98.415625 
L 777.76849 98.415625 
L 777.76849 128.820833 
L 747.363281 128.820833 
L 747.363281 98.415625 
" style="fill:#f5e6e0;"/>
    <path clip-path="url(#p9b44e988eb)" d="M 777.76849 98.415625 
L 808.173698 98.415625 
L 808.173698 128.820833 
L 777.76849 128.820833 
L 777.76849 98.415625 
" style="fill:#e3b6b7;"/>
    <path clip-path="url(#p9b44e988eb)" d="M 808.173698 98.415625 
L 838.578906 98.415625 
L 838.578906 128.820833 
L 808.173698 128.820833 
L 808.173698 98.415625 
" style="fill:#c8879e;"/>
    <path clip-path="url(#p9b44e988eb)" d="M 108.853906 128.820833 
L 139.259115 128.820833 
L 139.259115 159.226042 
L 108.853906 159.226042 
L 108.853906 128.820833 
" style="fill:#e9c4c1;"/>
    <path clip-path="url(#p9b44e988eb)" d="M 139.259115 128.820833 
L 169.664323 128.820833 
L 169.664323 159.226042 
L 139.259115 159.226042 
L 139.259115 128.820833 
" style="fill:#f1dbd4;"/>
    <path clip-path="url(#p9b44e988eb)" d="M 169.664323 128.820833 
L 200.069531 128.820833 
L 200.069531 159.226042 
L 169.664323 159.226042 
L 169.664323 128.820833 
" style="fill:#f6e9e2;"/>
    <path clip-path="url(#p9b44e988eb)" d="M 200.069531 128.820833 
L 230.47474 128.820833 
L 230.47474 159.226042 
L 200.069531 159.226042 
L 200.069531 128.820833 
" style="fill:#faf4ef;"/>
    <path clip-path="url(#p9b44e988eb)" d="M 230.47474 128.820833 
L 260.879948 128.820833 
L 260.879948 159.226042 
L 230.47474 159.226042 
L 230.47474 128.820833 
" style="fill:#fcf9f7;"/>
    <path clip-path="url(#p9b44e988eb)" d="M 260.879948 128.820833 
L 291.285156 128.820833 
L 291.285156 159.226042 
L 260.879948 159.226042 
L 260.879948 128.820833 
" style="fill:#fefefd;"/>
    <path clip-path="url(#p9b44e988eb)" d="M 291.285156 128.820833 
L 321.690365 128.820833 
L 321.690365 159.226042 
L 291.285156 159.226042 
L 291.285156 128.820833 
" style="fill:#ffffff;"/>
    <path clip-path="url(#p9b44e988eb)" d="M 321.690365 128.820833 
L 352.095573 128.820833 
L 352.095573 159.226042 
L 321.690365 159.226042 
L 321.690365 128.820833 
" style="fill:#fcf8f5;"/>
    <path clip-path="url(#p9b44e988eb)" d="M 352.095573 128.820833 
L 382.500781 128.820833 
L 382.500781 159.226042 
L 352.095573 159.226042 
L 352.095573 128.820833 
" style="fill:#eed2cc;"/>
    <path clip-path="url(#p9b44e988eb)" d="M 382.500781 128.820833 
L 412.90599 128.820833 
L 412.90599 159.226042 
L 382.500781 159.226042 
L 382.500781 128.820833 
" style="fill:#cc8da1;"/>
    <path clip-path="url(#p9b44e988eb)" d="M 412.90599 128.820833 
L 443.311198 128.820833 
L 443.311198 159.226042 
L 412.90599 159.226042 
L 412.90599 128.820833 
" style="fill:#9b5c89;"/>
    <path clip-path="url(#p9b44e988eb)" d="M 443.311198 128.820833 
L 473.716406 128.820833 
L 473.716406 159.226042 
L 443.311198 159.226042 
L 443.311198 128.820833 
" style="fill:#a4638d;"/>
    <path clip-path="url(#p9b44e988eb)" d="M 473.716406 128.820833 
L 504.121615 128.820833 
L 504.121615 159.226042 
L 473.716406 159.226042 
L 473.716406 128.820833 
" style="fill:#794678;"/>
    <path clip-path="url(#p9b44e988eb)" d="M 504.121615 128.820833 
L 534.526823 128.820833 
L 534.526823 159.226042 
L 504.121615 159.226042 
L 504.121615 128.820833 
" style="fill:#834c7d;"/>
    <path clip-path="url(#p9b44e988eb)" d="M 534.526823 128.820833 
L 564.932031 128.820833 
L 564.932031 159.226042 
L 534.526823 159.226042 
L 534.526823 128.820833 
" style="fill:#995a88;"/>
    <path clip-path="url(#p9b44e988eb)" d="M 564.932031 128.820833 
L 595.33724 128.820833 
L 595.33724 159.226042 
L 564.932031 159.226042 
L 564.932031 128.820833 
" style="fill:#aa688f;"/>
    <path clip-path="url(#p9b44e988eb)" d="M 595.33724 128.820833 
L 625.742448 128.820833 
L 625.742448 159.226042 
L 595.33724 159.226042 
L 595.33724 128.820833 
" style="fill:#4b2e59;"/>
    <path clip-path="url(#p9b44e988eb)" d="M 625.742448 128.820833 
L 656.147656 128.820833 
L 656.147656 159.226042 
L 625.742448 159.226042 
L 625.742448 128.820833 
" style="fill:#2d1e3e;"/>
    <path clip-path="url(#p9b44e988eb)" d="M 656.147656 128.820833 
L 686.552865 128.820833 
L 686.552865 159.226042 
L 656.147656 159.226042 
L 656.147656 128.820833 
" style="fill:#b06d92;"/>
    <path clip-path="url(#p9b44e988eb)" d="M 686.552865 128.820833 
L 716.958073 128.820833 
L 716.958073 159.226042 
L 686.552865 159.226042 
L 686.552865 128.820833 
" style="fill:#965886;"/>
    <path clip-path="url(#p9b44e988eb)" d="M 716.958073 128.820833 
L 747.363281 128.820833 
L 747.363281 159.226042 
L 716.958073 159.226042 
L 716.958073 128.820833 
" style="fill:#ce8fa2;"/>
    <path clip-path="url(#p9b44e988eb)" d="M 747.363281 128.820833 
L 777.76849 128.820833 
L 777.76849 159.226042 
L 747.363281 159.226042 
L 747.363281 128.820833 
" style="fill:#ebcbc6;"/>
    <path clip-path="url(#p9b44e988eb)" d="M 777.76849 128.820833 
L 808.173698 128.820833 
L 808.173698 159.226042 
L 777.76849 159.226042 
L 777.76849 128.820833 
" style="fill:#e7bfbd;"/>
    <path clip-path="url(#p9b44e988eb)" d="M 808.173698 128.820833 
L 838.578906 128.820833 
L 838.578906 159.226042 
L 808.173698 159.226042 
L 808.173698 128.820833 
" style="fill:#e8c2bf;"/>
    <path clip-path="url(#p9b44e988eb)" d="M 108.853906 159.226042 
L 139.259115 159.226042 
L 139.259115 189.63125 
L 108.853906 189.63125 
L 108.853906 159.226042 
" style="fill:#e2b4b6;"/>
    <path clip-path="url(#p9b44e988eb)" d="M 139.259115 159.226042 
L 169.664323 159.226042 
L 169.664323 189.63125 
L 139.259115 189.63125 
L 139.259115 159.226042 
" style="fill:#e6bebc;"/>
    <path clip-path="url(#p9b44e988eb)" d="M 169.664323 159.226042 
L 200.069531 159.226042 
L 200.069531 189.63125 
L 169.664323 189.63125 
L 169.664323 159.226042 
" style="fill:#f1dcd6;"/>
    <path clip-path="url(#p9b44e988eb)" d="M 200.069531 159.226042 
L 230.47474 159.226042 
L 230.47474 189.63125 
L 200.069531 189.63125 
L 200.069531 159.226042 
" style="fill:#f3e0d9;"/>
    <path clip-path="url(#p9b44e988eb)" d="M 230.47474 159.226042 
L 260.879948 159.226042 
L 260.879948 189.63125 
L 230.47474 189.63125 
L 230.47474 159.226042 
" style="fill:#f2dfd8;"/>
    <path clip-path="url(#p9b44e988eb)" d="M 260.879948 159.226042 
L 291.285156 159.226042 
L 291.285156 189.63125 
L 260.879948 189.63125 
L 260.879948 159.226042 
" style="fill:#f3e0d9;"/>
    <path clip-path="url(#p9b44e988eb)" d="M 291.285156 159.226042 
L 321.690365 159.226042 
L 321.690365 189.63125 
L 291.285156 189.63125 
L 291.285156 159.226042 
" style="fill:#f2ded7;"/>
    <path clip-path="url(#p9b44e988eb)" d="M 321.690365 159.226042 
L 352.095573 159.226042 
L 352.095573 189.63125 
L 321.690365 189.63125 
L 321.690365 159.226042 
" style="fill:#f4e3dc;"/>
    <path clip-path="url(#p9b44e988eb)" d="M 352.095573 159.226042 
L 382.500781 159.226042 
L 382.500781 189.63125 
L 352.095573 189.63125 
L 352.095573 159.226042 
" style="fill:#f3e0d9;"/>
    <path clip-path="url(#p9b44e988eb)" d="M 382.500781 159.226042 
L 412.90599 159.226042 
L 412.90599 189.63125 
L 382.500781 189.63125 
L 382.500781 159.226042 
" style="fill:#f9f1ec;"/>
    <path clip-path="url(#p9b44e988eb)" d="M 412.90599 159.226042 
L 443.311198 159.226042 
L 443.311198 189.63125 
L 412.90599 189.63125 
L 412.90599 159.226042 
" style="fill:#f8eee8;"/>
    <path clip-path="url(#p9b44e988eb)" d="M 443.311198 159.226042 
L 473.716406 159.226042 
L 473.716406 189.63125 
L 443.311198 189.63125 
L 443.311198 159.226042 
" style="fill:#f7ece7;"/>
    <path clip-path="url(#p9b44e988eb)" d="M 473.716406 159.226042 
L 504.121615 159.226042 
L 504.121615 189.63125 
L 473.716406 189.63125 
L 473.716406 159.226042 
" style="fill:#f3e0d9;"/>
    <path clip-path="url(#p9b44e988eb)" d="M 504.121615 159.226042 
L 534.526823 159.226042 
L 534.526823 189.63125 
L 504.121615 189.63125 
L 504.121615 159.226042 
" style="fill:#f1dad3;"/>
    <path clip-path="url(#p9b44e988eb)" d="M 534.526823 159.226042 
L 564.932031 159.226042 
L 564.932031 189.63125 
L 534.526823 189.63125 
L 534.526823 159.226042 
" style="fill:#f1dcd6;"/>
    <path clip-path="url(#p9b44e988eb)" d="M 564.932031 159.226042 
L 595.33724 159.226042 
L 595.33724 189.63125 
L 564.932031 189.63125 
L 564.932031 159.226042 
" style="fill:#f2ded7;"/>
    <path clip-path="url(#p9b44e988eb)" d="M 595.33724 159.226042 
L 625.742448 159.226042 
L 625.742448 189.63125 
L 595.33724 189.63125 
L 595.33724 159.226042 
" style="fill:#efd5cf;"/>
    <path clip-path="url(#p9b44e988eb)" d="M 625.742448 159.226042 
L 656.147656 159.226042 
L 656.147656 189.63125 
L 625.742448 189.63125 
L 625.742448 159.226042 
" style="fill:#eac8c4;"/>
    <path clip-path="url(#p9b44e988eb)" d="M 656.147656 159.226042 
L 686.552865 159.226042 
L 686.552865 189.63125 
L 656.147656 189.63125 
L 656.147656 159.226042 
" style="fill:#eac8c4;"/>
    <path clip-path="url(#p9b44e988eb)" d="M 686.552865 159.226042 
L 716.958073 159.226042 
L 716.958073 189.63125 
L 686.552865 189.63125 
L 686.552865 159.226042 
" style="fill:#edcfc9;"/>
    <path clip-path="url(#p9b44e988eb)" d="M 716.958073 159.226042 
L 747.363281 159.226042 
L 747.363281 189.63125 
L 716.958073 189.63125 
L 716.958073 159.226042 
" style="fill:#dca6ae;"/>
    <path clip-path="url(#p9b44e988eb)" d="M 747.363281 159.226042 
L 777.76849 159.226042 
L 777.76849 189.63125 
L 747.363281 189.63125 
L 747.363281 159.226042 
" style="fill:#deabb0;"/>
    <path clip-path="url(#p9b44e988eb)" d="M 777.76849 159.226042 
L 808.173698 159.226042 
L 808.173698 189.63125 
L 777.76849 189.63125 
L 777.76849 159.226042 
" style="fill:#d89faa;"/>
    <path clip-path="url(#p9b44e988eb)" d="M 808.173698 159.226042 
L 838.578906 159.226042 
L 838.578906 189.63125 
L 808.173698 189.63125 
L 808.173698 159.226042 
" style="fill:#e4b8b8;"/>
    <path clip-path="url(#p9b44e988eb)" d="M 108.853906 189.63125 
L 139.259115 189.63125 
L 139.259115 220.036458 
L 108.853906 220.036458 
L 108.853906 189.63125 
" style="fill:#e1b1b4;"/>
    <path clip-path="url(#p9b44e988eb)" d="M 139.259115 189.63125 
L 169.664323 189.63125 
L 169.664323 220.036458 
L 139.259115 220.036458 
L 139.259115 189.63125 
" style="fill:#eac8c4;"/>
    <path clip-path="url(#p9b44e988eb)" d="M 169.664323 189.63125 
L 200.069531 189.63125 
L 200.069531 220.036458 
L 169.664323 220.036458 
L 169.664323 189.63125 
" style="fill:#f1dad3;"/>
    <path clip-path="url(#p9b44e988eb)" d="M 200.069531 189.63125 
L 230.47474 189.63125 
L 230.47474 220.036458 
L 200.069531 220.036458 
L 200.069531 189.63125 
" style="fill:#fbf7f4;"/>
    <path clip-path="url(#p9b44e988eb)" d="M 230.47474 189.63125 
L 260.879948 189.63125 
L 260.879948 220.036458 
L 230.47474 220.036458 
L 230.47474 189.63125 
" style="fill:#faf5f1;"/>
    <path clip-path="url(#p9b44e988eb)" d="M 260.879948 189.63125 
L 291.285156 189.63125 
L 291.285156 220.036458 
L 260.879948 220.036458 
L 260.879948 189.63125 
" style="fill:#fdfcfa;"/>
    <path clip-path="url(#p9b44e988eb)" d="M 291.285156 189.63125 
L 321.690365 189.63125 
L 321.690365 220.036458 
L 291.285156 220.036458 
L 291.285156 189.63125 
" style="fill:#fcf9f7;"/>
    <path clip-path="url(#p9b44e988eb)" d="M 321.690365 189.63125 
L 352.095573 189.63125 
L 352.095573 220.036458 
L 321.690365 220.036458 
L 321.690365 189.63125 
" style="fill:#f9f1ec;"/>
    <path clip-path="url(#p9b44e988eb)" d="M 352.095573 189.63125 
L 382.500781 189.63125 
L 382.500781 220.036458 
L 352.095573 220.036458 
L 352.095573 189.63125 
" style="fill:#faf5f1;"/>
    <path clip-path="url(#p9b44e988eb)" d="M 382.500781 189.63125 
L 412.90599 189.63125 
L 412.90599 220.036458 
L 382.500781 220.036458 
L 382.500781 189.63125 
" style="fill:#f4e4dd;"/>
    <path clip-path="url(#p9b44e988eb)" d="M 412.90599 189.63125 
L 443.311198 189.63125 
L 443.311198 220.036458 
L 412.90599 220.036458 
L 412.90599 189.63125 
" style="fill:#f5e8e1;"/>
    <path clip-path="url(#p9b44e988eb)" d="M 443.311198 189.63125 
L 473.716406 189.63125 
L 473.716406 220.036458 
L 443.311198 220.036458 
L 443.311198 189.63125 
" style="fill:#f2dfd8;"/>
    <path clip-path="url(#p9b44e988eb)" d="M 473.716406 189.63125 
L 504.121615 189.63125 
L 504.121615 220.036458 
L 473.716406 220.036458 
L 473.716406 189.63125 
" style="fill:#f8efe9;"/>
    <path clip-path="url(#p9b44e988eb)" d="M 504.121615 189.63125 
L 534.526823 189.63125 
L 534.526823 220.036458 
L 504.121615 220.036458 
L 504.121615 189.63125 
" style="fill:#f7ebe5;"/>
    <path clip-path="url(#p9b44e988eb)" d="M 534.526823 189.63125 
L 564.932031 189.63125 
L 564.932031 220.036458 
L 534.526823 220.036458 
L 534.526823 189.63125 
" style="fill:#f0d9d2;"/>
    <path clip-path="url(#p9b44e988eb)" d="M 564.932031 189.63125 
L 595.33724 189.63125 
L 595.33724 220.036458 
L 564.932031 220.036458 
L 564.932031 189.63125 
" style="fill:#f7ebe5;"/>
    <path clip-path="url(#p9b44e988eb)" d="M 595.33724 189.63125 
L 625.742448 189.63125 
L 625.742448 220.036458 
L 595.33724 220.036458 
L 595.33724 189.63125 
" style="fill:#f4e3dc;"/>
    <path clip-path="url(#p9b44e988eb)" d="M 625.742448 189.63125 
L 656.147656 189.63125 
L 656.147656 220.036458 
L 625.742448 220.036458 
L 625.742448 189.63125 
" style="fill:#ebcac5;"/>
    <path clip-path="url(#p9b44e988eb)" d="M 656.147656 189.63125 
L 686.552865 189.63125 
L 686.552865 220.036458 
L 656.147656 220.036458 
L 656.147656 189.63125 
" style="fill:#f7ebe5;"/>
    <path clip-path="url(#p9b44e988eb)" d="M 686.552865 189.63125 
L 716.958073 189.63125 
L 716.958073 220.036458 
L 686.552865 220.036458 
L 686.552865 189.63125 
" style="fill:#f4e4dd;"/>
    <path clip-path="url(#p9b44e988eb)" d="M 716.958073 189.63125 
L 747.363281 189.63125 
L 747.363281 220.036458 
L 716.958073 220.036458 
L 716.958073 189.63125 
" style="fill:#f6e9e2;"/>
    <path clip-path="url(#p9b44e988eb)" d="M 747.363281 189.63125 
L 777.76849 189.63125 
L 777.76849 220.036458 
L 747.363281 220.036458 
L 747.363281 189.63125 
" style="fill:#f3e1db;"/>
    <path clip-path="url(#p9b44e988eb)" d="M 777.76849 189.63125 
L 808.173698 189.63125 
L 808.173698 220.036458 
L 777.76849 220.036458 
L 777.76849 189.63125 
" style="fill:#efd6d0;"/>
    <path clip-path="url(#p9b44e988eb)" d="M 808.173698 189.63125 
L 838.578906 189.63125 
L 838.578906 220.036458 
L 808.173698 220.036458 
L 808.173698 189.63125 
" style="fill:#f5e5de;"/>
   </g>
  </g>
 </g>
 <defs>
  <clipPath id="p9b44e988eb">
   <rect height="212.836458" width="729.725" x="108.853906" y="7.2"/>
  </clipPath>
 </defs>
</svg>
