<?xml version="1.0" encoding="utf-8" standalone="no"?>
<!DOCTYPE svg PUBLIC "-//W3C//DTD SVG 1.1//EN"
  "http://www.w3.org/Graphics/SVG/1.1/DTD/svg11.dtd">
<!-- Created with matplotlib (https://matplotlib.org/) -->
<svg height="266.611458pt" version="1.1" viewBox="0 0 845.778906 266.611458" width="845.778906pt" xmlns="http://www.w3.org/2000/svg" xmlns:xlink="http://www.w3.org/1999/xlink">
 <defs>
  <style type="text/css">
*{stroke-linecap:butt;stroke-linejoin:round;white-space:pre;}
  </style>
 </defs>
 <g id="figure_1">
  <g id="patch_1">
   <path d="M 0 266.611458 
L 845.778906 266.611458 
L 845.778906 -0 
L 0 -0 
z
" style="fill:none;"/>
  </g>
  <g id="axes_1">
   <g id="patch_2">
    <path d="M 108.853906 220.036458 
L 838.578906 220.036458 
L 838.578906 7.2 
L 108.853906 7.2 
z
" style="fill:none;"/>
   </g>
   <g id="matplotlib.axis_1">
    <g id="xtick_1">
     <g id="text_1">
      <!-- 0 -->
      <defs>
       <path d="M 4.703125 44.796875 
Q 4.703125 51.59375 6.59375 56.640625 
Q 8.5 61.703125 11.703125 65 
Q 14.90625 68.296875 19.25 69.890625 
Q 23.59375 71.5 28.5 71.5 
Q 33.40625 71.5 37.75 69.890625 
Q 42.09375 68.296875 45.296875 65 
Q 48.5 61.703125 50.390625 56.640625 
Q 52.296875 51.59375 52.296875 44.796875 
L 52.296875 25.203125 
Q 52.296875 18.296875 50.390625 13.25 
Q 48.5 8.203125 45.296875 4.890625 
Q 42.09375 1.59375 37.75 0.046875 
Q 33.40625 -1.5 28.5 -1.5 
Q 23.59375 -1.5 19.25 0.09375 
Q 14.90625 1.703125 11.703125 5 
Q 8.5 8.296875 6.59375 13.34375 
Q 4.703125 18.40625 4.703125 25.203125 
z
M 12.40625 23.796875 
Q 12.40625 19.296875 13.703125 15.890625 
Q 15 12.5 17.140625 10.25 
Q 19.296875 8 22.25 6.84375 
Q 25.203125 5.703125 28.5 5.703125 
Q 31.796875 5.703125 34.75 6.84375 
Q 37.703125 8 39.84375 10.25 
Q 42 12.5 43.296875 15.890625 
Q 44.59375 19.296875 44.59375 23.796875 
L 44.59375 46.203125 
Q 44.59375 50.703125 43.296875 54.09375 
Q 42 57.5 39.84375 59.75 
Q 37.703125 62 34.75 63.140625 
Q 31.796875 64.296875 28.5 64.296875 
Q 25.203125 64.296875 22.25 63.140625 
Q 19.296875 62 17.140625 59.75 
Q 15 57.5 13.703125 54.09375 
Q 12.40625 50.703125 12.40625 46.203125 
z
" id="AUPassata-Regular-48"/>
      </defs>
      <g style="fill:#262626;" transform="translate(120.13776 239.161458)scale(0.1375 -0.1375)">
       <use xlink:href="#AUPassata-Regular-48"/>
      </g>
     </g>
    </g>
    <g id="xtick_2">
     <g id="text_2">
      <!-- 1 -->
      <defs>
       <path d="M 27.5 63 
L 14.5 63 
L 14.5 70 
L 35 70 
L 35 0 
L 27.5 0 
z
" id="AUPassata-Regular-49"/>
      </defs>
      <g style="fill:#262626;" transform="translate(150.542969 239.161458)scale(0.1375 -0.1375)">
       <use xlink:href="#AUPassata-Regular-49"/>
      </g>
     </g>
    </g>
    <g id="xtick_3">
     <g id="text_3">
      <!-- 2 -->
      <defs>
       <path d="M 35.59375 37.703125 
Q 40.796875 44.296875 40.796875 50.703125 
Q 40.796875 53.5 39.796875 56 
Q 38.796875 58.5 37.09375 60.34375 
Q 35.40625 62.203125 33 63.25 
Q 30.59375 64.296875 27.796875 64.296875 
Q 24.90625 64.296875 22.5 63.25 
Q 20.09375 62.203125 18.34375 60.34375 
Q 16.59375 58.5 15.640625 56 
Q 14.703125 53.5 14.703125 50.703125 
L 7 50.703125 
Q 7 55 8.640625 58.796875 
Q 10.296875 62.59375 13.09375 65.390625 
Q 15.90625 68.203125 19.703125 69.84375 
Q 23.5 71.5 27.796875 71.5 
Q 32.09375 71.5 35.84375 69.84375 
Q 39.59375 68.203125 42.390625 65.390625 
Q 45.203125 62.59375 46.84375 58.796875 
Q 48.5 55 48.5 50.703125 
Q 48.5 45.90625 46.703125 41.546875 
Q 44.90625 37.203125 40.703125 32.09375 
L 19.5 7 
L 49.5 7 
L 49.5 0 
L 4.296875 0 
z
" id="AUPassata-Regular-50"/>
      </defs>
      <g style="fill:#262626;" transform="translate(180.948177 239.161458)scale(0.1375 -0.1375)">
       <use xlink:href="#AUPassata-Regular-50"/>
      </g>
     </g>
    </g>
    <g id="xtick_4">
     <g id="text_4">
      <!-- 3 -->
      <defs>
       <path d="M 14.09375 21 
Q 14.09375 14.09375 17.75 9.890625 
Q 21.40625 5.703125 27.90625 5.703125 
Q 30.796875 5.703125 33.25 6.75 
Q 35.703125 7.796875 37.5 9.59375 
Q 39.296875 11.40625 40.296875 13.84375 
Q 41.296875 16.296875 41.296875 19.203125 
Q 41.296875 22 40.34375 24.546875 
Q 39.40625 27.09375 37.546875 28.9375 
Q 35.703125 30.796875 32.84375 31.890625 
Q 30 33 26.203125 33 
L 26.203125 40 
Q 33.203125 40 36.453125 43.546875 
Q 39.703125 47.09375 39.703125 52.203125 
Q 39.703125 54.703125 38.796875 56.953125 
Q 37.90625 59.203125 36.296875 60.796875 
Q 34.703125 62.40625 32.546875 63.34375 
Q 30.40625 64.296875 27.90625 64.296875 
Q 22 64.296875 18.796875 60.390625 
Q 15.59375 56.5 15.59375 50.703125 
L 7.90625 50.703125 
Q 7.90625 55.296875 9.296875 59.09375 
Q 10.703125 62.90625 13.296875 65.65625 
Q 15.90625 68.40625 19.59375 69.953125 
Q 23.296875 71.5 27.90625 71.5 
Q 31.90625 71.5 35.453125 70 
Q 39 68.5 41.640625 65.84375 
Q 44.296875 63.203125 45.84375 59.703125 
Q 47.40625 56.203125 47.40625 52.203125 
Q 47.40625 47 44.953125 42.796875 
Q 42.5 38.59375 38.40625 36.59375 
Q 43.203125 34.40625 46.046875 29.75 
Q 48.90625 25.09375 48.90625 19.203125 
Q 48.90625 14.90625 47.25 11.15625 
Q 45.59375 7.40625 42.75 4.59375 
Q 39.90625 1.796875 36.09375 0.140625 
Q 32.296875 -1.5 27.90625 -1.5 
Q 23.40625 -1.5 19.453125 0.203125 
Q 15.5 1.90625 12.59375 4.90625 
Q 9.703125 7.90625 8.046875 12 
Q 6.40625 16.09375 6.40625 21 
z
" id="AUPassata-Regular-51"/>
      </defs>
      <g style="fill:#262626;" transform="translate(211.353385 239.161458)scale(0.1375 -0.1375)">
       <use xlink:href="#AUPassata-Regular-51"/>
      </g>
     </g>
    </g>
    <g id="xtick_5">
     <g id="text_5">
      <!-- 4 -->
      <defs>
       <path d="M 32.703125 70 
L 41.5 70 
L 15.203125 25.5 
L 41.5 25.5 
L 41.5 50 
L 49 50 
L 49 0 
L 41.5 0 
L 41.5 18.5 
L 2.90625 18.5 
z
" id="AUPassata-Regular-52"/>
      </defs>
      <g style="fill:#262626;" transform="translate(241.758594 239.161458)scale(0.1375 -0.1375)">
       <use xlink:href="#AUPassata-Regular-52"/>
      </g>
     </g>
    </g>
    <g id="xtick_6">
     <g id="text_6">
      <!-- 5 -->
      <defs>
       <path d="M 13.59375 21 
Q 13.59375 17.796875 14.6875 15 
Q 15.796875 12.203125 17.75 10.140625 
Q 19.703125 8.09375 22.453125 6.890625 
Q 25.203125 5.703125 28.40625 5.703125 
Q 31.59375 5.703125 34.34375 6.890625 
Q 37.09375 8.09375 39.046875 10.140625 
Q 41 12.203125 42.09375 15 
Q 43.203125 17.796875 43.203125 21 
Q 43.203125 24.203125 42.09375 27.046875 
Q 41 29.90625 39.046875 32 
Q 37.09375 34.09375 34.34375 35.296875 
Q 31.59375 36.5 28.40625 36.5 
Q 26.703125 36.5 24.890625 36.140625 
Q 23.09375 35.796875 21.34375 35.1875 
Q 19.59375 34.59375 18.046875 33.75 
Q 16.5 32.90625 15.5 31.796875 
L 8.703125 31.796875 
L 12.40625 70 
L 45.90625 70 
L 45.90625 63 
L 19.203125 63 
L 17 40.09375 
Q 19.5 41.59375 22.34375 42.546875 
Q 25.203125 43.5 28.40625 43.5 
Q 33 43.5 37.09375 41.75 
Q 41.203125 40 44.296875 36.890625 
Q 47.40625 33.796875 49.15625 29.6875 
Q 50.90625 25.59375 50.90625 21 
Q 50.90625 16.296875 49.15625 12.25 
Q 47.40625 8.203125 44.296875 5.09375 
Q 41.203125 2 37.09375 0.25 
Q 33 -1.5 28.40625 -1.5 
Q 23.703125 -1.5 19.640625 0.25 
Q 15.59375 2 12.5 5.09375 
Q 9.40625 8.203125 7.65625 12.25 
Q 5.90625 16.296875 5.90625 21 
z
" id="AUPassata-Regular-53"/>
      </defs>
      <g style="fill:#262626;" transform="translate(272.163802 239.161458)scale(0.1375 -0.1375)">
       <use xlink:href="#AUPassata-Regular-53"/>
      </g>
     </g>
    </g>
    <g id="xtick_7">
     <g id="text_7">
      <!-- 6 -->
      <defs>
       <path d="M 31.09375 70 
L 39.90625 70 
L 23.5 42.59375 
Q 24.59375 43 25.890625 43.25 
Q 27.203125 43.5 28.796875 43.5 
Q 33.40625 43.5 37.5 41.75 
Q 41.59375 40 44.6875 36.890625 
Q 47.796875 33.796875 49.546875 29.6875 
Q 51.296875 25.59375 51.296875 21 
Q 51.296875 16.296875 49.546875 12.25 
Q 47.796875 8.203125 44.6875 5.09375 
Q 41.59375 2 37.5 0.25 
Q 33.40625 -1.5 28.796875 -1.5 
Q 24.09375 -1.5 20.046875 0.25 
Q 16 2 12.890625 5.09375 
Q 9.796875 8.203125 8.046875 12.25 
Q 6.296875 16.296875 6.296875 21 
Q 6.296875 27.40625 9.59375 32.703125 
z
M 28.796875 5.703125 
Q 32 5.703125 34.75 6.890625 
Q 37.5 8.09375 39.453125 10.140625 
Q 41.40625 12.203125 42.5 15 
Q 43.59375 17.796875 43.59375 21 
Q 43.59375 24.203125 42.5 27.046875 
Q 41.40625 29.90625 39.453125 32 
Q 37.5 34.09375 34.75 35.296875 
Q 32 36.5 28.796875 36.5 
Q 25.59375 36.5 22.84375 35.296875 
Q 20.09375 34.09375 18.140625 32 
Q 16.203125 29.90625 15.09375 27.046875 
Q 14 24.203125 14 21 
Q 14 17.796875 15.09375 15 
Q 16.203125 12.203125 18.140625 10.140625 
Q 20.09375 8.09375 22.84375 6.890625 
Q 25.59375 5.703125 28.796875 5.703125 
z
" id="AUPassata-Regular-54"/>
      </defs>
      <g style="fill:#262626;" transform="translate(302.56901 239.161458)scale(0.1375 -0.1375)">
       <use xlink:href="#AUPassata-Regular-54"/>
      </g>
     </g>
    </g>
    <g id="xtick_8">
     <g id="text_8">
      <!-- 7 -->
      <defs>
       <path d="M 42.296875 63 
L 5 63 
L 5 70 
L 54.796875 70 
L 14.296875 0 
L 5.59375 0 
z
" id="AUPassata-Regular-55"/>
      </defs>
      <g style="fill:#262626;" transform="translate(332.974219 239.161458)scale(0.1375 -0.1375)">
       <use xlink:href="#AUPassata-Regular-55"/>
      </g>
     </g>
    </g>
    <g id="xtick_9">
     <g id="text_9">
      <!-- 8 -->
      <defs>
       <path d="M 16.90625 36.796875 
Q 12.703125 39.296875 10.390625 43.140625 
Q 8.09375 47 8.09375 52.203125 
Q 8.09375 56.203125 9.59375 59.703125 
Q 11.09375 63.203125 13.75 65.84375 
Q 16.40625 68.5 19.90625 70 
Q 23.40625 71.5 27.40625 71.5 
Q 31.40625 71.5 34.90625 70 
Q 38.40625 68.5 41 65.84375 
Q 43.59375 63.203125 45.09375 59.703125 
Q 46.59375 56.203125 46.59375 52.203125 
Q 46.59375 47 44.25 43.140625 
Q 41.90625 39.296875 37.796875 36.796875 
Q 42.59375 34.203125 45.34375 29.640625 
Q 48.09375 25.09375 48.09375 19.203125 
Q 48.09375 14.90625 46.4375 11.15625 
Q 44.796875 7.40625 42 4.59375 
Q 39.203125 1.796875 35.453125 0.140625 
Q 31.703125 -1.5 27.40625 -1.5 
Q 23.09375 -1.5 19.296875 0.140625 
Q 15.5 1.796875 12.703125 4.59375 
Q 9.90625 7.40625 8.25 11.15625 
Q 6.59375 14.90625 6.59375 19.203125 
Q 6.59375 25.09375 9.34375 29.640625 
Q 12.09375 34.203125 16.90625 36.796875 
z
M 27.40625 5.703125 
Q 30.203125 5.703125 32.59375 6.75 
Q 35 7.796875 36.75 9.59375 
Q 38.5 11.40625 39.5 13.84375 
Q 40.5 16.296875 40.5 19.203125 
Q 40.5 22 39.5 24.5 
Q 38.5 27 36.75 28.84375 
Q 35 30.703125 32.59375 31.75 
Q 30.203125 32.796875 27.40625 32.796875 
Q 24.5 32.796875 22.09375 31.75 
Q 19.703125 30.703125 17.953125 28.84375 
Q 16.203125 27 15.25 24.5 
Q 14.296875 22 14.296875 19.203125 
Q 14.296875 16.296875 15.25 13.84375 
Q 16.203125 11.40625 17.953125 9.59375 
Q 19.703125 7.796875 22.09375 6.75 
Q 24.5 5.703125 27.40625 5.703125 
z
M 27.40625 40.203125 
Q 29.90625 40.203125 32 41.09375 
Q 34.09375 42 35.640625 43.640625 
Q 37.203125 45.296875 38.046875 47.4375 
Q 38.90625 49.59375 38.90625 52.203125 
Q 38.90625 54.703125 38.046875 56.953125 
Q 37.203125 59.203125 35.640625 60.796875 
Q 34.09375 62.40625 32 63.34375 
Q 29.90625 64.296875 27.40625 64.296875 
Q 24.796875 64.296875 22.640625 63.34375 
Q 20.5 62.40625 19 60.796875 
Q 17.5 59.203125 16.640625 56.953125 
Q 15.796875 54.703125 15.796875 52.203125 
Q 15.796875 47.09375 19 43.640625 
Q 22.203125 40.203125 27.40625 40.203125 
z
" id="AUPassata-Regular-56"/>
      </defs>
      <g style="fill:#262626;" transform="translate(363.379427 239.161458)scale(0.1375 -0.1375)">
       <use xlink:href="#AUPassata-Regular-56"/>
      </g>
     </g>
    </g>
    <g id="xtick_10">
     <g id="text_10">
      <!-- 9 -->
      <defs>
       <path d="M 33.40625 27.296875 
Q 31 26.5 28.203125 26.5 
Q 23.5 26.5 19.453125 28.25 
Q 15.40625 30 12.296875 33.09375 
Q 9.203125 36.203125 7.453125 40.25 
Q 5.703125 44.296875 5.703125 49 
Q 5.703125 53.59375 7.453125 57.6875 
Q 9.203125 61.796875 12.296875 64.890625 
Q 15.40625 68 19.453125 69.75 
Q 23.5 71.5 28.203125 71.5 
Q 32.796875 71.5 36.890625 69.75 
Q 41 68 44.09375 64.890625 
Q 47.203125 61.796875 48.953125 57.6875 
Q 50.703125 53.59375 50.703125 49 
Q 50.703125 42.59375 47.40625 37.296875 
L 25.90625 0 
L 17.09375 0 
z
M 28.203125 33.5 
Q 31.40625 33.5 34.15625 34.703125 
Q 36.90625 35.90625 38.84375 38 
Q 40.796875 40.09375 41.890625 42.9375 
Q 43 45.796875 43 49 
Q 43 52.203125 41.890625 55 
Q 40.796875 57.796875 38.84375 59.84375 
Q 36.90625 61.90625 34.15625 63.09375 
Q 31.40625 64.296875 28.203125 64.296875 
Q 25 64.296875 22.25 63.09375 
Q 19.5 61.90625 17.546875 59.84375 
Q 15.59375 57.796875 14.5 55 
Q 13.40625 52.203125 13.40625 49 
Q 13.40625 45.796875 14.5 42.9375 
Q 15.59375 40.09375 17.546875 38 
Q 19.5 35.90625 22.25 34.703125 
Q 25 33.5 28.203125 33.5 
z
" id="AUPassata-Regular-57"/>
      </defs>
      <g style="fill:#262626;" transform="translate(393.784635 239.161458)scale(0.1375 -0.1375)">
       <use xlink:href="#AUPassata-Regular-57"/>
      </g>
     </g>
    </g>
    <g id="xtick_11">
     <g id="text_11">
      <!-- 10 -->
      <g style="fill:#262626;" transform="translate(420.271094 239.161458)scale(0.1375 -0.1375)">
       <use xlink:href="#AUPassata-Regular-49"/>
       <use x="56.999985" xlink:href="#AUPassata-Regular-48"/>
      </g>
     </g>
    </g>
    <g id="xtick_12">
     <g id="text_12">
      <!-- 11 -->
      <g style="fill:#262626;" transform="translate(450.676302 239.161458)scale(0.1375 -0.1375)">
       <use xlink:href="#AUPassata-Regular-49"/>
       <use x="56.999985" xlink:href="#AUPassata-Regular-49"/>
      </g>
     </g>
    </g>
    <g id="xtick_13">
     <g id="text_13">
      <!-- 12 -->
      <g style="fill:#262626;" transform="translate(481.08151 239.161458)scale(0.1375 -0.1375)">
       <use xlink:href="#AUPassata-Regular-49"/>
       <use x="56.999985" xlink:href="#AUPassata-Regular-50"/>
      </g>
     </g>
    </g>
    <g id="xtick_14">
     <g id="text_14">
      <!-- 13 -->
      <g style="fill:#262626;" transform="translate(511.486719 239.161458)scale(0.1375 -0.1375)">
       <use xlink:href="#AUPassata-Regular-49"/>
       <use x="56.999985" xlink:href="#AUPassata-Regular-51"/>
      </g>
     </g>
    </g>
    <g id="xtick_15">
     <g id="text_15">
      <!-- 14 -->
      <g style="fill:#262626;" transform="translate(541.891927 239.161458)scale(0.1375 -0.1375)">
       <use xlink:href="#AUPassata-Regular-49"/>
       <use x="56.999985" xlink:href="#AUPassata-Regular-52"/>
      </g>
     </g>
    </g>
    <g id="xtick_16">
     <g id="text_16">
      <!-- 15 -->
      <g style="fill:#262626;" transform="translate(572.297135 239.161458)scale(0.1375 -0.1375)">
       <use xlink:href="#AUPassata-Regular-49"/>
       <use x="56.999985" xlink:href="#AUPassata-Regular-53"/>
      </g>
     </g>
    </g>
    <g id="xtick_17">
     <g id="text_17">
      <!-- 16 -->
      <g style="fill:#262626;" transform="translate(602.702344 239.161458)scale(0.1375 -0.1375)">
       <use xlink:href="#AUPassata-Regular-49"/>
       <use x="56.999985" xlink:href="#AUPassata-Regular-54"/>
      </g>
     </g>
    </g>
    <g id="xtick_18">
     <g id="text_18">
      <!-- 17 -->
      <g style="fill:#262626;" transform="translate(633.107552 239.161458)scale(0.1375 -0.1375)">
       <use xlink:href="#AUPassata-Regular-49"/>
       <use x="56.999985" xlink:href="#AUPassata-Regular-55"/>
      </g>
     </g>
    </g>
    <g id="xtick_19">
     <g id="text_19">
      <!-- 18 -->
      <g style="fill:#262626;" transform="translate(663.51276 239.161458)scale(0.1375 -0.1375)">
       <use xlink:href="#AUPassata-Regular-49"/>
       <use x="56.999985" xlink:href="#AUPassata-Regular-56"/>
      </g>
     </g>
    </g>
    <g id="xtick_20">
     <g id="text_20">
      <!-- 19 -->
      <g style="fill:#262626;" transform="translate(693.917969 239.161458)scale(0.1375 -0.1375)">
       <use xlink:href="#AUPassata-Regular-49"/>
       <use x="56.999985" xlink:href="#AUPassata-Regular-57"/>
      </g>
     </g>
    </g>
    <g id="xtick_21">
     <g id="text_21">
      <!-- 20 -->
      <g style="fill:#262626;" transform="translate(724.323177 239.161458)scale(0.1375 -0.1375)">
       <use xlink:href="#AUPassata-Regular-50"/>
       <use x="56.999985" xlink:href="#AUPassata-Regular-48"/>
      </g>
     </g>
    </g>
    <g id="xtick_22">
     <g id="text_22">
      <!-- 21 -->
      <g style="fill:#262626;" transform="translate(754.728385 239.161458)scale(0.1375 -0.1375)">
       <use xlink:href="#AUPassata-Regular-50"/>
       <use x="56.999985" xlink:href="#AUPassata-Regular-49"/>
      </g>
     </g>
    </g>
    <g id="xtick_23">
     <g id="text_23">
      <!-- 22 -->
      <g style="fill:#262626;" transform="translate(785.133594 239.161458)scale(0.1375 -0.1375)">
       <use xlink:href="#AUPassata-Regular-50"/>
       <use x="56.999985" xlink:href="#AUPassata-Regular-50"/>
      </g>
     </g>
    </g>
    <g id="xtick_24">
     <g id="text_24">
      <!-- 23 -->
      <g style="fill:#262626;" transform="translate(815.538802 239.161458)scale(0.1375 -0.1375)">
       <use xlink:href="#AUPassata-Regular-50"/>
       <use x="56.999985" xlink:href="#AUPassata-Regular-51"/>
      </g>
     </g>
    </g>
    <g id="text_25">
     <!-- Hour of day -->
     <defs>
      <path d="M 7.40625 70 
L 14.90625 70 
L 14.90625 40 
L 51.90625 40 
L 51.90625 70 
L 59.40625 70 
L 59.40625 0 
L 51.90625 0 
L 51.90625 33 
L 14.90625 33 
L 14.90625 0 
L 7.40625 0 
z
" id="AUPassata-Regular-72"/>
      <path d="M 3 25 
Q 3 30.40625 5.046875 35.15625 
Q 7.09375 39.90625 10.59375 43.40625 
Q 14.09375 46.90625 18.84375 48.953125 
Q 23.59375 51 29 51 
Q 34.40625 51 39.15625 48.953125 
Q 43.90625 46.90625 47.40625 43.40625 
Q 50.90625 39.90625 52.953125 35.15625 
Q 55 30.40625 55 25 
Q 55 19.59375 52.953125 14.84375 
Q 50.90625 10.09375 47.40625 6.59375 
Q 43.90625 3.09375 39.15625 1.046875 
Q 34.40625 -1 29 -1 
Q 23.59375 -1 18.84375 1.046875 
Q 14.09375 3.09375 10.59375 6.59375 
Q 7.09375 10.09375 5.046875 14.84375 
Q 3 19.59375 3 25 
z
M 29 6.09375 
Q 33 6.09375 36.34375 7.546875 
Q 39.703125 9 42.203125 11.546875 
Q 44.703125 14.09375 46.09375 17.546875 
Q 47.5 21 47.5 25 
Q 47.5 29 46.09375 32.453125 
Q 44.703125 35.90625 42.203125 38.453125 
Q 39.703125 41 36.34375 42.453125 
Q 33 43.90625 29 43.90625 
Q 25 43.90625 21.59375 42.453125 
Q 18.203125 41 15.75 38.453125 
Q 13.296875 35.90625 11.890625 32.453125 
Q 10.5 29 10.5 25 
Q 10.5 21 11.890625 17.546875 
Q 13.296875 14.09375 15.75 11.546875 
Q 18.203125 9 21.59375 7.546875 
Q 25 6.09375 29 6.09375 
z
" id="AUPassata-Regular-111"/>
      <path d="M 6.5 50 
L 13.796875 50 
L 13.796875 22.296875 
Q 13.796875 13.703125 16.890625 9.953125 
Q 20 6.203125 26.5 6.203125 
Q 29.09375 6.203125 31.4375 7.046875 
Q 33.796875 7.90625 35.75 9.25 
Q 37.703125 10.59375 39.25 12.1875 
Q 40.796875 13.796875 41.703125 15.40625 
L 41.703125 50 
L 48.90625 50 
L 48.90625 0 
L 41.703125 0 
L 41.703125 6.5 
Q 38.703125 2.90625 34.59375 0.953125 
Q 30.5 -1 26 -1 
Q 21.59375 -1 18 0.296875 
Q 14.40625 1.59375 11.84375 4.296875 
Q 9.296875 7 7.890625 11.140625 
Q 6.5 15.296875 6.5 20.90625 
z
" id="AUPassata-Regular-117"/>
      <path d="M 6.5 50 
L 13.703125 50 
L 13.703125 42.5 
Q 15.703125 45.703125 18.796875 47.84375 
Q 21.90625 50 26.40625 50 
L 28.40625 50 
L 28.40625 42.796875 
L 26.40625 42.796875 
Q 21.90625 42.796875 18.703125 40.09375 
Q 15.5 37.40625 13.703125 32.59375 
L 13.703125 0 
L 6.5 0 
z
" id="AUPassata-Regular-114"/>
      <path id="AUPassata-Regular-32"/>
      <path d="M 10 43.203125 
L 3 43.203125 
L 3 50 
L 10 50 
L 10 53.796875 
Q 10 62.5 14.09375 66.25 
Q 18.203125 70 25.203125 70 
L 27.203125 70 
L 27.203125 63.203125 
L 25.203125 63.203125 
Q 21.296875 63.203125 19.25 61 
Q 17.203125 58.796875 17.203125 53.296875 
L 17.203125 50 
L 27.203125 50 
L 27.203125 43.203125 
L 17.203125 43.203125 
L 17.203125 0 
L 10 0 
z
" id="AUPassata-Regular-102"/>
      <path d="M 46.59375 6.5 
Q 39.59375 -1 29.59375 -1 
Q 24.203125 -1 19.453125 1.046875 
Q 14.703125 3.09375 11.203125 6.59375 
Q 7.703125 10.09375 5.640625 14.84375 
Q 3.59375 19.59375 3.59375 25 
Q 3.59375 30.40625 5.640625 35.15625 
Q 7.703125 39.90625 11.203125 43.40625 
Q 14.703125 46.90625 19.453125 48.953125 
Q 24.203125 51 29.59375 51 
Q 39.59375 51 46.59375 43.5 
L 46.59375 70 
L 53.796875 70 
L 53.796875 0 
L 46.59375 0 
z
M 46.59375 34.59375 
Q 45.5 36.203125 43.75 37.890625 
Q 42 39.59375 39.84375 41 
Q 37.703125 42.40625 35.09375 43.296875 
Q 32.5 44.203125 29.59375 44.203125 
Q 25.59375 44.203125 22.1875 42.703125 
Q 18.796875 41.203125 16.296875 38.59375 
Q 13.796875 36 12.390625 32.5 
Q 11 29 11 25 
Q 11 21 12.390625 17.5 
Q 13.796875 14 16.296875 11.390625 
Q 18.796875 8.796875 22.1875 7.296875 
Q 25.59375 5.796875 29.59375 5.796875 
Q 32.5 5.796875 35.09375 6.640625 
Q 37.703125 7.5 39.84375 8.84375 
Q 42 10.203125 43.75 11.953125 
Q 45.5 13.703125 46.59375 15.40625 
z
" id="AUPassata-Regular-100"/>
      <path d="M 46.59375 6.5 
Q 39.59375 -1 29.59375 -1 
Q 24.203125 -1 19.453125 1.046875 
Q 14.703125 3.09375 11.203125 6.59375 
Q 7.703125 10.09375 5.640625 14.84375 
Q 3.59375 19.59375 3.59375 25 
Q 3.59375 30.40625 5.640625 35.15625 
Q 7.703125 39.90625 11.203125 43.40625 
Q 14.703125 46.90625 19.453125 48.953125 
Q 24.203125 51 29.59375 51 
Q 39.59375 51 46.59375 43.5 
L 46.59375 50 
L 53.796875 50 
L 53.796875 0 
L 46.59375 0 
z
M 46.59375 34.59375 
Q 45.5 36.203125 43.75 37.890625 
Q 42 39.59375 39.84375 41 
Q 37.703125 42.40625 35.09375 43.296875 
Q 32.5 44.203125 29.59375 44.203125 
Q 25.59375 44.203125 22.1875 42.703125 
Q 18.796875 41.203125 16.296875 38.59375 
Q 13.796875 36 12.390625 32.5 
Q 11 29 11 25 
Q 11 21 12.390625 17.5 
Q 13.796875 14 16.296875 11.390625 
Q 18.796875 8.796875 22.1875 7.296875 
Q 25.59375 5.796875 29.59375 5.796875 
Q 32.5 5.796875 35.09375 6.640625 
Q 37.703125 7.5 39.84375 8.84375 
Q 42 10.203125 43.75 11.953125 
Q 45.5 13.703125 46.59375 15.40625 
z
" id="AUPassata-Regular-97"/>
      <path d="M 4.09375 -13.203125 
L 6.09375 -13.203125 
Q 7.5 -13.203125 8.75 -13.046875 
Q 10 -12.90625 11.140625 -12.25 
Q 12.296875 -11.59375 13.390625 -10.25 
Q 14.5 -8.90625 15.703125 -6.5 
L 21.90625 6.09375 
L 0 50 
L 8.203125 50 
L 25.796875 14.09375 
L 42.59375 50 
L 50.40625 50 
L 21.703125 -9.59375 
Q 19.796875 -13.5 18 -15.59375 
Q 16.203125 -17.703125 14.296875 -18.640625 
Q 12.40625 -19.59375 10.34375 -19.796875 
Q 8.296875 -20 6.09375 -20 
L 4.09375 -20 
z
" id="AUPassata-Regular-121"/>
     </defs>
     <g style="fill:#262626;" transform="translate(435.031641 256.411458)scale(0.15 -0.15)">
      <use xlink:href="#AUPassata-Regular-72"/>
      <use x="66.799988" xlink:href="#AUPassata-Regular-111"/>
      <use x="124.799973" xlink:href="#AUPassata-Regular-117"/>
      <use x="180.199966" xlink:href="#AUPassata-Regular-114"/>
      <use x="209.59996" xlink:href="#AUPassata-Regular-32"/>
      <use x="233.599945" xlink:href="#AUPassata-Regular-111"/>
      <use x="291.584305" xlink:href="#AUPassata-Regular-102"/>
      <use x="320.784302" xlink:href="#AUPassata-Regular-32"/>
      <use x="344.784286" xlink:href="#AUPassata-Regular-100"/>
      <use x="405.084274" xlink:href="#AUPassata-Regular-97"/>
      <use x="465.384262" xlink:href="#AUPassata-Regular-121"/>
     </g>
    </g>
   </g>
   <g id="matplotlib.axis_2">
    <g id="ytick_1">
     <g id="text_26">
      <!-- Monday -->
      <defs>
       <path d="M 7.40625 72.5 
L 38.90625 35.5 
L 70.296875 72.5 
L 70.296875 0 
L 62.796875 0 
L 62.796875 53.09375 
L 38.90625 24.90625 
L 14.90625 53.203125 
L 14.90625 0 
L 7.40625 0 
z
" id="AUPassata-Regular-77"/>
       <path d="M 6.5 50 
L 13.703125 50 
L 13.703125 43.5 
Q 16.703125 47.09375 21.203125 49.046875 
Q 25.703125 51 29.90625 51 
Q 39.703125 51 45.34375 45.703125 
Q 51 40.40625 51 29.09375 
L 51 0 
L 43.703125 0 
L 43.703125 27.703125 
Q 43.703125 36.296875 40 40.046875 
Q 36.296875 43.796875 29.40625 43.796875 
Q 27 43.796875 24.59375 42.9375 
Q 22.203125 42.09375 20.09375 40.75 
Q 18 39.40625 16.296875 37.796875 
Q 14.59375 36.203125 13.703125 34.59375 
L 13.703125 0 
L 6.5 0 
z
" id="AUPassata-Regular-110"/>
      </defs>
      <g style="fill:#262626;" transform="translate(49.413477 27.386979)scale(0.1375 -0.1375)">
       <use xlink:href="#AUPassata-Regular-77"/>
       <use x="77.699982" xlink:href="#AUPassata-Regular-111"/>
       <use x="135.699966" xlink:href="#AUPassata-Regular-110"/>
       <use x="192.199951" xlink:href="#AUPassata-Regular-100"/>
       <use x="252.499939" xlink:href="#AUPassata-Regular-97"/>
       <use x="312.799927" xlink:href="#AUPassata-Regular-121"/>
      </g>
     </g>
    </g>
    <g id="ytick_2">
     <g id="text_27">
      <!-- Tuesday -->
      <defs>
       <path d="M 1 70 
L 49.5 70 
L 49.5 63 
L 29 63 
L 29 0 
L 21.5 0 
L 21.5 63 
L 1 63 
z
" id="AUPassata-Regular-84"/>
       <path d="M 52.796875 13 
Q 51.203125 9.90625 48.703125 7.296875 
Q 46.203125 4.703125 43.140625 2.84375 
Q 40.09375 1 36.546875 0 
Q 33 -1 29.203125 -1 
Q 23.796875 -1 19.140625 1.046875 
Q 14.5 3.09375 11.09375 6.59375 
Q 7.703125 10.09375 5.75 14.84375 
Q 3.796875 19.59375 3.796875 25 
Q 3.796875 30.40625 5.75 35.15625 
Q 7.703125 39.90625 11.09375 43.40625 
Q 14.5 46.90625 19.140625 48.953125 
Q 23.796875 51 29.203125 51 
Q 35 51 39.796875 48.890625 
Q 44.59375 46.796875 48 43 
Q 51.40625 39.203125 53.296875 33.75 
Q 55.203125 28.296875 55.203125 21.59375 
L 11.5 21.59375 
Q 12.09375 18.203125 13.59375 15.34375 
Q 15.09375 12.5 17.34375 10.390625 
Q 19.59375 8.296875 22.59375 7.09375 
Q 25.59375 5.90625 29.203125 5.90625 
Q 33.796875 5.90625 37.75 7.796875 
Q 41.703125 9.703125 44.296875 13 
z
M 47.203125 28.40625 
Q 46.90625 31.703125 45.34375 34.59375 
Q 43.796875 37.5 41.390625 39.59375 
Q 39 41.703125 35.84375 42.890625 
Q 32.703125 44.09375 29.203125 44.09375 
Q 25.59375 44.09375 22.59375 42.890625 
Q 19.59375 41.703125 17.34375 39.59375 
Q 15.09375 37.5 13.59375 34.59375 
Q 12.09375 31.703125 11.5 28.40625 
z
" id="AUPassata-Regular-101"/>
       <path d="M 10.5 13 
Q 10.703125 9.5 13.140625 7.640625 
Q 15.59375 5.796875 19.40625 5.796875 
Q 23.59375 5.796875 26.046875 7.890625 
Q 28.5 10 28.5 14.203125 
Q 28.5 15.90625 27.75 17.09375 
Q 27 18.296875 25.75 19.1875 
Q 24.5 20.09375 22.84375 20.796875 
Q 21.203125 21.5 19.40625 22.203125 
Q 16.90625 23.09375 14.34375 24.140625 
Q 11.796875 25.203125 9.6875 26.796875 
Q 7.59375 28.40625 6.296875 30.796875 
Q 5 33.203125 5 36.796875 
Q 5 40.09375 6.09375 42.75 
Q 7.203125 45.40625 9.203125 47.203125 
Q 11.203125 49 13.890625 50 
Q 16.59375 51 19.90625 51 
Q 26.5 51 30.34375 47.5 
Q 34.203125 44 34.59375 38 
L 27.40625 38 
Q 27.09375 40.59375 25.1875 42.390625 
Q 23.296875 44.203125 19.90625 44.203125 
Q 16.40625 44.203125 14.40625 42.25 
Q 12.40625 40.296875 12.40625 36.796875 
Q 12.40625 35 13.25 33.75 
Q 14.09375 32.5 15.546875 31.59375 
Q 17 30.703125 18.84375 29.953125 
Q 20.703125 29.203125 22.703125 28.5 
Q 25 27.59375 27.34375 26.546875 
Q 29.703125 25.5 31.59375 23.953125 
Q 33.5 22.40625 34.703125 20.046875 
Q 35.90625 17.703125 35.90625 14.203125 
Q 35.90625 7 31.25 3 
Q 26.59375 -1 19.40625 -1 
Q 12.5 -1 8.09375 2.703125 
Q 3.703125 6.40625 3.203125 13 
z
" id="AUPassata-Regular-115"/>
      </defs>
      <g style="fill:#262626;" transform="translate(47.842969 57.620312)scale(0.1375 -0.1375)">
       <use xlink:href="#AUPassata-Regular-84"/>
       <use x="50.42186" xlink:href="#AUPassata-Regular-117"/>
       <use x="105.821854" xlink:href="#AUPassata-Regular-101"/>
       <use x="164.021851" xlink:href="#AUPassata-Regular-115"/>
       <use x="203.621841" xlink:href="#AUPassata-Regular-100"/>
       <use x="263.921829" xlink:href="#AUPassata-Regular-97"/>
       <use x="324.221817" xlink:href="#AUPassata-Regular-121"/>
      </g>
     </g>
    </g>
    <g id="ytick_3">
     <g id="text_28">
      <!-- Wednesday -->
      <defs>
       <path d="M 0.203125 70 
L 8.796875 70 
L 29.703125 16.203125 
L 49.90625 72 
L 71.40625 16.09375 
L 90.796875 70 
L 99 70 
L 71.296875 -3.5 
L 49.796875 51.203125 
L 29.5 -3.5 
z
" id="AUPassata-Regular-87"/>
      </defs>
      <g style="fill:#262626;" transform="translate(24.7 88.163021)scale(0.1375 -0.1375)">
       <use xlink:href="#AUPassata-Regular-87"/>
       <use x="99.137482" xlink:href="#AUPassata-Regular-101"/>
       <use x="157.337479" xlink:href="#AUPassata-Regular-100"/>
       <use x="217.637466" xlink:href="#AUPassata-Regular-110"/>
       <use x="274.137451" xlink:href="#AUPassata-Regular-101"/>
       <use x="332.337448" xlink:href="#AUPassata-Regular-115"/>
       <use x="371.937439" xlink:href="#AUPassata-Regular-100"/>
       <use x="432.237427" xlink:href="#AUPassata-Regular-97"/>
       <use x="492.537415" xlink:href="#AUPassata-Regular-121"/>
      </g>
     </g>
    </g>
    <g id="ytick_4">
     <g id="text_29">
      <!-- Thursday -->
      <defs>
       <path d="M 6.5 70 
L 13.703125 70 
L 13.703125 43.5 
Q 16.703125 47.09375 21.203125 49.046875 
Q 25.703125 51 29.90625 51 
Q 39.703125 51 45.296875 45.703125 
Q 50.90625 40.40625 50.90625 29.09375 
L 50.90625 0 
L 43.59375 0 
L 43.59375 27.703125 
Q 43.59375 36.296875 39.9375 40.046875 
Q 36.296875 43.796875 29.40625 43.796875 
Q 27 43.796875 24.59375 42.9375 
Q 22.203125 42.09375 20.09375 40.75 
Q 18 39.40625 16.296875 37.796875 
Q 14.59375 36.203125 13.703125 34.59375 
L 13.703125 0 
L 6.5 0 
z
" id="AUPassata-Regular-104"/>
      </defs>
      <g style="fill:#262626;" transform="translate(44.023047 118.430729)scale(0.1375 -0.1375)">
       <use xlink:href="#AUPassata-Regular-84"/>
       <use x="50.499985" xlink:href="#AUPassata-Regular-104"/>
       <use x="106.999969" xlink:href="#AUPassata-Regular-117"/>
       <use x="162.399963" xlink:href="#AUPassata-Regular-114"/>
       <use x="191.799957" xlink:href="#AUPassata-Regular-115"/>
       <use x="231.399948" xlink:href="#AUPassata-Regular-100"/>
       <use x="291.699936" xlink:href="#AUPassata-Regular-97"/>
       <use x="351.999924" xlink:href="#AUPassata-Regular-121"/>
      </g>
     </g>
    </g>
    <g id="ytick_5">
     <g id="text_30">
      <!-- Friday -->
      <defs>
       <path d="M 7.40625 70 
L 47.40625 70 
L 47.40625 63 
L 14.90625 63 
L 14.90625 40 
L 44.40625 40 
L 44.40625 33 
L 14.90625 33 
L 14.90625 0 
L 7.40625 0 
z
" id="AUPassata-Regular-70"/>
       <path d="M 7.59375 50 
L 14.796875 50 
L 14.796875 0 
L 7.59375 0 
z
M 7.59375 70 
L 14.796875 70 
L 14.796875 61.796875 
L 7.59375 61.796875 
z
" id="AUPassata-Regular-105"/>
      </defs>
      <g style="fill:#262626;" transform="translate(61.653125 148.835937)scale(0.1375 -0.1375)">
       <use xlink:href="#AUPassata-Regular-70"/>
       <use x="51.368744" xlink:href="#AUPassata-Regular-114"/>
       <use x="80.768738" xlink:href="#AUPassata-Regular-105"/>
       <use x="103.168732" xlink:href="#AUPassata-Regular-100"/>
       <use x="163.468719" xlink:href="#AUPassata-Regular-97"/>
       <use x="223.768707" xlink:href="#AUPassata-Regular-121"/>
      </g>
     </g>
    </g>
    <g id="ytick_6">
     <g id="text_31">
      <!-- Saturday -->
      <defs>
       <path d="M 11.40625 20.5 
Q 11.40625 17.296875 12.453125 14.546875 
Q 13.5 11.796875 15.390625 9.796875 
Q 17.296875 7.796875 19.9375 6.640625 
Q 22.59375 5.5 25.90625 5.5 
Q 29.203125 5.5 31.953125 6.546875 
Q 34.703125 7.59375 36.703125 9.5 
Q 38.703125 11.40625 39.796875 13.953125 
Q 40.90625 16.5 40.90625 19.5 
Q 40.90625 22.296875 39.703125 24.390625 
Q 38.5 26.5 36.5 28.046875 
Q 34.5 29.59375 31.84375 30.84375 
Q 29.203125 32.09375 26.40625 33.203125 
Q 22.5 34.703125 18.890625 36.25 
Q 15.296875 37.796875 12.546875 40 
Q 9.796875 42.203125 8.09375 45.25 
Q 6.40625 48.296875 6.40625 53 
Q 6.40625 56.90625 7.84375 60.296875 
Q 9.296875 63.703125 11.84375 66.203125 
Q 14.40625 68.703125 18 70.09375 
Q 21.59375 71.5 25.90625 71.5 
Q 30.296875 71.5 33.9375 70 
Q 37.59375 68.5 40.1875 65.890625 
Q 42.796875 63.296875 44.1875 59.75 
Q 45.59375 56.203125 45.59375 52 
L 37.90625 52 
Q 37.90625 57.703125 34.546875 61.09375 
Q 31.203125 64.5 25.90625 64.5 
Q 20.59375 64.5 17.25 61.34375 
Q 13.90625 58.203125 13.90625 53 
Q 13.90625 50.203125 15.203125 48.25 
Q 16.5 46.296875 18.59375 44.84375 
Q 20.703125 43.40625 23.453125 42.25 
Q 26.203125 41.09375 29.203125 39.90625 
Q 33 38.40625 36.453125 36.796875 
Q 39.90625 35.203125 42.546875 32.953125 
Q 45.203125 30.703125 46.796875 27.5 
Q 48.40625 24.296875 48.40625 19.5 
Q 48.40625 14.796875 46.65625 10.9375 
Q 44.90625 7.09375 41.84375 4.296875 
Q 38.796875 1.5 34.6875 0 
Q 30.59375 -1.5 25.90625 -1.5 
Q 21.203125 -1.5 17.203125 0.140625 
Q 13.203125 1.796875 10.25 4.75 
Q 7.296875 7.703125 5.59375 11.703125 
Q 3.90625 15.703125 3.90625 20.5 
z
" id="AUPassata-Regular-83"/>
       <path d="M 8 63.09375 
L 15.203125 63.09375 
L 15.203125 50 
L 25.203125 50 
L 25.203125 43.203125 
L 15.203125 43.203125 
L 15.203125 16.703125 
Q 15.203125 11.203125 17.25 9 
Q 19.296875 6.796875 23.203125 6.796875 
L 25.203125 6.796875 
L 25.203125 0 
L 23.203125 0 
Q 16.203125 0 12.09375 3.75 
Q 8 7.5 8 16.203125 
L 8 43.203125 
L 1 43.203125 
L 1 50 
L 8 50 
z
" id="AUPassata-Regular-116"/>
      </defs>
      <g style="fill:#262626;" transform="translate(44.824414 179.344271)scale(0.1375 -0.1375)">
       <use xlink:href="#AUPassata-Regular-83"/>
       <use x="52.299988" xlink:href="#AUPassata-Regular-97"/>
       <use x="112.599976" xlink:href="#AUPassata-Regular-116"/>
       <use x="140.799973" xlink:href="#AUPassata-Regular-117"/>
       <use x="196.199966" xlink:href="#AUPassata-Regular-114"/>
       <use x="225.56871" xlink:href="#AUPassata-Regular-100"/>
       <use x="285.868698" xlink:href="#AUPassata-Regular-97"/>
       <use x="346.168686" xlink:href="#AUPassata-Regular-121"/>
      </g>
     </g>
    </g>
    <g id="ytick_7">
     <g id="text_32">
      <!-- Sunday -->
      <g style="fill:#262626;" transform="translate(53.263477 209.749479)scale(0.1375 -0.1375)">
       <use xlink:href="#AUPassata-Regular-83"/>
       <use x="52.299988" xlink:href="#AUPassata-Regular-117"/>
       <use x="107.699982" xlink:href="#AUPassata-Regular-110"/>
       <use x="164.199966" xlink:href="#AUPassata-Regular-100"/>
       <use x="224.499954" xlink:href="#AUPassata-Regular-97"/>
       <use x="284.799942" xlink:href="#AUPassata-Regular-121"/>
      </g>
     </g>
    </g>
    <g id="text_33">
     <!-- Day of week -->
     <defs>
      <path d="M 7.40625 70 
L 23.796875 70 
Q 32.296875 70 39.390625 67.34375 
Q 46.5 64.703125 51.59375 60.046875 
Q 56.703125 55.40625 59.5 48.953125 
Q 62.296875 42.5 62.296875 35 
Q 62.296875 27.5 59.546875 21.046875 
Q 56.796875 14.59375 51.640625 9.9375 
Q 46.5 5.296875 39.203125 2.640625 
Q 31.90625 0 22.796875 0 
L 7.40625 0 
z
M 14.90625 63 
L 14.90625 7 
L 20.796875 7 
Q 29.296875 7 35.640625 9.09375 
Q 42 11.203125 46.25 14.953125 
Q 50.5 18.703125 52.59375 23.84375 
Q 54.703125 29 54.703125 35 
Q 54.703125 41.09375 52.59375 46.25 
Q 50.5 51.40625 46.25 55.09375 
Q 42 58.796875 35.640625 60.890625 
Q 29.296875 63 20.796875 63 
z
" id="AUPassata-Regular-68"/>
      <path d="M 0 50 
L 8 50 
L 23.90625 14.09375 
L 39.796875 51.5 
L 56.5 13.90625 
L 72.5 50 
L 80.296875 50 
L 56.59375 -1.5 
L 39.703125 35.40625 
L 23.703125 -1.5 
z
" id="AUPassata-Regular-119"/>
      <path d="M 6.5 70 
L 13.703125 70 
L 13.703125 0 
L 6.5 0 
z
M 15.203125 26.09375 
L 38.59375 50 
L 48.203125 50 
L 24.40625 26.203125 
L 50.796875 0 
L 40.59375 0 
z
" id="AUPassata-Regular-107"/>
     </defs>
     <g style="fill:#262626;" transform="translate(17.7 155.397917)rotate(-90)scale(0.15 -0.15)">
      <use xlink:href="#AUPassata-Regular-68"/>
      <use x="65.299988" xlink:href="#AUPassata-Regular-97"/>
      <use x="125.599976" xlink:href="#AUPassata-Regular-121"/>
      <use x="175.999969" xlink:href="#AUPassata-Regular-32"/>
      <use x="199.999954" xlink:href="#AUPassata-Regular-111"/>
      <use x="257.984314" xlink:href="#AUPassata-Regular-102"/>
      <use x="287.184311" xlink:href="#AUPassata-Regular-32"/>
      <use x="311.184296" xlink:href="#AUPassata-Regular-119"/>
      <use x="391.453033" xlink:href="#AUPassata-Regular-101"/>
      <use x="449.65303" xlink:href="#AUPassata-Regular-101"/>
      <use x="507.853027" xlink:href="#AUPassata-Regular-107"/>
     </g>
    </g>
   </g>
   <g id="QuadMesh_1">
    <path clip-path="url(#p1c89cbfe7a)" d="M 108.853906 7.2 
L 139.259115 7.2 
L 139.259115 37.605208 
L 108.853906 37.605208 
L 108.853906 7.2 
" style="fill:#f8eee8;"/>
    <path clip-path="url(#p1c89cbfe7a)" d="M 139.259115 7.2 
L 169.664323 7.2 
L 169.664323 37.605208 
L 139.259115 37.605208 
L 139.259115 7.2 
" style="fill:#fbf7f4;"/>
    <path clip-path="url(#p1c89cbfe7a)" d="M 169.664323 7.2 
L 200.069531 7.2 
L 200.069531 37.605208 
L 169.664323 37.605208 
L 169.664323 7.2 
" style="fill:#f4e4dd;"/>
    <path clip-path="url(#p1c89cbfe7a)" d="M 200.069531 7.2 
L 230.47474 7.2 
L 230.47474 37.605208 
L 200.069531 37.605208 
L 200.069531 7.2 
" style="fill:#f3e0d9;"/>
    <path clip-path="url(#p1c89cbfe7a)" d="M 230.47474 7.2 
L 260.879948 7.2 
L 260.879948 37.605208 
L 230.47474 37.605208 
L 230.47474 7.2 
" style="fill:#fbf7f4;"/>
    <path clip-path="url(#p1c89cbfe7a)" d="M 260.879948 7.2 
L 291.285156 7.2 
L 291.285156 37.605208 
L 260.879948 37.605208 
L 260.879948 7.2 
" style="fill:#ffffff;"/>
    <path clip-path="url(#p1c89cbfe7a)" d="M 291.285156 7.2 
L 321.690365 7.2 
L 321.690365 37.605208 
L 291.285156 37.605208 
L 291.285156 7.2 
" style="fill:#ffffff;"/>
    <path clip-path="url(#p1c89cbfe7a)" d="M 321.690365 7.2 
L 352.095573 7.2 
L 352.095573 37.605208 
L 321.690365 37.605208 
L 321.690365 7.2 
" style="fill:#ffffff;"/>
    <path clip-path="url(#p1c89cbfe7a)" d="M 352.095573 7.2 
L 382.500781 7.2 
L 382.500781 37.605208 
L 352.095573 37.605208 
L 352.095573 7.2 
" style="fill:#f6e9e2;"/>
    <path clip-path="url(#p1c89cbfe7a)" d="M 382.500781 7.2 
L 412.90599 7.2 
L 412.90599 37.605208 
L 382.500781 37.605208 
L 382.500781 7.2 
" style="fill:#eed4cd;"/>
    <path clip-path="url(#p1c89cbfe7a)" d="M 412.90599 7.2 
L 443.311198 7.2 
L 443.311198 37.605208 
L 412.90599 37.605208 
L 412.90599 7.2 
" style="fill:#e9c6c2;"/>
    <path clip-path="url(#p1c89cbfe7a)" d="M 443.311198 7.2 
L 473.716406 7.2 
L 473.716406 37.605208 
L 443.311198 37.605208 
L 443.311198 7.2 
" style="fill:#915584;"/>
    <path clip-path="url(#p1c89cbfe7a)" d="M 473.716406 7.2 
L 504.121615 7.2 
L 504.121615 37.605208 
L 473.716406 37.605208 
L 473.716406 7.2 
" style="fill:#e1b1b4;"/>
    <path clip-path="url(#p1c89cbfe7a)" d="M 504.121615 7.2 
L 534.526823 7.2 
L 534.526823 37.605208 
L 504.121615 37.605208 
L 504.121615 7.2 
" style="fill:#c2809b;"/>
    <path clip-path="url(#p1c89cbfe7a)" d="M 534.526823 7.2 
L 564.932031 7.2 
L 564.932031 37.605208 
L 534.526823 37.605208 
L 534.526823 7.2 
" style="fill:#e3b6b7;"/>
    <path clip-path="url(#p1c89cbfe7a)" d="M 564.932031 7.2 
L 595.33724 7.2 
L 595.33724 37.605208 
L 564.932031 37.605208 
L 564.932031 7.2 
" style="fill:#b67395;"/>
    <path clip-path="url(#p1c89cbfe7a)" d="M 595.33724 7.2 
L 625.742448 7.2 
L 625.742448 37.605208 
L 595.33724 37.605208 
L 595.33724 7.2 
" style="fill:#b67395;"/>
    <path clip-path="url(#p1c89cbfe7a)" d="M 625.742448 7.2 
L 656.147656 7.2 
L 656.147656 37.605208 
L 625.742448 37.605208 
L 625.742448 7.2 
" style="fill:#6b3e6f;"/>
    <path clip-path="url(#p1c89cbfe7a)" d="M 656.147656 7.2 
L 686.552865 7.2 
L 686.552865 37.605208 
L 656.147656 37.605208 
L 656.147656 7.2 
" style="fill:#814a7c;"/>
    <path clip-path="url(#p1c89cbfe7a)" d="M 686.552865 7.2 
L 716.958073 7.2 
L 716.958073 37.605208 
L 686.552865 37.605208 
L 686.552865 7.2 
" style="fill:#52315f;"/>
    <path clip-path="url(#p1c89cbfe7a)" d="M 716.958073 7.2 
L 747.363281 7.2 
L 747.363281 37.605208 
L 716.958073 37.605208 
L 716.958073 7.2 
" style="fill:#bb7797;"/>
    <path clip-path="url(#p1c89cbfe7a)" d="M 747.363281 7.2 
L 777.76849 7.2 
L 777.76849 37.605208 
L 747.363281 37.605208 
L 747.363281 7.2 
" style="fill:#c17e9a;"/>
    <path clip-path="url(#p1c89cbfe7a)" d="M 777.76849 7.2 
L 808.173698 7.2 
L 808.173698 37.605208 
L 777.76849 37.605208 
L 777.76849 7.2 
" style="fill:#b16e92;"/>
    <path clip-path="url(#p1c89cbfe7a)" d="M 808.173698 7.2 
L 838.578906 7.2 
L 838.578906 37.605208 
L 808.173698 37.605208 
L 808.173698 7.2 
" style="fill:#dfacb1;"/>
    <path clip-path="url(#p1c89cbfe7a)" d="M 108.853906 37.605208 
L 139.259115 37.605208 
L 139.259115 68.010417 
L 108.853906 68.010417 
L 108.853906 37.605208 
" style="fill:#f1dcd6;"/>
    <path clip-path="url(#p1c89cbfe7a)" d="M 139.259115 37.605208 
L 169.664323 37.605208 
L 169.664323 68.010417 
L 139.259115 68.010417 
L 139.259115 37.605208 
" style="fill:#fbf7f4;"/>
    <path clip-path="url(#p1c89cbfe7a)" d="M 169.664323 37.605208 
L 200.069531 37.605208 
L 200.069531 68.010417 
L 169.664323 68.010417 
L 169.664323 37.605208 
" style="fill:#fcf9f7;"/>
    <path clip-path="url(#p1c89cbfe7a)" d="M 200.069531 37.605208 
L 230.47474 37.605208 
L 230.47474 68.010417 
L 200.069531 68.010417 
L 200.069531 37.605208 
" style="fill:#fbf6f2;"/>
    <path clip-path="url(#p1c89cbfe7a)" d="M 230.47474 37.605208 
L 260.879948 37.605208 
L 260.879948 68.010417 
L 230.47474 68.010417 
L 230.47474 37.605208 
" style="fill:#fcf9f7;"/>
    <path clip-path="url(#p1c89cbfe7a)" d="M 260.879948 37.605208 
L 291.285156 37.605208 
L 291.285156 68.010417 
L 260.879948 68.010417 
L 260.879948 37.605208 
" style="fill:#fcf8f5;"/>
    <path clip-path="url(#p1c89cbfe7a)" d="M 291.285156 37.605208 
L 321.690365 37.605208 
L 321.690365 68.010417 
L 291.285156 68.010417 
L 291.285156 37.605208 
" style="fill:#ffffff;"/>
    <path clip-path="url(#p1c89cbfe7a)" d="M 321.690365 37.605208 
L 352.095573 37.605208 
L 352.095573 68.010417 
L 321.690365 68.010417 
L 321.690365 37.605208 
" style="fill:#fefefd;"/>
    <path clip-path="url(#p1c89cbfe7a)" d="M 352.095573 37.605208 
L 382.500781 37.605208 
L 382.500781 68.010417 
L 352.095573 68.010417 
L 352.095573 37.605208 
" style="fill:#f6eae4;"/>
    <path clip-path="url(#p1c89cbfe7a)" d="M 382.500781 37.605208 
L 412.90599 37.605208 
L 412.90599 68.010417 
L 382.500781 68.010417 
L 382.500781 37.605208 
" style="fill:#f7ece7;"/>
    <path clip-path="url(#p1c89cbfe7a)" d="M 412.90599 37.605208 
L 443.311198 37.605208 
L 443.311198 68.010417 
L 412.90599 68.010417 
L 412.90599 37.605208 
" style="fill:#c2809b;"/>
    <path clip-path="url(#p1c89cbfe7a)" d="M 443.311198 37.605208 
L 473.716406 37.605208 
L 473.716406 68.010417 
L 443.311198 68.010417 
L 443.311198 37.605208 
" style="fill:#9f5f8a;"/>
    <path clip-path="url(#p1c89cbfe7a)" d="M 473.716406 37.605208 
L 504.121615 37.605208 
L 504.121615 68.010417 
L 473.716406 68.010417 
L 473.716406 37.605208 
" style="fill:#e4b9b9;"/>
    <path clip-path="url(#p1c89cbfe7a)" d="M 504.121615 37.605208 
L 534.526823 37.605208 
L 534.526823 68.010417 
L 504.121615 68.010417 
L 504.121615 37.605208 
" style="fill:#b57294;"/>
    <path clip-path="url(#p1c89cbfe7a)" d="M 534.526823 37.605208 
L 564.932031 37.605208 
L 564.932031 68.010417 
L 534.526823 68.010417 
L 534.526823 37.605208 
" style="fill:#8c5181;"/>
    <path clip-path="url(#p1c89cbfe7a)" d="M 564.932031 37.605208 
L 595.33724 37.605208 
L 595.33724 68.010417 
L 564.932031 68.010417 
L 564.932031 37.605208 
" style="fill:#3c264d;"/>
    <path clip-path="url(#p1c89cbfe7a)" d="M 595.33724 37.605208 
L 625.742448 37.605208 
L 625.742448 68.010417 
L 595.33724 68.010417 
L 595.33724 37.605208 
" style="fill:#7c4879;"/>
    <path clip-path="url(#p1c89cbfe7a)" d="M 625.742448 37.605208 
L 656.147656 37.605208 
L 656.147656 68.010417 
L 625.742448 68.010417 
L 625.742448 37.605208 
" style="fill:#aa688f;"/>
    <path clip-path="url(#p1c89cbfe7a)" d="M 656.147656 37.605208 
L 686.552865 37.605208 
L 686.552865 68.010417 
L 656.147656 68.010417 
L 656.147656 37.605208 
" style="fill:#965886;"/>
    <path clip-path="url(#p1c89cbfe7a)" d="M 686.552865 37.605208 
L 716.958073 37.605208 
L 716.958073 68.010417 
L 686.552865 68.010417 
L 686.552865 37.605208 
" style="fill:#ba7696;"/>
    <path clip-path="url(#p1c89cbfe7a)" d="M 716.958073 37.605208 
L 747.363281 37.605208 
L 747.363281 68.010417 
L 716.958073 68.010417 
L 716.958073 37.605208 
" style="fill:#e4b9b9;"/>
    <path clip-path="url(#p1c89cbfe7a)" d="M 747.363281 37.605208 
L 777.76849 37.605208 
L 777.76849 68.010417 
L 747.363281 68.010417 
L 747.363281 37.605208 
" style="fill:#dda9af;"/>
    <path clip-path="url(#p1c89cbfe7a)" d="M 777.76849 37.605208 
L 808.173698 37.605208 
L 808.173698 68.010417 
L 777.76849 68.010417 
L 777.76849 37.605208 
" style="fill:#d9a1ab;"/>
    <path clip-path="url(#p1c89cbfe7a)" d="M 808.173698 37.605208 
L 838.578906 37.605208 
L 838.578906 68.010417 
L 808.173698 68.010417 
L 808.173698 37.605208 
" style="fill:#e7bfbd;"/>
    <path clip-path="url(#p1c89cbfe7a)" d="M 108.853906 68.010417 
L 139.259115 68.010417 
L 139.259115 98.415625 
L 108.853906 98.415625 
L 108.853906 68.010417 
" style="fill:#f1dbd4;"/>
    <path clip-path="url(#p1c89cbfe7a)" d="M 139.259115 68.010417 
L 169.664323 68.010417 
L 169.664323 98.415625 
L 139.259115 98.415625 
L 139.259115 68.010417 
" style="fill:#f3e0d9;"/>
    <path clip-path="url(#p1c89cbfe7a)" d="M 169.664323 68.010417 
L 200.069531 68.010417 
L 200.069531 98.415625 
L 169.664323 98.415625 
L 169.664323 68.010417 
" style="fill:#f9f1ec;"/>
    <path clip-path="url(#p1c89cbfe7a)" d="M 200.069531 68.010417 
L 230.47474 68.010417 
L 230.47474 98.415625 
L 200.069531 98.415625 
L 200.069531 68.010417 
" style="fill:#f7ece7;"/>
    <path clip-path="url(#p1c89cbfe7a)" d="M 230.47474 68.010417 
L 260.879948 68.010417 
L 260.879948 98.415625 
L 230.47474 98.415625 
L 230.47474 68.010417 
" style="fill:#faf2ee;"/>
    <path clip-path="url(#p1c89cbfe7a)" d="M 260.879948 68.010417 
L 291.285156 68.010417 
L 291.285156 98.415625 
L 260.879948 98.415625 
L 260.879948 68.010417 
" style="fill:#fbf7f4;"/>
    <path clip-path="url(#p1c89cbfe7a)" d="M 291.285156 68.010417 
L 321.690365 68.010417 
L 321.690365 98.415625 
L 291.285156 98.415625 
L 291.285156 68.010417 
" style="fill:#fcf9f7;"/>
    <path clip-path="url(#p1c89cbfe7a)" d="M 321.690365 68.010417 
L 352.095573 68.010417 
L 352.095573 98.415625 
L 321.690365 98.415625 
L 321.690365 68.010417 
" style="fill:#f1dcd6;"/>
    <path clip-path="url(#p1c89cbfe7a)" d="M 352.095573 68.010417 
L 382.500781 68.010417 
L 382.500781 98.415625 
L 352.095573 98.415625 
L 352.095573 68.010417 
" style="fill:#dfacb1;"/>
    <path clip-path="url(#p1c89cbfe7a)" d="M 382.500781 68.010417 
L 412.90599 68.010417 
L 412.90599 98.415625 
L 382.500781 98.415625 
L 382.500781 68.010417 
" style="fill:#c5849d;"/>
    <path clip-path="url(#p1c89cbfe7a)" d="M 412.90599 68.010417 
L 443.311198 68.010417 
L 443.311198 98.415625 
L 412.90599 98.415625 
L 412.90599 68.010417 
" style="fill:#d69ca8;"/>
    <path clip-path="url(#p1c89cbfe7a)" d="M 443.311198 68.010417 
L 473.716406 68.010417 
L 473.716406 98.415625 
L 443.311198 98.415625 
L 443.311198 68.010417 
" style="fill:#dda9af;"/>
    <path clip-path="url(#p1c89cbfe7a)" d="M 473.716406 68.010417 
L 504.121615 68.010417 
L 504.121615 98.415625 
L 473.716406 98.415625 
L 473.716406 68.010417 
" style="fill:#dca6ae;"/>
    <path clip-path="url(#p1c89cbfe7a)" d="M 504.121615 68.010417 
L 534.526823 68.010417 
L 534.526823 98.415625 
L 504.121615 98.415625 
L 504.121615 68.010417 
" style="fill:#dba5ad;"/>
    <path clip-path="url(#p1c89cbfe7a)" d="M 534.526823 68.010417 
L 564.932031 68.010417 
L 564.932031 98.415625 
L 534.526823 98.415625 
L 534.526823 68.010417 
" style="fill:#aa688f;"/>
    <path clip-path="url(#p1c89cbfe7a)" d="M 564.932031 68.010417 
L 595.33724 68.010417 
L 595.33724 98.415625 
L 564.932031 98.415625 
L 564.932031 68.010417 
" style="fill:#422952;"/>
    <path clip-path="url(#p1c89cbfe7a)" d="M 595.33724 68.010417 
L 625.742448 68.010417 
L 625.742448 98.415625 
L 595.33724 98.415625 
L 595.33724 68.010417 
" style="fill:#d59aa7;"/>
    <path clip-path="url(#p1c89cbfe7a)" d="M 625.742448 68.010417 
L 656.147656 68.010417 
L 656.147656 98.415625 
L 625.742448 98.415625 
L 625.742448 68.010417 
" style="fill:#c4829c;"/>
    <path clip-path="url(#p1c89cbfe7a)" d="M 656.147656 68.010417 
L 686.552865 68.010417 
L 686.552865 98.415625 
L 656.147656 98.415625 
L 656.147656 68.010417 
" style="fill:#e1b1b4;"/>
    <path clip-path="url(#p1c89cbfe7a)" d="M 686.552865 68.010417 
L 716.958073 68.010417 
L 716.958073 98.415625 
L 686.552865 98.415625 
L 686.552865 68.010417 
" style="fill:#e0b0b3;"/>
    <path clip-path="url(#p1c89cbfe7a)" d="M 716.958073 68.010417 
L 747.363281 68.010417 
L 747.363281 98.415625 
L 716.958073 98.415625 
L 716.958073 68.010417 
" style="fill:#e5baba;"/>
    <path clip-path="url(#p1c89cbfe7a)" d="M 747.363281 68.010417 
L 777.76849 68.010417 
L 777.76849 98.415625 
L 747.363281 98.415625 
L 747.363281 68.010417 
" style="fill:#e2b3b5;"/>
    <path clip-path="url(#p1c89cbfe7a)" d="M 777.76849 68.010417 
L 808.173698 68.010417 
L 808.173698 98.415625 
L 777.76849 98.415625 
L 777.76849 68.010417 
" style="fill:#cf91a3;"/>
    <path clip-path="url(#p1c89cbfe7a)" d="M 808.173698 68.010417 
L 838.578906 68.010417 
L 838.578906 98.415625 
L 808.173698 98.415625 
L 808.173698 68.010417 
" style="fill:#bd7a98;"/>
    <path clip-path="url(#p1c89cbfe7a)" d="M 108.853906 98.415625 
L 139.259115 98.415625 
L 139.259115 128.820833 
L 108.853906 128.820833 
L 108.853906 98.415625 
" style="fill:#e0afb3;"/>
    <path clip-path="url(#p1c89cbfe7a)" d="M 139.259115 98.415625 
L 169.664323 98.415625 
L 169.664323 128.820833 
L 139.259115 128.820833 
L 139.259115 98.415625 
" style="fill:#f1dcd6;"/>
    <path clip-path="url(#p1c89cbfe7a)" d="M 169.664323 98.415625 
L 200.069531 98.415625 
L 200.069531 128.820833 
L 169.664323 128.820833 
L 169.664323 98.415625 
" style="fill:#f9f0eb;"/>
    <path clip-path="url(#p1c89cbfe7a)" d="M 200.069531 98.415625 
L 230.47474 98.415625 
L 230.47474 128.820833 
L 200.069531 128.820833 
L 200.069531 98.415625 
" style="fill:#faf2ee;"/>
    <path clip-path="url(#p1c89cbfe7a)" d="M 230.47474 98.415625 
L 260.879948 98.415625 
L 260.879948 128.820833 
L 230.47474 128.820833 
L 230.47474 98.415625 
" style="fill:#faf2ee;"/>
    <path clip-path="url(#p1c89cbfe7a)" d="M 260.879948 98.415625 
L 291.285156 98.415625 
L 291.285156 128.820833 
L 260.879948 128.820833 
L 260.879948 98.415625 
" style="fill:#fcf8f5;"/>
    <path clip-path="url(#p1c89cbfe7a)" d="M 291.285156 98.415625 
L 321.690365 98.415625 
L 321.690365 128.820833 
L 291.285156 128.820833 
L 291.285156 98.415625 
" style="fill:#faf5f1;"/>
    <path clip-path="url(#p1c89cbfe7a)" d="M 321.690365 98.415625 
L 352.095573 98.415625 
L 352.095573 128.820833 
L 321.690365 128.820833 
L 321.690365 98.415625 
" style="fill:#faf5f1;"/>
    <path clip-path="url(#p1c89cbfe7a)" d="M 352.095573 98.415625 
L 382.500781 98.415625 
L 382.500781 128.820833 
L 352.095573 128.820833 
L 352.095573 98.415625 
" style="fill:#e9c4c1;"/>
    <path clip-path="url(#p1c89cbfe7a)" d="M 382.500781 98.415625 
L 412.90599 98.415625 
L 412.90599 128.820833 
L 382.500781 128.820833 
L 382.500781 98.415625 
" style="fill:#e7c1be;"/>
    <path clip-path="url(#p1c89cbfe7a)" d="M 412.90599 98.415625 
L 443.311198 98.415625 
L 443.311198 128.820833 
L 412.90599 128.820833 
L 412.90599 98.415625 
" style="fill:#dca6ae;"/>
    <path clip-path="url(#p1c89cbfe7a)" d="M 443.311198 98.415625 
L 473.716406 98.415625 
L 473.716406 128.820833 
L 443.311198 128.820833 
L 443.311198 98.415625 
" style="fill:#d9a1ab;"/>
    <path clip-path="url(#p1c89cbfe7a)" d="M 473.716406 98.415625 
L 504.121615 98.415625 
L 504.121615 128.820833 
L 473.716406 128.820833 
L 473.716406 98.415625 
" style="fill:#dda9af;"/>
    <path clip-path="url(#p1c89cbfe7a)" d="M 504.121615 98.415625 
L 534.526823 98.415625 
L 534.526823 128.820833 
L 504.121615 128.820833 
L 504.121615 98.415625 
" style="fill:#cf91a3;"/>
    <path clip-path="url(#p1c89cbfe7a)" d="M 534.526823 98.415625 
L 564.932031 98.415625 
L 564.932031 128.820833 
L 534.526823 128.820833 
L 534.526823 98.415625 
" style="fill:#b77495;"/>
    <path clip-path="url(#p1c89cbfe7a)" d="M 564.932031 98.415625 
L 595.33724 98.415625 
L 595.33724 128.820833 
L 564.932031 128.820833 
L 564.932031 98.415625 
" style="fill:#b77495;"/>
    <path clip-path="url(#p1c89cbfe7a)" d="M 595.33724 98.415625 
L 625.742448 98.415625 
L 625.742448 128.820833 
L 595.33724 128.820833 
L 595.33724 98.415625 
" style="fill:#ddaab0;"/>
    <path clip-path="url(#p1c89cbfe7a)" d="M 625.742448 98.415625 
L 656.147656 98.415625 
L 656.147656 128.820833 
L 625.742448 128.820833 
L 625.742448 98.415625 
" style="fill:#daa2ac;"/>
    <path clip-path="url(#p1c89cbfe7a)" d="M 656.147656 98.415625 
L 686.552865 98.415625 
L 686.552865 128.820833 
L 656.147656 128.820833 
L 656.147656 98.415625 
" style="fill:#814a7c;"/>
    <path clip-path="url(#p1c89cbfe7a)" d="M 686.552865 98.415625 
L 716.958073 98.415625 
L 716.958073 128.820833 
L 686.552865 128.820833 
L 686.552865 98.415625 
" style="fill:#9f5f8a;"/>
    <path clip-path="url(#p1c89cbfe7a)" d="M 716.958073 98.415625 
L 747.363281 98.415625 
L 747.363281 128.820833 
L 716.958073 128.820833 
L 716.958073 98.415625 
" style="fill:#bd7a98;"/>
    <path clip-path="url(#p1c89cbfe7a)" d="M 747.363281 98.415625 
L 777.76849 98.415625 
L 777.76849 128.820833 
L 747.363281 128.820833 
L 747.363281 98.415625 
" style="fill:#f5e6e0;"/>
    <path clip-path="url(#p1c89cbfe7a)" d="M 777.76849 98.415625 
L 808.173698 98.415625 
L 808.173698 128.820833 
L 777.76849 128.820833 
L 777.76849 98.415625 
" style="fill:#e3b6b7;"/>
    <path clip-path="url(#p1c89cbfe7a)" d="M 808.173698 98.415625 
L 838.578906 98.415625 
L 838.578906 128.820833 
L 808.173698 128.820833 
L 808.173698 98.415625 
" style="fill:#c8879e;"/>
    <path clip-path="url(#p1c89cbfe7a)" d="M 108.853906 128.820833 
L 139.259115 128.820833 
L 139.259115 159.226042 
L 108.853906 159.226042 
L 108.853906 128.820833 
" style="fill:#e9c4c1;"/>
    <path clip-path="url(#p1c89cbfe7a)" d="M 139.259115 128.820833 
L 169.664323 128.820833 
L 169.664323 159.226042 
L 139.259115 159.226042 
L 139.259115 128.820833 
" style="fill:#f1dbd4;"/>
    <path clip-path="url(#p1c89cbfe7a)" d="M 169.664323 128.820833 
L 200.069531 128.820833 
L 200.069531 159.226042 
L 169.664323 159.226042 
L 169.664323 128.820833 
" style="fill:#f6e9e2;"/>
    <path clip-path="url(#p1c89cbfe7a)" d="M 200.069531 128.820833 
L 230.47474 128.820833 
L 230.47474 159.226042 
L 200.069531 159.226042 
L 200.069531 128.820833 
" style="fill:#faf4ef;"/>
    <path clip-path="url(#p1c89cbfe7a)" d="M 230.47474 128.820833 
L 260.879948 128.820833 
L 260.879948 159.226042 
L 230.47474 159.226042 
L 230.47474 128.820833 
" style="fill:#fcf9f7;"/>
    <path clip-path="url(#p1c89cbfe7a)" d="M 260.879948 128.820833 
L 291.285156 128.820833 
L 291.285156 159.226042 
L 260.879948 159.226042 
L 260.879948 128.820833 
" style="fill:#fefefd;"/>
    <path clip-path="url(#p1c89cbfe7a)" d="M 291.285156 128.820833 
L 321.690365 128.820833 
L 321.690365 159.226042 
L 291.285156 159.226042 
L 291.285156 128.820833 
" style="fill:#ffffff;"/>
    <path clip-path="url(#p1c89cbfe7a)" d="M 321.690365 128.820833 
L 352.095573 128.820833 
L 352.095573 159.226042 
L 321.690365 159.226042 
L 321.690365 128.820833 
" style="fill:#fcf8f5;"/>
    <path clip-path="url(#p1c89cbfe7a)" d="M 352.095573 128.820833 
L 382.500781 128.820833 
L 382.500781 159.226042 
L 352.095573 159.226042 
L 352.095573 128.820833 
" style="fill:#eed2cc;"/>
    <path clip-path="url(#p1c89cbfe7a)" d="M 382.500781 128.820833 
L 412.90599 128.820833 
L 412.90599 159.226042 
L 382.500781 159.226042 
L 382.500781 128.820833 
" style="fill:#cc8da1;"/>
    <path clip-path="url(#p1c89cbfe7a)" d="M 412.90599 128.820833 
L 443.311198 128.820833 
L 443.311198 159.226042 
L 412.90599 159.226042 
L 412.90599 128.820833 
" style="fill:#9b5c89;"/>
    <path clip-path="url(#p1c89cbfe7a)" d="M 443.311198 128.820833 
L 473.716406 128.820833 
L 473.716406 159.226042 
L 443.311198 159.226042 
L 443.311198 128.820833 
" style="fill:#a4638d;"/>
    <path clip-path="url(#p1c89cbfe7a)" d="M 473.716406 128.820833 
L 504.121615 128.820833 
L 504.121615 159.226042 
L 473.716406 159.226042 
L 473.716406 128.820833 
" style="fill:#794678;"/>
    <path clip-path="url(#p1c89cbfe7a)" d="M 504.121615 128.820833 
L 534.526823 128.820833 
L 534.526823 159.226042 
L 504.121615 159.226042 
L 504.121615 128.820833 
" style="fill:#834c7d;"/>
    <path clip-path="url(#p1c89cbfe7a)" d="M 534.526823 128.820833 
L 564.932031 128.820833 
L 564.932031 159.226042 
L 534.526823 159.226042 
L 534.526823 128.820833 
" style="fill:#995a88;"/>
    <path clip-path="url(#p1c89cbfe7a)" d="M 564.932031 128.820833 
L 595.33724 128.820833 
L 595.33724 159.226042 
L 564.932031 159.226042 
L 564.932031 128.820833 
" style="fill:#aa688f;"/>
    <path clip-path="url(#p1c89cbfe7a)" d="M 595.33724 128.820833 
L 625.742448 128.820833 
L 625.742448 159.226042 
L 595.33724 159.226042 
L 595.33724 128.820833 
" style="fill:#4b2e59;"/>
    <path clip-path="url(#p1c89cbfe7a)" d="M 625.742448 128.820833 
L 656.147656 128.820833 
L 656.147656 159.226042 
L 625.742448 159.226042 
L 625.742448 128.820833 
" style="fill:#2d1e3e;"/>
    <path clip-path="url(#p1c89cbfe7a)" d="M 656.147656 128.820833 
L 686.552865 128.820833 
L 686.552865 159.226042 
L 656.147656 159.226042 
L 656.147656 128.820833 
" style="fill:#b06d92;"/>
    <path clip-path="url(#p1c89cbfe7a)" d="M 686.552865 128.820833 
L 716.958073 128.820833 
L 716.958073 159.226042 
L 686.552865 159.226042 
L 686.552865 128.820833 
" style="fill:#965886;"/>
    <path clip-path="url(#p1c89cbfe7a)" d="M 716.958073 128.820833 
L 747.363281 128.820833 
L 747.363281 159.226042 
L 716.958073 159.226042 
L 716.958073 128.820833 
" style="fill:#ce8fa2;"/>
    <path clip-path="url(#p1c89cbfe7a)" d="M 747.363281 128.820833 
L 777.76849 128.820833 
L 777.76849 159.226042 
L 747.363281 159.226042 
L 747.363281 128.820833 
" style="fill:#ebcbc6;"/>
    <path clip-path="url(#p1c89cbfe7a)" d="M 777.76849 128.820833 
L 808.173698 128.820833 
L 808.173698 159.226042 
L 777.76849 159.226042 
L 777.76849 128.820833 
" style="fill:#e7bfbd;"/>
    <path clip-path="url(#p1c89cbfe7a)" d="M 808.173698 128.820833 
L 838.578906 128.820833 
L 838.578906 159.226042 
L 808.173698 159.226042 
L 808.173698 128.820833 
" style="fill:#e8c2bf;"/>
    <path clip-path="url(#p1c89cbfe7a)" d="M 108.853906 159.226042 
L 139.259115 159.226042 
L 139.259115 189.63125 
L 108.853906 189.63125 
L 108.853906 159.226042 
" style="fill:#e2b4b6;"/>
    <path clip-path="url(#p1c89cbfe7a)" d="M 139.259115 159.226042 
L 169.664323 159.226042 
L 169.664323 189.63125 
L 139.259115 189.63125 
L 139.259115 159.226042 
" style="fill:#e6bebc;"/>
    <path clip-path="url(#p1c89cbfe7a)" d="M 169.664323 159.226042 
L 200.069531 159.226042 
L 200.069531 189.63125 
L 169.664323 189.63125 
L 169.664323 159.226042 
" style="fill:#f1dcd6;"/>
    <path clip-path="url(#p1c89cbfe7a)" d="M 200.069531 159.226042 
L 230.47474 159.226042 
L 230.47474 189.63125 
L 200.069531 189.63125 
L 200.069531 159.226042 
" style="fill:#f3e0d9;"/>
    <path clip-path="url(#p1c89cbfe7a)" d="M 230.47474 159.226042 
L 260.879948 159.226042 
L 260.879948 189.63125 
L 230.47474 189.63125 
L 230.47474 159.226042 
" style="fill:#f2dfd8;"/>
    <path clip-path="url(#p1c89cbfe7a)" d="M 260.879948 159.226042 
L 291.285156 159.226042 
L 291.285156 189.63125 
L 260.879948 189.63125 
L 260.879948 159.226042 
" style="fill:#f3e0d9;"/>
    <path clip-path="url(#p1c89cbfe7a)" d="M 291.285156 159.226042 
L 321.690365 159.226042 
L 321.690365 189.63125 
L 291.285156 189.63125 
L 291.285156 159.226042 
" style="fill:#f2ded7;"/>
    <path clip-path="url(#p1c89cbfe7a)" d="M 321.690365 159.226042 
L 352.095573 159.226042 
L 352.095573 189.63125 
L 321.690365 189.63125 
L 321.690365 159.226042 
" style="fill:#f4e3dc;"/>
    <path clip-path="url(#p1c89cbfe7a)" d="M 352.095573 159.226042 
L 382.500781 159.226042 
L 382.500781 189.63125 
L 352.095573 189.63125 
L 352.095573 159.226042 
" style="fill:#f3e0d9;"/>
    <path clip-path="url(#p1c89cbfe7a)" d="M 382.500781 159.226042 
L 412.90599 159.226042 
L 412.90599 189.63125 
L 382.500781 189.63125 
L 382.500781 159.226042 
" style="fill:#f9f1ec;"/>
    <path clip-path="url(#p1c89cbfe7a)" d="M 412.90599 159.226042 
L 443.311198 159.226042 
L 443.311198 189.63125 
L 412.90599 189.63125 
L 412.90599 159.226042 
" style="fill:#f8eee8;"/>
    <path clip-path="url(#p1c89cbfe7a)" d="M 443.311198 159.226042 
L 473.716406 159.226042 
L 473.716406 189.63125 
L 443.311198 189.63125 
L 443.311198 159.226042 
" style="fill:#f7ece7;"/>
    <path clip-path="url(#p1c89cbfe7a)" d="M 473.716406 159.226042 
L 504.121615 159.226042 
L 504.121615 189.63125 
L 473.716406 189.63125 
L 473.716406 159.226042 
" style="fill:#f3e0d9;"/>
    <path clip-path="url(#p1c89cbfe7a)" d="M 504.121615 159.226042 
L 534.526823 159.226042 
L 534.526823 189.63125 
L 504.121615 189.63125 
L 504.121615 159.226042 
" style="fill:#f1dad3;"/>
    <path clip-path="url(#p1c89cbfe7a)" d="M 534.526823 159.226042 
L 564.932031 159.226042 
L 564.932031 189.63125 
L 534.526823 189.63125 
L 534.526823 159.226042 
" style="fill:#f1dcd6;"/>
    <path clip-path="url(#p1c89cbfe7a)" d="M 564.932031 159.226042 
L 595.33724 159.226042 
L 595.33724 189.63125 
L 564.932031 189.63125 
L 564.932031 159.226042 
" style="fill:#f2ded7;"/>
    <path clip-path="url(#p1c89cbfe7a)" d="M 595.33724 159.226042 
L 625.742448 159.226042 
L 625.742448 189.63125 
L 595.33724 189.63125 
L 595.33724 159.226042 
" style="fill:#efd5cf;"/>
    <path clip-path="url(#p1c89cbfe7a)" d="M 625.742448 159.226042 
L 656.147656 159.226042 
L 656.147656 189.63125 
L 625.742448 189.63125 
L 625.742448 159.226042 
" style="fill:#eac8c4;"/>
    <path clip-path="url(#p1c89cbfe7a)" d="M 656.147656 159.226042 
L 686.552865 159.226042 
L 686.552865 189.63125 
L 656.147656 189.63125 
L 656.147656 159.226042 
" style="fill:#eac8c4;"/>
    <path clip-path="url(#p1c89cbfe7a)" d="M 686.552865 159.226042 
L 716.958073 159.226042 
L 716.958073 189.63125 
L 686.552865 189.63125 
L 686.552865 159.226042 
" style="fill:#edcfc9;"/>
    <path clip-path="url(#p1c89cbfe7a)" d="M 716.958073 159.226042 
L 747.363281 159.226042 
L 747.363281 189.63125 
L 716.958073 189.63125 
L 716.958073 159.226042 
" style="fill:#dca6ae;"/>
    <path clip-path="url(#p1c89cbfe7a)" d="M 747.363281 159.226042 
L 777.76849 159.226042 
L 777.76849 189.63125 
L 747.363281 189.63125 
L 747.363281 159.226042 
" style="fill:#deabb0;"/>
    <path clip-path="url(#p1c89cbfe7a)" d="M 777.76849 159.226042 
L 808.173698 159.226042 
L 808.173698 189.63125 
L 777.76849 189.63125 
L 777.76849 159.226042 
" style="fill:#d89faa;"/>
    <path clip-path="url(#p1c89cbfe7a)" d="M 808.173698 159.226042 
L 838.578906 159.226042 
L 838.578906 189.63125 
L 808.173698 189.63125 
L 808.173698 159.226042 
" style="fill:#e4b8b8;"/>
    <path clip-path="url(#p1c89cbfe7a)" d="M 108.853906 189.63125 
L 139.259115 189.63125 
L 139.259115 220.036458 
L 108.853906 220.036458 
L 108.853906 189.63125 
" style="fill:#e1b1b4;"/>
    <path clip-path="url(#p1c89cbfe7a)" d="M 139.259115 189.63125 
L 169.664323 189.63125 
L 169.664323 220.036458 
L 139.259115 220.036458 
L 139.259115 189.63125 
" style="fill:#eac8c4;"/>
    <path clip-path="url(#p1c89cbfe7a)" d="M 169.664323 189.63125 
L 200.069531 189.63125 
L 200.069531 220.036458 
L 169.664323 220.036458 
L 169.664323 189.63125 
" style="fill:#f1dad3;"/>
    <path clip-path="url(#p1c89cbfe7a)" d="M 200.069531 189.63125 
L 230.47474 189.63125 
L 230.47474 220.036458 
L 200.069531 220.036458 
L 200.069531 189.63125 
" style="fill:#fbf7f4;"/>
    <path clip-path="url(#p1c89cbfe7a)" d="M 230.47474 189.63125 
L 260.879948 189.63125 
L 260.879948 220.036458 
L 230.47474 220.036458 
L 230.47474 189.63125 
" style="fill:#faf5f1;"/>
    <path clip-path="url(#p1c89cbfe7a)" d="M 260.879948 189.63125 
L 291.285156 189.63125 
L 291.285156 220.036458 
L 260.879948 220.036458 
L 260.879948 189.63125 
" style="fill:#fdfcfa;"/>
    <path clip-path="url(#p1c89cbfe7a)" d="M 291.285156 189.63125 
L 321.690365 189.63125 
L 321.690365 220.036458 
L 291.285156 220.036458 
L 291.285156 189.63125 
" style="fill:#fcf9f7;"/>
    <path clip-path="url(#p1c89cbfe7a)" d="M 321.690365 189.63125 
L 352.095573 189.63125 
L 352.095573 220.036458 
L 321.690365 220.036458 
L 321.690365 189.63125 
" style="fill:#f9f1ec;"/>
    <path clip-path="url(#p1c89cbfe7a)" d="M 352.095573 189.63125 
L 382.500781 189.63125 
L 382.500781 220.036458 
L 352.095573 220.036458 
L 352.095573 189.63125 
" style="fill:#faf5f1;"/>
    <path clip-path="url(#p1c89cbfe7a)" d="M 382.500781 189.63125 
L 412.90599 189.63125 
L 412.90599 220.036458 
L 382.500781 220.036458 
L 382.500781 189.63125 
" style="fill:#f4e4dd;"/>
    <path clip-path="url(#p1c89cbfe7a)" d="M 412.90599 189.63125 
L 443.311198 189.63125 
L 443.311198 220.036458 
L 412.90599 220.036458 
L 412.90599 189.63125 
" style="fill:#f5e8e1;"/>
    <path clip-path="url(#p1c89cbfe7a)" d="M 443.311198 189.63125 
L 473.716406 189.63125 
L 473.716406 220.036458 
L 443.311198 220.036458 
L 443.311198 189.63125 
" style="fill:#f2dfd8;"/>
    <path clip-path="url(#p1c89cbfe7a)" d="M 473.716406 189.63125 
L 504.121615 189.63125 
L 504.121615 220.036458 
L 473.716406 220.036458 
L 473.716406 189.63125 
" style="fill:#f8efe9;"/>
    <path clip-path="url(#p1c89cbfe7a)" d="M 504.121615 189.63125 
L 534.526823 189.63125 
L 534.526823 220.036458 
L 504.121615 220.036458 
L 504.121615 189.63125 
" style="fill:#f7ebe5;"/>
    <path clip-path="url(#p1c89cbfe7a)" d="M 534.526823 189.63125 
L 564.932031 189.63125 
L 564.932031 220.036458 
L 534.526823 220.036458 
L 534.526823 189.63125 
" style="fill:#f0d9d2;"/>
    <path clip-path="url(#p1c89cbfe7a)" d="M 564.932031 189.63125 
L 595.33724 189.63125 
L 595.33724 220.036458 
L 564.932031 220.036458 
L 564.932031 189.63125 
" style="fill:#f7ebe5;"/>
    <path clip-path="url(#p1c89cbfe7a)" d="M 595.33724 189.63125 
L 625.742448 189.63125 
L 625.742448 220.036458 
L 595.33724 220.036458 
L 595.33724 189.63125 
" style="fill:#f4e3dc;"/>
    <path clip-path="url(#p1c89cbfe7a)" d="M 625.742448 189.63125 
L 656.147656 189.63125 
L 656.147656 220.036458 
L 625.742448 220.036458 
L 625.742448 189.63125 
" style="fill:#ebcac5;"/>
    <path clip-path="url(#p1c89cbfe7a)" d="M 656.147656 189.63125 
L 686.552865 189.63125 
L 686.552865 220.036458 
L 656.147656 220.036458 
L 656.147656 189.63125 
" style="fill:#f7ebe5;"/>
    <path clip-path="url(#p1c89cbfe7a)" d="M 686.552865 189.63125 
L 716.958073 189.63125 
L 716.958073 220.036458 
L 686.552865 220.036458 
L 686.552865 189.63125 
" style="fill:#f4e4dd;"/>
    <path clip-path="url(#p1c89cbfe7a)" d="M 716.958073 189.63125 
L 747.363281 189.63125 
L 747.363281 220.036458 
L 716.958073 220.036458 
L 716.958073 189.63125 
" style="fill:#f6e9e2;"/>
    <path clip-path="url(#p1c89cbfe7a)" d="M 747.363281 189.63125 
L 777.76849 189.63125 
L 777.76849 220.036458 
L 747.363281 220.036458 
L 747.363281 189.63125 
" style="fill:#f3e1db;"/>
    <path clip-path="url(#p1c89cbfe7a)" d="M 777.76849 189.63125 
L 808.173698 189.63125 
L 808.173698 220.036458 
L 777.76849 220.036458 
L 777.76849 189.63125 
" style="fill:#efd6d0;"/>
    <path clip-path="url(#p1c89cbfe7a)" d="M 808.173698 189.63125 
L 838.578906 189.63125 
L 838.578906 220.036458 
L 808.173698 220.036458 
L 808.173698 189.63125 
" style="fill:#f5e5de;"/>
   </g>
  </g>
 </g>
 <defs>
  <clipPath id="p1c89cbfe7a">
   <rect height="212.836458" width="729.725" x="108.853906" y="7.2"/>
  </clipPath>
 </defs>
</svg>
