<?xml version="1.0" encoding="utf-8" standalone="no"?>
<!DOCTYPE svg PUBLIC "-//W3C//DTD SVG 1.1//EN"
  "http://www.w3.org/Graphics/SVG/1.1/DTD/svg11.dtd">
<!-- Created with matplotlib (https://matplotlib.org/) -->
<svg height="268.875pt" version="1.1" viewBox="0 0 558.09043 268.875" width="558.09043pt" xmlns="http://www.w3.org/2000/svg" xmlns:xlink="http://www.w3.org/1999/xlink">
 <defs>
  <style type="text/css">
*{stroke-linecap:butt;stroke-linejoin:round;white-space:pre;}
  </style>
 </defs>
 <g id="figure_1">
  <g id="patch_1">
   <path d="M 0 268.875 
L 558.09043 268.875 
L 558.09043 0 
L 0 0 
z
" style="fill:none;"/>
  </g>
  <g id="axes_1">
   <g id="patch_2">
    <path d="M 170.41543 212.3 
L 550.89043 212.3 
L 550.89043 7.2 
L 170.41543 7.2 
z
" style="fill:none;"/>
   </g>
   <g id="matplotlib.axis_1">
    <g id="xtick_1">
     <g id="text_1">
      <!-- 0 -->
      <defs>
       <path d="M 4.703125 44.796875 
Q 4.703125 51.59375 6.59375 56.640625 
Q 8.5 61.703125 11.703125 65 
Q 14.90625 68.296875 19.25 69.890625 
Q 23.59375 71.5 28.5 71.5 
Q 33.40625 71.5 37.75 69.890625 
Q 42.09375 68.296875 45.296875 65 
Q 48.5 61.703125 50.390625 56.640625 
Q 52.296875 51.59375 52.296875 44.796875 
L 52.296875 25.203125 
Q 52.296875 18.296875 50.390625 13.25 
Q 48.5 8.203125 45.296875 4.890625 
Q 42.09375 1.59375 37.75 0.046875 
Q 33.40625 -1.5 28.5 -1.5 
Q 23.59375 -1.5 19.25 0.09375 
Q 14.90625 1.703125 11.703125 5 
Q 8.5 8.296875 6.59375 13.34375 
Q 4.703125 18.40625 4.703125 25.203125 
z
M 12.40625 23.796875 
Q 12.40625 19.296875 13.703125 15.890625 
Q 15 12.5 17.140625 10.25 
Q 19.296875 8 22.25 6.84375 
Q 25.203125 5.703125 28.5 5.703125 
Q 31.796875 5.703125 34.75 6.84375 
Q 37.703125 8 39.84375 10.25 
Q 42 12.5 43.296875 15.890625 
Q 44.59375 19.296875 44.59375 23.796875 
L 44.59375 46.203125 
Q 44.59375 50.703125 43.296875 54.09375 
Q 42 57.5 39.84375 59.75 
Q 37.703125 62 34.75 63.140625 
Q 31.796875 64.296875 28.5 64.296875 
Q 25.203125 64.296875 22.25 63.140625 
Q 19.296875 62 17.140625 59.75 
Q 15 57.5 13.703125 54.09375 
Q 12.40625 50.703125 12.40625 46.203125 
z
" id="AUPassata-Regular-48"/>
      </defs>
      <g style="fill:#262626;" transform="translate(166.49668 241.425)scale(0.1375 -0.1375)">
       <use xlink:href="#AUPassata-Regular-48"/>
      </g>
     </g>
    </g>
    <g id="xtick_2">
     <g id="text_2">
      <!-- 50 -->
      <defs>
       <path d="M 13.59375 21 
Q 13.59375 17.796875 14.6875 15 
Q 15.796875 12.203125 17.75 10.140625 
Q 19.703125 8.09375 22.453125 6.890625 
Q 25.203125 5.703125 28.40625 5.703125 
Q 31.59375 5.703125 34.34375 6.890625 
Q 37.09375 8.09375 39.046875 10.140625 
Q 41 12.203125 42.09375 15 
Q 43.203125 17.796875 43.203125 21 
Q 43.203125 24.203125 42.09375 27.046875 
Q 41 29.90625 39.046875 32 
Q 37.09375 34.09375 34.34375 35.296875 
Q 31.59375 36.5 28.40625 36.5 
Q 26.703125 36.5 24.890625 36.140625 
Q 23.09375 35.796875 21.34375 35.1875 
Q 19.59375 34.59375 18.046875 33.75 
Q 16.5 32.90625 15.5 31.796875 
L 8.703125 31.796875 
L 12.40625 70 
L 45.90625 70 
L 45.90625 63 
L 19.203125 63 
L 17 40.09375 
Q 19.5 41.59375 22.34375 42.546875 
Q 25.203125 43.5 28.40625 43.5 
Q 33 43.5 37.09375 41.75 
Q 41.203125 40 44.296875 36.890625 
Q 47.40625 33.796875 49.15625 29.6875 
Q 50.90625 25.59375 50.90625 21 
Q 50.90625 16.296875 49.15625 12.25 
Q 47.40625 8.203125 44.296875 5.09375 
Q 41.203125 2 37.09375 0.25 
Q 33 -1.5 28.40625 -1.5 
Q 23.703125 -1.5 19.640625 0.25 
Q 15.59375 2 12.5 5.09375 
Q 9.40625 8.203125 7.65625 12.25 
Q 5.90625 16.296875 5.90625 21 
z
" id="AUPassata-Regular-53"/>
      </defs>
      <g style="fill:#262626;" transform="translate(245.307871 241.425)scale(0.1375 -0.1375)">
       <use xlink:href="#AUPassata-Regular-53"/>
       <use x="56.999985" xlink:href="#AUPassata-Regular-48"/>
      </g>
     </g>
    </g>
    <g id="xtick_3">
     <g id="text_3">
      <!-- 100 -->
      <defs>
       <path d="M 27.5 63 
L 14.5 63 
L 14.5 70 
L 35 70 
L 35 0 
L 27.5 0 
z
" id="AUPassata-Regular-49"/>
      </defs>
      <g style="fill:#262626;" transform="translate(324.119062 241.425)scale(0.1375 -0.1375)">
       <use xlink:href="#AUPassata-Regular-49"/>
       <use x="56.999985" xlink:href="#AUPassata-Regular-48"/>
       <use x="113.999969" xlink:href="#AUPassata-Regular-48"/>
      </g>
     </g>
    </g>
    <g id="xtick_4">
     <g id="text_4">
      <!-- 150 -->
      <g style="fill:#262626;" transform="translate(406.849004 241.425)scale(0.1375 -0.1375)">
       <use xlink:href="#AUPassata-Regular-49"/>
       <use x="56.999985" xlink:href="#AUPassata-Regular-53"/>
       <use x="113.999969" xlink:href="#AUPassata-Regular-48"/>
      </g>
     </g>
    </g>
    <g id="xtick_5">
     <g id="text_5">
      <!-- 200 -->
      <defs>
       <path d="M 35.59375 37.703125 
Q 40.796875 44.296875 40.796875 50.703125 
Q 40.796875 53.5 39.796875 56 
Q 38.796875 58.5 37.09375 60.34375 
Q 35.40625 62.203125 33 63.25 
Q 30.59375 64.296875 27.796875 64.296875 
Q 24.90625 64.296875 22.5 63.25 
Q 20.09375 62.203125 18.34375 60.34375 
Q 16.59375 58.5 15.640625 56 
Q 14.703125 53.5 14.703125 50.703125 
L 7 50.703125 
Q 7 55 8.640625 58.796875 
Q 10.296875 62.59375 13.09375 65.390625 
Q 15.90625 68.203125 19.703125 69.84375 
Q 23.5 71.5 27.796875 71.5 
Q 32.09375 71.5 35.84375 69.84375 
Q 39.59375 68.203125 42.390625 65.390625 
Q 45.203125 62.59375 46.84375 58.796875 
Q 48.5 55 48.5 50.703125 
Q 48.5 45.90625 46.703125 41.546875 
Q 44.90625 37.203125 40.703125 32.09375 
L 19.5 7 
L 49.5 7 
L 49.5 0 
L 4.296875 0 
z
" id="AUPassata-Regular-50"/>
      </defs>
      <g style="fill:#262626;" transform="translate(489.578945 241.425)scale(0.1375 -0.1375)">
       <use xlink:href="#AUPassata-Regular-50"/>
       <use x="56.999985" xlink:href="#AUPassata-Regular-48"/>
       <use x="113.999969" xlink:href="#AUPassata-Regular-48"/>
      </g>
     </g>
    </g>
    <g id="text_6">
     <!-- Number of users -->
     <defs>
      <path d="M 7.40625 72.5 
L 56.296875 16.40625 
L 56.296875 70 
L 63.796875 70 
L 63.796875 -2.5 
L 14.90625 53.40625 
L 14.90625 0 
L 7.40625 0 
z
" id="AUPassata-Regular-78"/>
      <path d="M 6.5 50 
L 13.796875 50 
L 13.796875 22.296875 
Q 13.796875 13.703125 16.890625 9.953125 
Q 20 6.203125 26.5 6.203125 
Q 29.09375 6.203125 31.4375 7.046875 
Q 33.796875 7.90625 35.75 9.25 
Q 37.703125 10.59375 39.25 12.1875 
Q 40.796875 13.796875 41.703125 15.40625 
L 41.703125 50 
L 48.90625 50 
L 48.90625 0 
L 41.703125 0 
L 41.703125 6.5 
Q 38.703125 2.90625 34.59375 0.953125 
Q 30.5 -1 26 -1 
Q 21.59375 -1 18 0.296875 
Q 14.40625 1.59375 11.84375 4.296875 
Q 9.296875 7 7.890625 11.140625 
Q 6.5 15.296875 6.5 20.90625 
z
" id="AUPassata-Regular-117"/>
      <path d="M 6.5 50 
L 13.703125 50 
L 13.703125 43.5 
Q 16.703125 47.09375 20.796875 49.046875 
Q 24.90625 51 28.40625 51 
Q 33.796875 51 38.25 48.84375 
Q 42.703125 46.703125 45.296875 42 
Q 48.5 46 53 48.5 
Q 57.5 51 62.59375 51 
Q 66.703125 51 70.296875 49.796875 
Q 73.90625 48.59375 76.546875 46.046875 
Q 79.203125 43.5 80.75 39.546875 
Q 82.296875 35.59375 82.296875 30.09375 
L 82.296875 0 
L 75 0 
L 75 28.703125 
Q 75 33.09375 74 36 
Q 73 38.90625 71.25 40.65625 
Q 69.5 42.40625 67.203125 43.09375 
Q 64.90625 43.796875 62.203125 43.796875 
Q 60.09375 43.796875 58 42.9375 
Q 55.90625 42.09375 54 40.75 
Q 52.09375 39.40625 50.5 37.796875 
Q 48.90625 36.203125 48 34.59375 
L 48 0 
L 40.703125 0 
L 40.703125 28.703125 
Q 40.703125 33.09375 39.703125 36 
Q 38.703125 38.90625 37 40.65625 
Q 35.296875 42.40625 33 43.09375 
Q 30.703125 43.796875 28 43.796875 
Q 25.90625 43.796875 23.796875 42.9375 
Q 21.703125 42.09375 19.75 40.796875 
Q 17.796875 39.5 16.1875 37.84375 
Q 14.59375 36.203125 13.703125 34.59375 
L 13.703125 0 
L 6.5 0 
z
" id="AUPassata-Regular-109"/>
      <path d="M 6.5 70 
L 13.703125 70 
L 13.703125 43.5 
Q 20.703125 51 30.703125 51 
Q 36.09375 51 40.84375 48.953125 
Q 45.59375 46.90625 49.09375 43.40625 
Q 52.59375 39.90625 54.640625 35.15625 
Q 56.703125 30.40625 56.703125 25 
Q 56.703125 19.59375 54.640625 14.84375 
Q 52.59375 10.09375 49.09375 6.59375 
Q 45.59375 3.09375 40.84375 1.046875 
Q 36.09375 -1 30.703125 -1 
Q 20.703125 -1 13.703125 6.5 
L 13.703125 0 
L 6.5 0 
z
M 13.703125 15.40625 
Q 14.796875 13.703125 16.546875 11.953125 
Q 18.296875 10.203125 20.4375 8.84375 
Q 22.59375 7.5 25.1875 6.640625 
Q 27.796875 5.796875 30.703125 5.796875 
Q 34.703125 5.796875 38.09375 7.296875 
Q 41.5 8.796875 44 11.390625 
Q 46.5 14 47.890625 17.5 
Q 49.296875 21 49.296875 25 
Q 49.296875 29 47.890625 32.5 
Q 46.5 36 44 38.59375 
Q 41.5 41.203125 38.09375 42.703125 
Q 34.703125 44.203125 30.703125 44.203125 
Q 27.796875 44.203125 25.1875 43.296875 
Q 22.59375 42.40625 20.4375 41 
Q 18.296875 39.59375 16.546875 37.890625 
Q 14.796875 36.203125 13.703125 34.59375 
z
" id="AUPassata-Regular-98"/>
      <path d="M 52.796875 13 
Q 51.203125 9.90625 48.703125 7.296875 
Q 46.203125 4.703125 43.140625 2.84375 
Q 40.09375 1 36.546875 0 
Q 33 -1 29.203125 -1 
Q 23.796875 -1 19.140625 1.046875 
Q 14.5 3.09375 11.09375 6.59375 
Q 7.703125 10.09375 5.75 14.84375 
Q 3.796875 19.59375 3.796875 25 
Q 3.796875 30.40625 5.75 35.15625 
Q 7.703125 39.90625 11.09375 43.40625 
Q 14.5 46.90625 19.140625 48.953125 
Q 23.796875 51 29.203125 51 
Q 35 51 39.796875 48.890625 
Q 44.59375 46.796875 48 43 
Q 51.40625 39.203125 53.296875 33.75 
Q 55.203125 28.296875 55.203125 21.59375 
L 11.5 21.59375 
Q 12.09375 18.203125 13.59375 15.34375 
Q 15.09375 12.5 17.34375 10.390625 
Q 19.59375 8.296875 22.59375 7.09375 
Q 25.59375 5.90625 29.203125 5.90625 
Q 33.796875 5.90625 37.75 7.796875 
Q 41.703125 9.703125 44.296875 13 
z
M 47.203125 28.40625 
Q 46.90625 31.703125 45.34375 34.59375 
Q 43.796875 37.5 41.390625 39.59375 
Q 39 41.703125 35.84375 42.890625 
Q 32.703125 44.09375 29.203125 44.09375 
Q 25.59375 44.09375 22.59375 42.890625 
Q 19.59375 41.703125 17.34375 39.59375 
Q 15.09375 37.5 13.59375 34.59375 
Q 12.09375 31.703125 11.5 28.40625 
z
" id="AUPassata-Regular-101"/>
      <path d="M 6.5 50 
L 13.703125 50 
L 13.703125 42.5 
Q 15.703125 45.703125 18.796875 47.84375 
Q 21.90625 50 26.40625 50 
L 28.40625 50 
L 28.40625 42.796875 
L 26.40625 42.796875 
Q 21.90625 42.796875 18.703125 40.09375 
Q 15.5 37.40625 13.703125 32.59375 
L 13.703125 0 
L 6.5 0 
z
" id="AUPassata-Regular-114"/>
      <path id="AUPassata-Regular-32"/>
      <path d="M 3 25 
Q 3 30.40625 5.046875 35.15625 
Q 7.09375 39.90625 10.59375 43.40625 
Q 14.09375 46.90625 18.84375 48.953125 
Q 23.59375 51 29 51 
Q 34.40625 51 39.15625 48.953125 
Q 43.90625 46.90625 47.40625 43.40625 
Q 50.90625 39.90625 52.953125 35.15625 
Q 55 30.40625 55 25 
Q 55 19.59375 52.953125 14.84375 
Q 50.90625 10.09375 47.40625 6.59375 
Q 43.90625 3.09375 39.15625 1.046875 
Q 34.40625 -1 29 -1 
Q 23.59375 -1 18.84375 1.046875 
Q 14.09375 3.09375 10.59375 6.59375 
Q 7.09375 10.09375 5.046875 14.84375 
Q 3 19.59375 3 25 
z
M 29 6.09375 
Q 33 6.09375 36.34375 7.546875 
Q 39.703125 9 42.203125 11.546875 
Q 44.703125 14.09375 46.09375 17.546875 
Q 47.5 21 47.5 25 
Q 47.5 29 46.09375 32.453125 
Q 44.703125 35.90625 42.203125 38.453125 
Q 39.703125 41 36.34375 42.453125 
Q 33 43.90625 29 43.90625 
Q 25 43.90625 21.59375 42.453125 
Q 18.203125 41 15.75 38.453125 
Q 13.296875 35.90625 11.890625 32.453125 
Q 10.5 29 10.5 25 
Q 10.5 21 11.890625 17.546875 
Q 13.296875 14.09375 15.75 11.546875 
Q 18.203125 9 21.59375 7.546875 
Q 25 6.09375 29 6.09375 
z
" id="AUPassata-Regular-111"/>
      <path d="M 10 43.203125 
L 3 43.203125 
L 3 50 
L 10 50 
L 10 53.796875 
Q 10 62.5 14.09375 66.25 
Q 18.203125 70 25.203125 70 
L 27.203125 70 
L 27.203125 63.203125 
L 25.203125 63.203125 
Q 21.296875 63.203125 19.25 61 
Q 17.203125 58.796875 17.203125 53.296875 
L 17.203125 50 
L 27.203125 50 
L 27.203125 43.203125 
L 17.203125 43.203125 
L 17.203125 0 
L 10 0 
z
" id="AUPassata-Regular-102"/>
      <path d="M 10.5 13 
Q 10.703125 9.5 13.140625 7.640625 
Q 15.59375 5.796875 19.40625 5.796875 
Q 23.59375 5.796875 26.046875 7.890625 
Q 28.5 10 28.5 14.203125 
Q 28.5 15.90625 27.75 17.09375 
Q 27 18.296875 25.75 19.1875 
Q 24.5 20.09375 22.84375 20.796875 
Q 21.203125 21.5 19.40625 22.203125 
Q 16.90625 23.09375 14.34375 24.140625 
Q 11.796875 25.203125 9.6875 26.796875 
Q 7.59375 28.40625 6.296875 30.796875 
Q 5 33.203125 5 36.796875 
Q 5 40.09375 6.09375 42.75 
Q 7.203125 45.40625 9.203125 47.203125 
Q 11.203125 49 13.890625 50 
Q 16.59375 51 19.90625 51 
Q 26.5 51 30.34375 47.5 
Q 34.203125 44 34.59375 38 
L 27.40625 38 
Q 27.09375 40.59375 25.1875 42.390625 
Q 23.296875 44.203125 19.90625 44.203125 
Q 16.40625 44.203125 14.40625 42.25 
Q 12.40625 40.296875 12.40625 36.796875 
Q 12.40625 35 13.25 33.75 
Q 14.09375 32.5 15.546875 31.59375 
Q 17 30.703125 18.84375 29.953125 
Q 20.703125 29.203125 22.703125 28.5 
Q 25 27.59375 27.34375 26.546875 
Q 29.703125 25.5 31.59375 23.953125 
Q 33.5 22.40625 34.703125 20.046875 
Q 35.90625 17.703125 35.90625 14.203125 
Q 35.90625 7 31.25 3 
Q 26.59375 -1 19.40625 -1 
Q 12.5 -1 8.09375 2.703125 
Q 3.703125 6.40625 3.203125 13 
z
" id="AUPassata-Regular-115"/>
     </defs>
     <g style="fill:#262626;" transform="translate(306.682227 258.675)scale(0.15 -0.15)">
      <use xlink:href="#AUPassata-Regular-78"/>
      <use x="71.199982" xlink:href="#AUPassata-Regular-117"/>
      <use x="126.599976" xlink:href="#AUPassata-Regular-109"/>
      <use x="214.299957" xlink:href="#AUPassata-Regular-98"/>
      <use x="274.599945" xlink:href="#AUPassata-Regular-101"/>
      <use x="332.799942" xlink:href="#AUPassata-Regular-114"/>
      <use x="362.199936" xlink:href="#AUPassata-Regular-32"/>
      <use x="386.199921" xlink:href="#AUPassata-Regular-111"/>
      <use x="444.18428" xlink:href="#AUPassata-Regular-102"/>
      <use x="473.384277" xlink:href="#AUPassata-Regular-32"/>
      <use x="497.384262" xlink:href="#AUPassata-Regular-117"/>
      <use x="552.784256" xlink:href="#AUPassata-Regular-115"/>
      <use x="592.384247" xlink:href="#AUPassata-Regular-101"/>
      <use x="650.584244" xlink:href="#AUPassata-Regular-114"/>
      <use x="679.984238" xlink:href="#AUPassata-Regular-115"/>
     </g>
    </g>
   </g>
   <g id="matplotlib.axis_2">
    <g id="ytick_1">
     <g id="text_7">
      <!-- Aarhus University -->
      <defs>
       <path d="M 32.703125 73.5 
L 67.203125 0 
L 59.09375 0 
L 50.5 18.5 
L 16.296875 18.5 
L 8.296875 0 
L 0.203125 0 
z
M 47.296875 25.5 
L 32.796875 56.703125 
L 19.296875 25.5 
z
" id="AUPassata-Regular-65"/>
       <path d="M 46.59375 6.5 
Q 39.59375 -1 29.59375 -1 
Q 24.203125 -1 19.453125 1.046875 
Q 14.703125 3.09375 11.203125 6.59375 
Q 7.703125 10.09375 5.640625 14.84375 
Q 3.59375 19.59375 3.59375 25 
Q 3.59375 30.40625 5.640625 35.15625 
Q 7.703125 39.90625 11.203125 43.40625 
Q 14.703125 46.90625 19.453125 48.953125 
Q 24.203125 51 29.59375 51 
Q 39.59375 51 46.59375 43.5 
L 46.59375 50 
L 53.796875 50 
L 53.796875 0 
L 46.59375 0 
z
M 46.59375 34.59375 
Q 45.5 36.203125 43.75 37.890625 
Q 42 39.59375 39.84375 41 
Q 37.703125 42.40625 35.09375 43.296875 
Q 32.5 44.203125 29.59375 44.203125 
Q 25.59375 44.203125 22.1875 42.703125 
Q 18.796875 41.203125 16.296875 38.59375 
Q 13.796875 36 12.390625 32.5 
Q 11 29 11 25 
Q 11 21 12.390625 17.5 
Q 13.796875 14 16.296875 11.390625 
Q 18.796875 8.796875 22.1875 7.296875 
Q 25.59375 5.796875 29.59375 5.796875 
Q 32.5 5.796875 35.09375 6.640625 
Q 37.703125 7.5 39.84375 8.84375 
Q 42 10.203125 43.75 11.953125 
Q 45.5 13.703125 46.59375 15.40625 
z
" id="AUPassata-Regular-97"/>
       <path d="M 6.5 70 
L 13.703125 70 
L 13.703125 43.5 
Q 16.703125 47.09375 21.203125 49.046875 
Q 25.703125 51 29.90625 51 
Q 39.703125 51 45.296875 45.703125 
Q 50.90625 40.40625 50.90625 29.09375 
L 50.90625 0 
L 43.59375 0 
L 43.59375 27.703125 
Q 43.59375 36.296875 39.9375 40.046875 
Q 36.296875 43.796875 29.40625 43.796875 
Q 27 43.796875 24.59375 42.9375 
Q 22.203125 42.09375 20.09375 40.75 
Q 18 39.40625 16.296875 37.796875 
Q 14.59375 36.203125 13.703125 34.59375 
L 13.703125 0 
L 6.5 0 
z
" id="AUPassata-Regular-104"/>
       <path d="M 7 70 
L 14.59375 70 
L 14.59375 25.296875 
Q 14.59375 19.703125 16.1875 15.890625 
Q 17.796875 12.09375 20.34375 9.796875 
Q 22.90625 7.5 26.15625 6.5 
Q 29.40625 5.5 32.703125 5.5 
Q 36 5.5 39.25 6.5 
Q 42.5 7.5 45.046875 9.796875 
Q 47.59375 12.09375 49.1875 15.890625 
Q 50.796875 19.703125 50.796875 25.296875 
L 50.796875 70 
L 58.40625 70 
L 58.40625 24.203125 
Q 58.40625 17.796875 56.203125 13 
Q 54 8.203125 50.34375 4.953125 
Q 46.703125 1.703125 42.09375 0.09375 
Q 37.5 -1.5 32.703125 -1.5 
Q 27.90625 -1.5 23.296875 0.09375 
Q 18.703125 1.703125 15.046875 4.953125 
Q 11.40625 8.203125 9.203125 13 
Q 7 17.796875 7 24.203125 
z
" id="AUPassata-Regular-85"/>
       <path d="M 6.5 50 
L 13.703125 50 
L 13.703125 43.5 
Q 16.703125 47.09375 21.203125 49.046875 
Q 25.703125 51 29.90625 51 
Q 39.703125 51 45.34375 45.703125 
Q 51 40.40625 51 29.09375 
L 51 0 
L 43.703125 0 
L 43.703125 27.703125 
Q 43.703125 36.296875 40 40.046875 
Q 36.296875 43.796875 29.40625 43.796875 
Q 27 43.796875 24.59375 42.9375 
Q 22.203125 42.09375 20.09375 40.75 
Q 18 39.40625 16.296875 37.796875 
Q 14.59375 36.203125 13.703125 34.59375 
L 13.703125 0 
L 6.5 0 
z
" id="AUPassata-Regular-110"/>
       <path d="M 7.59375 50 
L 14.796875 50 
L 14.796875 0 
L 7.59375 0 
z
M 7.59375 70 
L 14.796875 70 
L 14.796875 61.796875 
L 7.59375 61.796875 
z
" id="AUPassata-Regular-105"/>
       <path d="M 0 50 
L 8.203125 50 
L 25.796875 14.09375 
L 42.59375 50 
L 50.40625 50 
L 25.703125 -1.5 
z
" id="AUPassata-Regular-118"/>
       <path d="M 8 63.09375 
L 15.203125 63.09375 
L 15.203125 50 
L 25.203125 50 
L 25.203125 43.203125 
L 15.203125 43.203125 
L 15.203125 16.703125 
Q 15.203125 11.203125 17.25 9 
Q 19.296875 6.796875 23.203125 6.796875 
L 25.203125 6.796875 
L 25.203125 0 
L 23.203125 0 
Q 16.203125 0 12.09375 3.75 
Q 8 7.5 8 16.203125 
L 8 43.203125 
L 1 43.203125 
L 1 50 
L 8 50 
z
" id="AUPassata-Regular-116"/>
       <path d="M 4.09375 -13.203125 
L 6.09375 -13.203125 
Q 7.5 -13.203125 8.75 -13.046875 
Q 10 -12.90625 11.140625 -12.25 
Q 12.296875 -11.59375 13.390625 -10.25 
Q 14.5 -8.90625 15.703125 -6.5 
L 21.90625 6.09375 
L 0 50 
L 8.203125 50 
L 25.796875 14.09375 
L 42.59375 50 
L 50.40625 50 
L 21.703125 -9.59375 
Q 19.796875 -13.5 18 -15.59375 
Q 16.203125 -17.703125 14.296875 -18.640625 
Q 12.40625 -19.59375 10.34375 -19.796875 
Q 8.296875 -20 6.09375 -20 
L 4.09375 -20 
z
" id="AUPassata-Regular-121"/>
      </defs>
      <g style="fill:#262626;" transform="translate(47.036328 32.763125)scale(0.1375 -0.1375)">
       <use xlink:href="#AUPassata-Regular-65"/>
       <use x="67.368744" xlink:href="#AUPassata-Regular-97"/>
       <use x="127.668732" xlink:href="#AUPassata-Regular-114"/>
       <use x="157.068726" xlink:href="#AUPassata-Regular-104"/>
       <use x="213.56871" xlink:href="#AUPassata-Regular-117"/>
       <use x="268.968704" xlink:href="#AUPassata-Regular-115"/>
       <use x="308.568695" xlink:href="#AUPassata-Regular-32"/>
       <use x="332.56868" xlink:href="#AUPassata-Regular-85"/>
       <use x="397.968674" xlink:href="#AUPassata-Regular-110"/>
       <use x="454.468658" xlink:href="#AUPassata-Regular-105"/>
       <use x="476.868652" xlink:href="#AUPassata-Regular-118"/>
       <use x="527.237396" xlink:href="#AUPassata-Regular-101"/>
       <use x="585.437393" xlink:href="#AUPassata-Regular-114"/>
       <use x="614.837387" xlink:href="#AUPassata-Regular-115"/>
       <use x="654.437378" xlink:href="#AUPassata-Regular-105"/>
       <use x="676.837372" xlink:href="#AUPassata-Regular-116"/>
       <use x="705.037369" xlink:href="#AUPassata-Regular-121"/>
      </g>
     </g>
    </g>
    <g id="ytick_2">
     <g id="text_8">
      <!-- Region Midt -->
      <defs>
       <path d="M 7.40625 70 
L 31.703125 70 
Q 36.90625 70 41.046875 68.390625 
Q 45.203125 66.796875 48.046875 64.046875 
Q 50.90625 61.296875 52.453125 57.59375 
Q 54 53.90625 54 49.703125 
Q 54 45.796875 52.703125 42.34375 
Q 51.40625 38.90625 48.90625 36.25 
Q 46.40625 33.59375 42.84375 31.84375 
Q 39.296875 30.09375 34.796875 29.59375 
L 55 0 
L 45.90625 0 
L 25.90625 29.5 
L 14.90625 29.5 
L 14.90625 0 
L 7.40625 0 
z
M 31.203125 36.5 
Q 34.90625 36.5 37.796875 37.546875 
Q 40.703125 38.59375 42.59375 40.390625 
Q 44.5 42.203125 45.5 44.59375 
Q 46.5 47 46.5 49.703125 
Q 46.5 52.40625 45.5 54.84375 
Q 44.5 57.296875 42.59375 59.09375 
Q 40.703125 60.90625 37.796875 61.953125 
Q 34.90625 63 31.203125 63 
L 14.90625 63 
L 14.90625 36.5 
z
" id="AUPassata-Regular-82"/>
       <path d="M 28.5 -13.203125 
L 30.5 -13.203125 
Q 33.90625 -13.203125 36.84375 -12.203125 
Q 39.796875 -11.203125 42 -9.140625 
Q 44.203125 -7.09375 45.390625 -4 
Q 46.59375 -0.90625 46.59375 3.203125 
L 46.59375 6.5 
Q 39.59375 -1 29.59375 -1 
Q 24.203125 -1 19.453125 1.046875 
Q 14.703125 3.09375 11.203125 6.59375 
Q 7.703125 10.09375 5.640625 14.84375 
Q 3.59375 19.59375 3.59375 25 
Q 3.59375 30.40625 5.640625 35.15625 
Q 7.703125 39.90625 11.203125 43.40625 
Q 14.703125 46.90625 19.453125 48.953125 
Q 24.203125 51 29.59375 51 
Q 39.59375 51 46.59375 43.5 
L 46.59375 50 
L 53.796875 50 
L 53.796875 4.203125 
Q 53.59375 -7.703125 47.796875 -13.84375 
Q 42 -20 30.5 -20 
L 28.5 -20 
z
M 46.59375 34.59375 
Q 45.5 36.296875 43.75 38.046875 
Q 42 39.796875 39.84375 41.140625 
Q 37.703125 42.5 35.09375 43.34375 
Q 32.5 44.203125 29.59375 44.203125 
Q 25.59375 44.203125 22.1875 42.703125 
Q 18.796875 41.203125 16.296875 38.59375 
Q 13.796875 36 12.390625 32.5 
Q 11 29 11 25 
Q 11 21 12.390625 17.5 
Q 13.796875 14 16.296875 11.390625 
Q 18.796875 8.796875 22.1875 7.296875 
Q 25.59375 5.796875 29.59375 5.796875 
Q 32.5 5.796875 35.09375 6.6875 
Q 37.703125 7.59375 39.84375 9 
Q 42 10.40625 43.75 12.09375 
Q 45.5 13.796875 46.59375 15.40625 
z
" id="AUPassata-Regular-103"/>
       <path d="M 7.40625 72.5 
L 38.90625 35.5 
L 70.296875 72.5 
L 70.296875 0 
L 62.796875 0 
L 62.796875 53.09375 
L 38.90625 24.90625 
L 14.90625 53.203125 
L 14.90625 0 
L 7.40625 0 
z
" id="AUPassata-Regular-77"/>
       <path d="M 46.59375 6.5 
Q 39.59375 -1 29.59375 -1 
Q 24.203125 -1 19.453125 1.046875 
Q 14.703125 3.09375 11.203125 6.59375 
Q 7.703125 10.09375 5.640625 14.84375 
Q 3.59375 19.59375 3.59375 25 
Q 3.59375 30.40625 5.640625 35.15625 
Q 7.703125 39.90625 11.203125 43.40625 
Q 14.703125 46.90625 19.453125 48.953125 
Q 24.203125 51 29.59375 51 
Q 39.59375 51 46.59375 43.5 
L 46.59375 70 
L 53.796875 70 
L 53.796875 0 
L 46.59375 0 
z
M 46.59375 34.59375 
Q 45.5 36.203125 43.75 37.890625 
Q 42 39.59375 39.84375 41 
Q 37.703125 42.40625 35.09375 43.296875 
Q 32.5 44.203125 29.59375 44.203125 
Q 25.59375 44.203125 22.1875 42.703125 
Q 18.796875 41.203125 16.296875 38.59375 
Q 13.796875 36 12.390625 32.5 
Q 11 29 11 25 
Q 11 21 12.390625 17.5 
Q 13.796875 14 16.296875 11.390625 
Q 18.796875 8.796875 22.1875 7.296875 
Q 25.59375 5.796875 29.59375 5.796875 
Q 32.5 5.796875 35.09375 6.640625 
Q 37.703125 7.5 39.84375 8.84375 
Q 42 10.203125 43.75 11.953125 
Q 45.5 13.703125 46.59375 15.40625 
z
" id="AUPassata-Regular-100"/>
      </defs>
      <g style="fill:#262626;" transform="translate(78.45293 73.714375)scale(0.1375 -0.1375)">
       <use xlink:href="#AUPassata-Regular-82"/>
       <use x="58.98436" xlink:href="#AUPassata-Regular-101"/>
       <use x="117.184357" xlink:href="#AUPassata-Regular-103"/>
       <use x="177.484344" xlink:href="#AUPassata-Regular-105"/>
       <use x="199.884338" xlink:href="#AUPassata-Regular-111"/>
       <use x="257.884323" xlink:href="#AUPassata-Regular-110"/>
       <use x="314.384308" xlink:href="#AUPassata-Regular-32"/>
       <use x="338.384293" xlink:href="#AUPassata-Regular-77"/>
       <use x="416.084274" xlink:href="#AUPassata-Regular-105"/>
       <use x="438.484268" xlink:href="#AUPassata-Regular-100"/>
       <use x="498.784256" xlink:href="#AUPassata-Regular-116"/>
      </g>
     </g>
    </g>
    <g id="ytick_3">
     <g id="text_9">
      <!-- Copenhagen University -->
      <defs>
       <path d="M 71.5 20.5 
Q 69.703125 15.796875 66.5 11.796875 
Q 63.296875 7.796875 59.09375 4.84375 
Q 54.90625 1.90625 49.90625 0.203125 
Q 44.90625 -1.5 39.5 -1.5 
Q 31.796875 -1.5 25.140625 1.390625 
Q 18.5 4.296875 13.59375 9.25 
Q 8.703125 14.203125 5.84375 20.84375 
Q 3 27.5 3 35 
Q 3 42.5 5.890625 49.140625 
Q 8.796875 55.796875 13.75 60.75 
Q 18.703125 65.703125 25.34375 68.59375 
Q 32 71.5 39.5 71.5 
Q 44.59375 71.5 49.25 70 
Q 53.90625 68.5 57.90625 65.84375 
Q 61.90625 63.203125 65.046875 59.640625 
Q 68.203125 56.09375 70.203125 52 
L 61.5 52 
Q 58.296875 57.296875 52.4375 60.6875 
Q 46.59375 64.09375 39.40625 64.09375 
Q 33.40625 64.09375 28.15625 61.84375 
Q 22.90625 59.59375 19.09375 55.640625 
Q 15.296875 51.703125 13.09375 46.390625 
Q 10.90625 41.09375 10.90625 35 
Q 10.90625 29 13.09375 23.640625 
Q 15.296875 18.296875 19.140625 14.34375 
Q 23 10.40625 28.25 8.09375 
Q 33.5 5.796875 39.5 5.796875 
Q 43.40625 5.796875 47 6.9375 
Q 50.59375 8.09375 53.59375 10.046875 
Q 56.59375 12 58.9375 14.703125 
Q 61.296875 17.40625 62.796875 20.5 
z
" id="AUPassata-Regular-67"/>
       <path d="M 6.5 50 
L 13.703125 50 
L 13.703125 43.5 
Q 20.703125 51 30.703125 51 
Q 36.09375 51 40.84375 48.953125 
Q 45.59375 46.90625 49.09375 43.40625 
Q 52.59375 39.90625 54.640625 35.15625 
Q 56.703125 30.40625 56.703125 25 
Q 56.703125 19.59375 54.640625 14.84375 
Q 52.59375 10.09375 49.09375 6.59375 
Q 45.59375 3.09375 40.84375 1.046875 
Q 36.09375 -1 30.703125 -1 
Q 20.703125 -1 13.703125 6.5 
L 13.703125 -20 
L 6.5 -20 
z
M 13.703125 15.40625 
Q 14.796875 13.796875 16.546875 12.09375 
Q 18.296875 10.40625 20.4375 9 
Q 22.59375 7.59375 25.1875 6.6875 
Q 27.796875 5.796875 30.703125 5.796875 
Q 34.703125 5.796875 38.09375 7.296875 
Q 41.5 8.796875 44 11.390625 
Q 46.5 14 47.890625 17.5 
Q 49.296875 21 49.296875 25 
Q 49.296875 29 47.890625 32.5 
Q 46.5 36 44 38.59375 
Q 41.5 41.203125 38.09375 42.703125 
Q 34.703125 44.203125 30.703125 44.203125 
Q 27.796875 44.203125 25.1875 43.34375 
Q 22.59375 42.5 20.4375 41.140625 
Q 18.296875 39.796875 16.546875 38.046875 
Q 14.796875 36.296875 13.703125 34.59375 
z
" id="AUPassata-Regular-112"/>
      </defs>
      <g style="fill:#262626;" transform="translate(7.2 114.665625)scale(0.1375 -0.1375)">
       <use xlink:href="#AUPassata-Regular-67"/>
       <use x="73.499985" xlink:href="#AUPassata-Regular-111"/>
       <use x="131.499969" xlink:href="#AUPassata-Regular-112"/>
       <use x="191.799957" xlink:href="#AUPassata-Regular-101"/>
       <use x="249.999954" xlink:href="#AUPassata-Regular-110"/>
       <use x="306.499939" xlink:href="#AUPassata-Regular-104"/>
       <use x="362.999924" xlink:href="#AUPassata-Regular-97"/>
       <use x="423.299911" xlink:href="#AUPassata-Regular-103"/>
       <use x="483.599899" xlink:href="#AUPassata-Regular-101"/>
       <use x="541.799896" xlink:href="#AUPassata-Regular-110"/>
       <use x="598.299881" xlink:href="#AUPassata-Regular-32"/>
       <use x="622.299866" xlink:href="#AUPassata-Regular-85"/>
       <use x="687.69986" xlink:href="#AUPassata-Regular-110"/>
       <use x="744.199844" xlink:href="#AUPassata-Regular-105"/>
       <use x="766.599838" xlink:href="#AUPassata-Regular-118"/>
       <use x="816.968582" xlink:href="#AUPassata-Regular-101"/>
       <use x="875.168579" xlink:href="#AUPassata-Regular-114"/>
       <use x="904.568573" xlink:href="#AUPassata-Regular-115"/>
       <use x="944.168564" xlink:href="#AUPassata-Regular-105"/>
       <use x="966.568558" xlink:href="#AUPassata-Regular-116"/>
       <use x="994.768555" xlink:href="#AUPassata-Regular-121"/>
      </g>
     </g>
    </g>
    <g id="ytick_4">
     <g id="text_10">
      <!-- Harvard -->
      <defs>
       <path d="M 7.40625 70 
L 14.90625 70 
L 14.90625 40 
L 51.90625 40 
L 51.90625 70 
L 59.40625 70 
L 59.40625 0 
L 51.90625 0 
L 51.90625 33 
L 14.90625 33 
L 14.90625 0 
L 7.40625 0 
z
" id="AUPassata-Regular-72"/>
      </defs>
      <g style="fill:#262626;" transform="translate(101.849414 155.5825)scale(0.1375 -0.1375)">
       <use xlink:href="#AUPassata-Regular-72"/>
       <use x="66.799988" xlink:href="#AUPassata-Regular-97"/>
       <use x="127.099976" xlink:href="#AUPassata-Regular-114"/>
       <use x="156.468719" xlink:href="#AUPassata-Regular-118"/>
       <use x="206.868713" xlink:href="#AUPassata-Regular-97"/>
       <use x="267.168701" xlink:href="#AUPassata-Regular-114"/>
       <use x="296.537445" xlink:href="#AUPassata-Regular-100"/>
      </g>
     </g>
    </g>
    <g id="ytick_5">
     <g id="text_11">
      <!-- Private -->
      <defs>
       <path d="M 7.40625 70 
L 30.703125 70 
Q 35.90625 70 40.046875 68.390625 
Q 44.203125 66.796875 47.046875 64.046875 
Q 49.90625 61.296875 51.453125 57.59375 
Q 53 53.90625 53 49.703125 
Q 53 45.5 51.453125 41.796875 
Q 49.90625 38.09375 47.046875 35.390625 
Q 44.203125 32.703125 40.046875 31.09375 
Q 35.90625 29.5 30.703125 29.5 
L 14.90625 29.5 
L 14.90625 0 
L 7.40625 0 
z
M 30.203125 36.5 
Q 33.90625 36.5 36.796875 37.546875 
Q 39.703125 38.59375 41.59375 40.390625 
Q 43.5 42.203125 44.5 44.59375 
Q 45.5 47 45.5 49.703125 
Q 45.5 52.40625 44.5 54.84375 
Q 43.5 57.296875 41.59375 59.09375 
Q 39.703125 60.90625 36.796875 61.953125 
Q 33.90625 63 30.203125 63 
L 14.90625 63 
L 14.90625 36.5 
z
" id="AUPassata-Regular-80"/>
      </defs>
      <g style="fill:#262626;" transform="translate(108.988672 196.6025)scale(0.1375 -0.1375)">
       <use xlink:href="#AUPassata-Regular-80"/>
       <use x="55.999985" xlink:href="#AUPassata-Regular-114"/>
       <use x="85.399979" xlink:href="#AUPassata-Regular-105"/>
       <use x="107.799973" xlink:href="#AUPassata-Regular-118"/>
       <use x="158.199966" xlink:href="#AUPassata-Regular-97"/>
       <use x="218.499954" xlink:href="#AUPassata-Regular-116"/>
       <use x="246.699951" xlink:href="#AUPassata-Regular-101"/>
      </g>
     </g>
    </g>
   </g>
   <g id="patch_3">
    <path clip-path="url(#p5a05724e75)" d="M 170.41543 11.302 
L 532.772573 11.302 
L 532.772573 44.118 
L 170.41543 44.118 
z
" style="fill:#5875a4;stroke:#ffffff;stroke-linejoin:miter;"/>
   </g>
   <g id="patch_4">
    <path clip-path="url(#p5a05724e75)" d="M 170.41543 52.322 
L 299.474138 52.322 
L 299.474138 85.138 
L 170.41543 85.138 
z
" style="fill:#cc8963;stroke:#ffffff;stroke-linejoin:miter;"/>
   </g>
   <g id="patch_5">
    <path clip-path="url(#p5a05724e75)" d="M 170.41543 93.342 
L 195.234412 93.342 
L 195.234412 126.158 
L 170.41543 126.158 
z
" style="fill:#5f9e6e;stroke:#ffffff;stroke-linejoin:miter;"/>
   </g>
   <g id="patch_6">
    <path clip-path="url(#p5a05724e75)" d="M 170.41543 134.362 
L 191.925214 134.362 
L 191.925214 167.178 
L 170.41543 167.178 
z
" style="fill:#b55d60;stroke:#ffffff;stroke-linejoin:miter;"/>
   </g>
   <g id="patch_7">
    <path clip-path="url(#p5a05724e75)" d="M 170.41543 175.382 
L 191.925214 175.382 
L 191.925214 208.198 
L 170.41543 208.198 
z
" style="fill:#857aab;stroke:#ffffff;stroke-linejoin:miter;"/>
   </g>
   <g id="patch_8">
    <path d="M 160.41543 212.3 
L 160.41543 7.2 
" style="fill:none;stroke:#262626;stroke-linecap:square;stroke-linejoin:miter;stroke-width:1.25;"/>
   </g>
   <g id="patch_9">
    <path d="M 170.41543 222.3 
L 550.89043 222.3 
" style="fill:none;stroke:#262626;stroke-linecap:square;stroke-linejoin:miter;stroke-width:1.25;"/>
   </g>
  </g>
 </g>
 <defs>
  <clipPath id="p5a05724e75">
   <rect height="205.1" width="380.475" x="170.41543" y="7.2"/>
  </clipPath>
 </defs>
</svg>
