<?xml version="1.0" encoding="utf-8" standalone="no"?>
<!DOCTYPE svg PUBLIC "-//W3C//DTD SVG 1.1//EN"
  "http://www.w3.org/Graphics/SVG/1.1/DTD/svg11.dtd">
<!-- Created with matplotlib (https://matplotlib.org/) -->
<svg height="341.375pt" version="1.1" viewBox="0 0 557.565625 341.375" width="557.565625pt" xmlns="http://www.w3.org/2000/svg" xmlns:xlink="http://www.w3.org/1999/xlink">
 <defs>
  <style type="text/css">
*{stroke-linecap:butt;stroke-linejoin:round;}
  </style>
 </defs>
 <g id="figure_1">
  <g id="patch_1">
   <path d="M 0 341.375 
L 557.565625 341.375 
L 557.565625 0 
L 0 0 
z
" style="fill:none;"/>
  </g>
  <g id="axes_1">
   <g id="patch_2">
    <path d="M 60.25 302.3 
L 550.365625 302.3 
L 550.365625 7.2 
L 60.25 7.2 
z
" style="fill:none;"/>
   </g>
   <g id="matplotlib.axis_1">
    <g id="xtick_1">
     <g id="text_1">
      <!-- 2019-07 -->
      <defs>
       <path d="M 35.59375 37.703125 
Q 40.796875 44.296875 40.796875 50.703125 
Q 40.796875 53.5 39.796875 56 
Q 38.796875 58.5 37.09375 60.34375 
Q 35.40625 62.203125 33 63.25 
Q 30.59375 64.296875 27.796875 64.296875 
Q 24.90625 64.296875 22.5 63.25 
Q 20.09375 62.203125 18.34375 60.34375 
Q 16.59375 58.5 15.640625 56 
Q 14.703125 53.5 14.703125 50.703125 
L 7 50.703125 
Q 7 55 8.640625 58.796875 
Q 10.296875 62.59375 13.09375 65.390625 
Q 15.90625 68.203125 19.703125 69.84375 
Q 23.5 71.5 27.796875 71.5 
Q 32.09375 71.5 35.84375 69.84375 
Q 39.59375 68.203125 42.390625 65.390625 
Q 45.203125 62.59375 46.84375 58.796875 
Q 48.5 55 48.5 50.703125 
Q 48.5 45.90625 46.703125 41.546875 
Q 44.90625 37.203125 40.703125 32.09375 
L 19.5 7 
L 49.5 7 
L 49.5 0 
L 4.296875 0 
z
" id="AUPassata-Regular-50"/>
       <path d="M 4.703125 44.796875 
Q 4.703125 51.59375 6.59375 56.640625 
Q 8.5 61.703125 11.703125 65 
Q 14.90625 68.296875 19.25 69.890625 
Q 23.59375 71.5 28.5 71.5 
Q 33.40625 71.5 37.75 69.890625 
Q 42.09375 68.296875 45.296875 65 
Q 48.5 61.703125 50.390625 56.640625 
Q 52.296875 51.59375 52.296875 44.796875 
L 52.296875 25.203125 
Q 52.296875 18.296875 50.390625 13.25 
Q 48.5 8.203125 45.296875 4.890625 
Q 42.09375 1.59375 37.75 0.046875 
Q 33.40625 -1.5 28.5 -1.5 
Q 23.59375 -1.5 19.25 0.09375 
Q 14.90625 1.703125 11.703125 5 
Q 8.5 8.296875 6.59375 13.34375 
Q 4.703125 18.40625 4.703125 25.203125 
z
M 12.40625 23.796875 
Q 12.40625 19.296875 13.703125 15.890625 
Q 15 12.5 17.140625 10.25 
Q 19.296875 8 22.25 6.84375 
Q 25.203125 5.703125 28.5 5.703125 
Q 31.796875 5.703125 34.75 6.84375 
Q 37.703125 8 39.84375 10.25 
Q 42 12.5 43.296875 15.890625 
Q 44.59375 19.296875 44.59375 23.796875 
L 44.59375 46.203125 
Q 44.59375 50.703125 43.296875 54.09375 
Q 42 57.5 39.84375 59.75 
Q 37.703125 62 34.75 63.140625 
Q 31.796875 64.296875 28.5 64.296875 
Q 25.203125 64.296875 22.25 63.140625 
Q 19.296875 62 17.140625 59.75 
Q 15 57.5 13.703125 54.09375 
Q 12.40625 50.703125 12.40625 46.203125 
z
" id="AUPassata-Regular-48"/>
       <path d="M 27.5 63 
L 14.5 63 
L 14.5 70 
L 35 70 
L 35 0 
L 27.5 0 
z
" id="AUPassata-Regular-49"/>
       <path d="M 33.40625 27.296875 
Q 31 26.5 28.203125 26.5 
Q 23.5 26.5 19.453125 28.25 
Q 15.40625 30 12.296875 33.09375 
Q 9.203125 36.203125 7.453125 40.25 
Q 5.703125 44.296875 5.703125 49 
Q 5.703125 53.59375 7.453125 57.6875 
Q 9.203125 61.796875 12.296875 64.890625 
Q 15.40625 68 19.453125 69.75 
Q 23.5 71.5 28.203125 71.5 
Q 32.796875 71.5 36.890625 69.75 
Q 41 68 44.09375 64.890625 
Q 47.203125 61.796875 48.953125 57.6875 
Q 50.703125 53.59375 50.703125 49 
Q 50.703125 42.59375 47.40625 37.296875 
L 25.90625 0 
L 17.09375 0 
z
M 28.203125 33.5 
Q 31.40625 33.5 34.15625 34.703125 
Q 36.90625 35.90625 38.84375 38 
Q 40.796875 40.09375 41.890625 42.9375 
Q 43 45.796875 43 49 
Q 43 52.203125 41.890625 55 
Q 40.796875 57.796875 38.84375 59.84375 
Q 36.90625 61.90625 34.15625 63.09375 
Q 31.40625 64.296875 28.203125 64.296875 
Q 25 64.296875 22.25 63.09375 
Q 19.5 61.90625 17.546875 59.84375 
Q 15.59375 57.796875 14.5 55 
Q 13.40625 52.203125 13.40625 49 
Q 13.40625 45.796875 14.5 42.9375 
Q 15.59375 40.09375 17.546875 38 
Q 19.5 35.90625 22.25 34.703125 
Q 25 33.5 28.203125 33.5 
z
" id="AUPassata-Regular-57"/>
       <path d="M 6 29.796875 
L 31 29.796875 
L 31 23 
L 6 23 
z
" id="AUPassata-Regular-45"/>
       <path d="M 42.296875 63 
L 5 63 
L 5 70 
L 54.796875 70 
L 14.296875 0 
L 5.59375 0 
z
" id="AUPassata-Regular-55"/>
      </defs>
      <g style="fill:#262626;" transform="translate(92.89327 331.425)scale(0.1375 -0.1375)">
       <use xlink:href="#AUPassata-Regular-50"/>
       <use x="56.999985" xlink:href="#AUPassata-Regular-48"/>
       <use x="113.999969" xlink:href="#AUPassata-Regular-49"/>
       <use x="170.999954" xlink:href="#AUPassata-Regular-57"/>
       <use x="227.999939" xlink:href="#AUPassata-Regular-45"/>
       <use x="264.999924" xlink:href="#AUPassata-Regular-48"/>
       <use x="321.999908" xlink:href="#AUPassata-Regular-55"/>
      </g>
     </g>
    </g>
    <g id="xtick_2">
     <g id="text_2">
      <!-- 2019-09 -->
      <g style="fill:#262626;" transform="translate(168.165841 331.425)scale(0.1375 -0.1375)">
       <use xlink:href="#AUPassata-Regular-50"/>
       <use x="56.999985" xlink:href="#AUPassata-Regular-48"/>
       <use x="113.999969" xlink:href="#AUPassata-Regular-49"/>
       <use x="170.999954" xlink:href="#AUPassata-Regular-57"/>
       <use x="227.999939" xlink:href="#AUPassata-Regular-45"/>
       <use x="264.999924" xlink:href="#AUPassata-Regular-48"/>
       <use x="321.999908" xlink:href="#AUPassata-Regular-57"/>
      </g>
     </g>
    </g>
    <g id="xtick_3">
     <g id="text_3">
      <!-- 2019-11 -->
      <g style="fill:#262626;" transform="translate(242.224338 331.425)scale(0.1375 -0.1375)">
       <use xlink:href="#AUPassata-Regular-50"/>
       <use x="56.999985" xlink:href="#AUPassata-Regular-48"/>
       <use x="113.999969" xlink:href="#AUPassata-Regular-49"/>
       <use x="170.999954" xlink:href="#AUPassata-Regular-57"/>
       <use x="227.999939" xlink:href="#AUPassata-Regular-45"/>
       <use x="264.999924" xlink:href="#AUPassata-Regular-49"/>
       <use x="321.999908" xlink:href="#AUPassata-Regular-49"/>
      </g>
     </g>
    </g>
    <g id="xtick_4">
     <g id="text_4">
      <!-- 2020-01 -->
      <g style="fill:#262626;" transform="translate(316.282834 331.425)scale(0.1375 -0.1375)">
       <use xlink:href="#AUPassata-Regular-50"/>
       <use x="56.999985" xlink:href="#AUPassata-Regular-48"/>
       <use x="113.999969" xlink:href="#AUPassata-Regular-50"/>
       <use x="170.999954" xlink:href="#AUPassata-Regular-48"/>
       <use x="227.999939" xlink:href="#AUPassata-Regular-45"/>
       <use x="264.999924" xlink:href="#AUPassata-Regular-48"/>
       <use x="321.999908" xlink:href="#AUPassata-Regular-49"/>
      </g>
     </g>
    </g>
    <g id="xtick_5">
     <g id="text_5">
      <!-- 2020-03 -->
      <defs>
       <path d="M 14.09375 21 
Q 14.09375 14.09375 17.75 9.890625 
Q 21.40625 5.703125 27.90625 5.703125 
Q 30.796875 5.703125 33.25 6.75 
Q 35.703125 7.796875 37.5 9.59375 
Q 39.296875 11.40625 40.296875 13.84375 
Q 41.296875 16.296875 41.296875 19.203125 
Q 41.296875 22 40.34375 24.546875 
Q 39.40625 27.09375 37.546875 28.9375 
Q 35.703125 30.796875 32.84375 31.890625 
Q 30 33 26.203125 33 
L 26.203125 40 
Q 33.203125 40 36.453125 43.546875 
Q 39.703125 47.09375 39.703125 52.203125 
Q 39.703125 54.703125 38.796875 56.953125 
Q 37.90625 59.203125 36.296875 60.796875 
Q 34.703125 62.40625 32.546875 63.34375 
Q 30.40625 64.296875 27.90625 64.296875 
Q 22 64.296875 18.796875 60.390625 
Q 15.59375 56.5 15.59375 50.703125 
L 7.90625 50.703125 
Q 7.90625 55.296875 9.296875 59.09375 
Q 10.703125 62.90625 13.296875 65.65625 
Q 15.90625 68.40625 19.59375 69.953125 
Q 23.296875 71.5 27.90625 71.5 
Q 31.90625 71.5 35.453125 70 
Q 39 68.5 41.640625 65.84375 
Q 44.296875 63.203125 45.84375 59.703125 
Q 47.40625 56.203125 47.40625 52.203125 
Q 47.40625 47 44.953125 42.796875 
Q 42.5 38.59375 38.40625 36.59375 
Q 43.203125 34.40625 46.046875 29.75 
Q 48.90625 25.09375 48.90625 19.203125 
Q 48.90625 14.90625 47.25 11.15625 
Q 45.59375 7.40625 42.75 4.59375 
Q 39.90625 1.796875 36.09375 0.140625 
Q 32.296875 -1.5 27.90625 -1.5 
Q 23.40625 -1.5 19.453125 0.203125 
Q 15.5 1.90625 12.59375 4.90625 
Q 9.703125 7.90625 8.046875 12 
Q 6.40625 16.09375 6.40625 21 
z
" id="AUPassata-Regular-51"/>
      </defs>
      <g style="fill:#262626;" transform="translate(389.127258 331.425)scale(0.1375 -0.1375)">
       <use xlink:href="#AUPassata-Regular-50"/>
       <use x="56.999985" xlink:href="#AUPassata-Regular-48"/>
       <use x="113.999969" xlink:href="#AUPassata-Regular-50"/>
       <use x="170.999954" xlink:href="#AUPassata-Regular-48"/>
       <use x="227.999939" xlink:href="#AUPassata-Regular-45"/>
       <use x="264.999924" xlink:href="#AUPassata-Regular-48"/>
       <use x="321.999908" xlink:href="#AUPassata-Regular-51"/>
      </g>
     </g>
    </g>
    <g id="xtick_6">
     <g id="text_6">
      <!-- 2020-05 -->
      <defs>
       <path d="M 13.59375 21 
Q 13.59375 17.796875 14.6875 15 
Q 15.796875 12.203125 17.75 10.140625 
Q 19.703125 8.09375 22.453125 6.890625 
Q 25.203125 5.703125 28.40625 5.703125 
Q 31.59375 5.703125 34.34375 6.890625 
Q 37.09375 8.09375 39.046875 10.140625 
Q 41 12.203125 42.09375 15 
Q 43.203125 17.796875 43.203125 21 
Q 43.203125 24.203125 42.09375 27.046875 
Q 41 29.90625 39.046875 32 
Q 37.09375 34.09375 34.34375 35.296875 
Q 31.59375 36.5 28.40625 36.5 
Q 26.703125 36.5 24.890625 36.140625 
Q 23.09375 35.796875 21.34375 35.1875 
Q 19.59375 34.59375 18.046875 33.75 
Q 16.5 32.90625 15.5 31.796875 
L 8.703125 31.796875 
L 12.40625 70 
L 45.90625 70 
L 45.90625 63 
L 19.203125 63 
L 17 40.09375 
Q 19.5 41.59375 22.34375 42.546875 
Q 25.203125 43.5 28.40625 43.5 
Q 33 43.5 37.09375 41.75 
Q 41.203125 40 44.296875 36.890625 
Q 47.40625 33.796875 49.15625 29.6875 
Q 50.90625 25.59375 50.90625 21 
Q 50.90625 16.296875 49.15625 12.25 
Q 47.40625 8.203125 44.296875 5.09375 
Q 41.203125 2 37.09375 0.25 
Q 33 -1.5 28.40625 -1.5 
Q 23.703125 -1.5 19.640625 0.25 
Q 15.59375 2 12.5 5.09375 
Q 9.40625 8.203125 7.65625 12.25 
Q 5.90625 16.296875 5.90625 21 
z
" id="AUPassata-Regular-53"/>
      </defs>
      <g style="fill:#262626;" transform="translate(463.185754 331.425)scale(0.1375 -0.1375)">
       <use xlink:href="#AUPassata-Regular-50"/>
       <use x="56.999985" xlink:href="#AUPassata-Regular-48"/>
       <use x="113.999969" xlink:href="#AUPassata-Regular-50"/>
       <use x="170.999954" xlink:href="#AUPassata-Regular-48"/>
       <use x="227.999939" xlink:href="#AUPassata-Regular-45"/>
       <use x="264.999924" xlink:href="#AUPassata-Regular-48"/>
       <use x="321.999908" xlink:href="#AUPassata-Regular-53"/>
      </g>
     </g>
    </g>
   </g>
   <g id="matplotlib.axis_2">
    <g id="ytick_1">
     <g id="text_7">
      <!-- 0 -->
      <g style="fill:#262626;" transform="translate(32.9125 293.711205)scale(0.1375 -0.1375)">
       <use xlink:href="#AUPassata-Regular-48"/>
      </g>
     </g>
    </g>
    <g id="ytick_2">
     <g id="text_8">
      <!-- 2 -->
      <g style="fill:#262626;" transform="translate(32.9125 256.539397)scale(0.1375 -0.1375)">
       <use xlink:href="#AUPassata-Regular-50"/>
      </g>
     </g>
    </g>
    <g id="ytick_3">
     <g id="text_9">
      <!-- 4 -->
      <defs>
       <path d="M 32.703125 70 
L 41.5 70 
L 15.203125 25.5 
L 41.5 25.5 
L 41.5 50 
L 49 50 
L 49 0 
L 41.5 0 
L 41.5 18.5 
L 2.90625 18.5 
z
" id="AUPassata-Regular-52"/>
      </defs>
      <g style="fill:#262626;" transform="translate(32.9125 219.367589)scale(0.1375 -0.1375)">
       <use xlink:href="#AUPassata-Regular-52"/>
      </g>
     </g>
    </g>
    <g id="ytick_4">
     <g id="text_10">
      <!-- 6 -->
      <defs>
       <path d="M 31.09375 70 
L 39.90625 70 
L 23.5 42.59375 
Q 24.59375 43 25.890625 43.25 
Q 27.203125 43.5 28.796875 43.5 
Q 33.40625 43.5 37.5 41.75 
Q 41.59375 40 44.6875 36.890625 
Q 47.796875 33.796875 49.546875 29.6875 
Q 51.296875 25.59375 51.296875 21 
Q 51.296875 16.296875 49.546875 12.25 
Q 47.796875 8.203125 44.6875 5.09375 
Q 41.59375 2 37.5 0.25 
Q 33.40625 -1.5 28.796875 -1.5 
Q 24.09375 -1.5 20.046875 0.25 
Q 16 2 12.890625 5.09375 
Q 9.796875 8.203125 8.046875 12.25 
Q 6.296875 16.296875 6.296875 21 
Q 6.296875 27.40625 9.59375 32.703125 
z
M 28.796875 5.703125 
Q 32 5.703125 34.75 6.890625 
Q 37.5 8.09375 39.453125 10.140625 
Q 41.40625 12.203125 42.5 15 
Q 43.59375 17.796875 43.59375 21 
Q 43.59375 24.203125 42.5 27.046875 
Q 41.40625 29.90625 39.453125 32 
Q 37.5 34.09375 34.75 35.296875 
Q 32 36.5 28.796875 36.5 
Q 25.59375 36.5 22.84375 35.296875 
Q 20.09375 34.09375 18.140625 32 
Q 16.203125 29.90625 15.09375 27.046875 
Q 14 24.203125 14 21 
Q 14 17.796875 15.09375 15 
Q 16.203125 12.203125 18.140625 10.140625 
Q 20.09375 8.09375 22.84375 6.890625 
Q 25.59375 5.703125 28.796875 5.703125 
z
" id="AUPassata-Regular-54"/>
      </defs>
      <g style="fill:#262626;" transform="translate(32.9125 182.195782)scale(0.1375 -0.1375)">
       <use xlink:href="#AUPassata-Regular-54"/>
      </g>
     </g>
    </g>
    <g id="ytick_5">
     <g id="text_11">
      <!-- 8 -->
      <defs>
       <path d="M 16.90625 36.796875 
Q 12.703125 39.296875 10.390625 43.140625 
Q 8.09375 47 8.09375 52.203125 
Q 8.09375 56.203125 9.59375 59.703125 
Q 11.09375 63.203125 13.75 65.84375 
Q 16.40625 68.5 19.90625 70 
Q 23.40625 71.5 27.40625 71.5 
Q 31.40625 71.5 34.90625 70 
Q 38.40625 68.5 41 65.84375 
Q 43.59375 63.203125 45.09375 59.703125 
Q 46.59375 56.203125 46.59375 52.203125 
Q 46.59375 47 44.25 43.140625 
Q 41.90625 39.296875 37.796875 36.796875 
Q 42.59375 34.203125 45.34375 29.640625 
Q 48.09375 25.09375 48.09375 19.203125 
Q 48.09375 14.90625 46.4375 11.15625 
Q 44.796875 7.40625 42 4.59375 
Q 39.203125 1.796875 35.453125 0.140625 
Q 31.703125 -1.5 27.40625 -1.5 
Q 23.09375 -1.5 19.296875 0.140625 
Q 15.5 1.796875 12.703125 4.59375 
Q 9.90625 7.40625 8.25 11.15625 
Q 6.59375 14.90625 6.59375 19.203125 
Q 6.59375 25.09375 9.34375 29.640625 
Q 12.09375 34.203125 16.90625 36.796875 
z
M 27.40625 5.703125 
Q 30.203125 5.703125 32.59375 6.75 
Q 35 7.796875 36.75 9.59375 
Q 38.5 11.40625 39.5 13.84375 
Q 40.5 16.296875 40.5 19.203125 
Q 40.5 22 39.5 24.5 
Q 38.5 27 36.75 28.84375 
Q 35 30.703125 32.59375 31.75 
Q 30.203125 32.796875 27.40625 32.796875 
Q 24.5 32.796875 22.09375 31.75 
Q 19.703125 30.703125 17.953125 28.84375 
Q 16.203125 27 15.25 24.5 
Q 14.296875 22 14.296875 19.203125 
Q 14.296875 16.296875 15.25 13.84375 
Q 16.203125 11.40625 17.953125 9.59375 
Q 19.703125 7.796875 22.09375 6.75 
Q 24.5 5.703125 27.40625 5.703125 
z
M 27.40625 40.203125 
Q 29.90625 40.203125 32 41.09375 
Q 34.09375 42 35.640625 43.640625 
Q 37.203125 45.296875 38.046875 47.4375 
Q 38.90625 49.59375 38.90625 52.203125 
Q 38.90625 54.703125 38.046875 56.953125 
Q 37.203125 59.203125 35.640625 60.796875 
Q 34.09375 62.40625 32 63.34375 
Q 29.90625 64.296875 27.40625 64.296875 
Q 24.796875 64.296875 22.640625 63.34375 
Q 20.5 62.40625 19 60.796875 
Q 17.5 59.203125 16.640625 56.953125 
Q 15.796875 54.703125 15.796875 52.203125 
Q 15.796875 47.09375 19 43.640625 
Q 22.203125 40.203125 27.40625 40.203125 
z
" id="AUPassata-Regular-56"/>
      </defs>
      <g style="fill:#262626;" transform="translate(32.9125 145.023974)scale(0.1375 -0.1375)">
       <use xlink:href="#AUPassata-Regular-56"/>
      </g>
     </g>
    </g>
    <g id="ytick_6">
     <g id="text_12">
      <!-- 10 -->
      <g style="fill:#262626;" transform="translate(25.075 107.852166)scale(0.1375 -0.1375)">
       <use xlink:href="#AUPassata-Regular-49"/>
       <use x="56.999985" xlink:href="#AUPassata-Regular-48"/>
      </g>
     </g>
    </g>
    <g id="ytick_7">
     <g id="text_13">
      <!-- 12 -->
      <g style="fill:#262626;" transform="translate(25.075 70.680359)scale(0.1375 -0.1375)">
       <use xlink:href="#AUPassata-Regular-49"/>
       <use x="56.999985" xlink:href="#AUPassata-Regular-50"/>
      </g>
     </g>
    </g>
    <g id="ytick_8">
     <g id="text_14">
      <!-- 14 -->
      <g style="fill:#262626;" transform="translate(25.075 33.508551)scale(0.1375 -0.1375)">
       <use xlink:href="#AUPassata-Regular-49"/>
       <use x="56.999985" xlink:href="#AUPassata-Regular-52"/>
      </g>
     </g>
    </g>
    <g id="text_15">
     <!-- Mio. billing hours -->
     <defs>
      <path d="M 7.40625 72.5 
L 38.90625 35.5 
L 70.296875 72.5 
L 70.296875 0 
L 62.796875 0 
L 62.796875 53.09375 
L 38.90625 24.90625 
L 14.90625 53.203125 
L 14.90625 0 
L 7.40625 0 
z
" id="AUPassata-Regular-77"/>
      <path d="M 7.59375 50 
L 14.796875 50 
L 14.796875 0 
L 7.59375 0 
z
M 7.59375 70 
L 14.796875 70 
L 14.796875 61.796875 
L 7.59375 61.796875 
z
" id="AUPassata-Regular-105"/>
      <path d="M 3 25 
Q 3 30.40625 5.046875 35.15625 
Q 7.09375 39.90625 10.59375 43.40625 
Q 14.09375 46.90625 18.84375 48.953125 
Q 23.59375 51 29 51 
Q 34.40625 51 39.15625 48.953125 
Q 43.90625 46.90625 47.40625 43.40625 
Q 50.90625 39.90625 52.953125 35.15625 
Q 55 30.40625 55 25 
Q 55 19.59375 52.953125 14.84375 
Q 50.90625 10.09375 47.40625 6.59375 
Q 43.90625 3.09375 39.15625 1.046875 
Q 34.40625 -1 29 -1 
Q 23.59375 -1 18.84375 1.046875 
Q 14.09375 3.09375 10.59375 6.59375 
Q 7.09375 10.09375 5.046875 14.84375 
Q 3 19.59375 3 25 
z
M 29 6.09375 
Q 33 6.09375 36.34375 7.546875 
Q 39.703125 9 42.203125 11.546875 
Q 44.703125 14.09375 46.09375 17.546875 
Q 47.5 21 47.5 25 
Q 47.5 29 46.09375 32.453125 
Q 44.703125 35.90625 42.203125 38.453125 
Q 39.703125 41 36.34375 42.453125 
Q 33 43.90625 29 43.90625 
Q 25 43.90625 21.59375 42.453125 
Q 18.203125 41 15.75 38.453125 
Q 13.296875 35.90625 11.890625 32.453125 
Q 10.5 29 10.5 25 
Q 10.5 21 11.890625 17.546875 
Q 13.296875 14.09375 15.75 11.546875 
Q 18.203125 9 21.59375 7.546875 
Q 25 6.09375 29 6.09375 
z
" id="AUPassata-Regular-111"/>
      <path d="M 5.703125 10.703125 
L 13.90625 10.703125 
L 13.90625 0 
L 5.703125 0 
z
" id="AUPassata-Regular-46"/>
      <path id="AUPassata-Regular-32"/>
      <path d="M 6.5 70 
L 13.703125 70 
L 13.703125 43.5 
Q 20.703125 51 30.703125 51 
Q 36.09375 51 40.84375 48.953125 
Q 45.59375 46.90625 49.09375 43.40625 
Q 52.59375 39.90625 54.640625 35.15625 
Q 56.703125 30.40625 56.703125 25 
Q 56.703125 19.59375 54.640625 14.84375 
Q 52.59375 10.09375 49.09375 6.59375 
Q 45.59375 3.09375 40.84375 1.046875 
Q 36.09375 -1 30.703125 -1 
Q 20.703125 -1 13.703125 6.5 
L 13.703125 0 
L 6.5 0 
z
M 13.703125 15.40625 
Q 14.796875 13.703125 16.546875 11.953125 
Q 18.296875 10.203125 20.4375 8.84375 
Q 22.59375 7.5 25.1875 6.640625 
Q 27.796875 5.796875 30.703125 5.796875 
Q 34.703125 5.796875 38.09375 7.296875 
Q 41.5 8.796875 44 11.390625 
Q 46.5 14 47.890625 17.5 
Q 49.296875 21 49.296875 25 
Q 49.296875 29 47.890625 32.5 
Q 46.5 36 44 38.59375 
Q 41.5 41.203125 38.09375 42.703125 
Q 34.703125 44.203125 30.703125 44.203125 
Q 27.796875 44.203125 25.1875 43.296875 
Q 22.59375 42.40625 20.4375 41 
Q 18.296875 39.59375 16.546875 37.890625 
Q 14.796875 36.203125 13.703125 34.59375 
z
" id="AUPassata-Regular-98"/>
      <path d="M 7.59375 70 
L 14.796875 70 
L 14.796875 0 
L 7.59375 0 
z
" id="AUPassata-Regular-108"/>
      <path d="M 6.5 50 
L 13.703125 50 
L 13.703125 43.5 
Q 16.703125 47.09375 21.203125 49.046875 
Q 25.703125 51 29.90625 51 
Q 39.703125 51 45.34375 45.703125 
Q 51 40.40625 51 29.09375 
L 51 0 
L 43.703125 0 
L 43.703125 27.703125 
Q 43.703125 36.296875 40 40.046875 
Q 36.296875 43.796875 29.40625 43.796875 
Q 27 43.796875 24.59375 42.9375 
Q 22.203125 42.09375 20.09375 40.75 
Q 18 39.40625 16.296875 37.796875 
Q 14.59375 36.203125 13.703125 34.59375 
L 13.703125 0 
L 6.5 0 
z
" id="AUPassata-Regular-110"/>
      <path d="M 28.5 -13.203125 
L 30.5 -13.203125 
Q 33.90625 -13.203125 36.84375 -12.203125 
Q 39.796875 -11.203125 42 -9.140625 
Q 44.203125 -7.09375 45.390625 -4 
Q 46.59375 -0.90625 46.59375 3.203125 
L 46.59375 6.5 
Q 39.59375 -1 29.59375 -1 
Q 24.203125 -1 19.453125 1.046875 
Q 14.703125 3.09375 11.203125 6.59375 
Q 7.703125 10.09375 5.640625 14.84375 
Q 3.59375 19.59375 3.59375 25 
Q 3.59375 30.40625 5.640625 35.15625 
Q 7.703125 39.90625 11.203125 43.40625 
Q 14.703125 46.90625 19.453125 48.953125 
Q 24.203125 51 29.59375 51 
Q 39.59375 51 46.59375 43.5 
L 46.59375 50 
L 53.796875 50 
L 53.796875 4.203125 
Q 53.59375 -7.703125 47.796875 -13.84375 
Q 42 -20 30.5 -20 
L 28.5 -20 
z
M 46.59375 34.59375 
Q 45.5 36.296875 43.75 38.046875 
Q 42 39.796875 39.84375 41.140625 
Q 37.703125 42.5 35.09375 43.34375 
Q 32.5 44.203125 29.59375 44.203125 
Q 25.59375 44.203125 22.1875 42.703125 
Q 18.796875 41.203125 16.296875 38.59375 
Q 13.796875 36 12.390625 32.5 
Q 11 29 11 25 
Q 11 21 12.390625 17.5 
Q 13.796875 14 16.296875 11.390625 
Q 18.796875 8.796875 22.1875 7.296875 
Q 25.59375 5.796875 29.59375 5.796875 
Q 32.5 5.796875 35.09375 6.6875 
Q 37.703125 7.59375 39.84375 9 
Q 42 10.40625 43.75 12.09375 
Q 45.5 13.796875 46.59375 15.40625 
z
" id="AUPassata-Regular-103"/>
      <path d="M 6.5 70 
L 13.703125 70 
L 13.703125 43.5 
Q 16.703125 47.09375 21.203125 49.046875 
Q 25.703125 51 29.90625 51 
Q 39.703125 51 45.296875 45.703125 
Q 50.90625 40.40625 50.90625 29.09375 
L 50.90625 0 
L 43.59375 0 
L 43.59375 27.703125 
Q 43.59375 36.296875 39.9375 40.046875 
Q 36.296875 43.796875 29.40625 43.796875 
Q 27 43.796875 24.59375 42.9375 
Q 22.203125 42.09375 20.09375 40.75 
Q 18 39.40625 16.296875 37.796875 
Q 14.59375 36.203125 13.703125 34.59375 
L 13.703125 0 
L 6.5 0 
z
" id="AUPassata-Regular-104"/>
      <path d="M 6.5 50 
L 13.796875 50 
L 13.796875 22.296875 
Q 13.796875 13.703125 16.890625 9.953125 
Q 20 6.203125 26.5 6.203125 
Q 29.09375 6.203125 31.4375 7.046875 
Q 33.796875 7.90625 35.75 9.25 
Q 37.703125 10.59375 39.25 12.1875 
Q 40.796875 13.796875 41.703125 15.40625 
L 41.703125 50 
L 48.90625 50 
L 48.90625 0 
L 41.703125 0 
L 41.703125 6.5 
Q 38.703125 2.90625 34.59375 0.953125 
Q 30.5 -1 26 -1 
Q 21.59375 -1 18 0.296875 
Q 14.40625 1.59375 11.84375 4.296875 
Q 9.296875 7 7.890625 11.140625 
Q 6.5 15.296875 6.5 20.90625 
z
" id="AUPassata-Regular-117"/>
      <path d="M 6.5 50 
L 13.703125 50 
L 13.703125 42.5 
Q 15.703125 45.703125 18.796875 47.84375 
Q 21.90625 50 26.40625 50 
L 28.40625 50 
L 28.40625 42.796875 
L 26.40625 42.796875 
Q 21.90625 42.796875 18.703125 40.09375 
Q 15.5 37.40625 13.703125 32.59375 
L 13.703125 0 
L 6.5 0 
z
" id="AUPassata-Regular-114"/>
      <path d="M 10.5 13 
Q 10.703125 9.5 13.140625 7.640625 
Q 15.59375 5.796875 19.40625 5.796875 
Q 23.59375 5.796875 26.046875 7.890625 
Q 28.5 10 28.5 14.203125 
Q 28.5 15.90625 27.75 17.09375 
Q 27 18.296875 25.75 19.1875 
Q 24.5 20.09375 22.84375 20.796875 
Q 21.203125 21.5 19.40625 22.203125 
Q 16.90625 23.09375 14.34375 24.140625 
Q 11.796875 25.203125 9.6875 26.796875 
Q 7.59375 28.40625 6.296875 30.796875 
Q 5 33.203125 5 36.796875 
Q 5 40.09375 6.09375 42.75 
Q 7.203125 45.40625 9.203125 47.203125 
Q 11.203125 49 13.890625 50 
Q 16.59375 51 19.90625 51 
Q 26.5 51 30.34375 47.5 
Q 34.203125 44 34.59375 38 
L 27.40625 38 
Q 27.09375 40.59375 25.1875 42.390625 
Q 23.296875 44.203125 19.90625 44.203125 
Q 16.40625 44.203125 14.40625 42.25 
Q 12.40625 40.296875 12.40625 36.796875 
Q 12.40625 35 13.25 33.75 
Q 14.09375 32.5 15.546875 31.59375 
Q 17 30.703125 18.84375 29.953125 
Q 20.703125 29.203125 22.703125 28.5 
Q 25 27.59375 27.34375 26.546875 
Q 29.703125 25.5 31.59375 23.953125 
Q 33.5 22.40625 34.703125 20.046875 
Q 35.90625 17.703125 35.90625 14.203125 
Q 35.90625 7 31.25 3 
Q 26.59375 -1 19.40625 -1 
Q 12.5 -1 8.09375 2.703125 
Q 3.703125 6.40625 3.203125 13 
z
" id="AUPassata-Regular-115"/>
     </defs>
     <g style="fill:#262626;" transform="translate(18.075 209.592578)rotate(-90)scale(0.15 -0.15)">
      <use xlink:href="#AUPassata-Regular-77"/>
      <use x="77.699982" xlink:href="#AUPassata-Regular-105"/>
      <use x="100.099976" xlink:href="#AUPassata-Regular-111"/>
      <use x="158.09996" xlink:href="#AUPassata-Regular-46"/>
      <use x="177.599945" xlink:href="#AUPassata-Regular-32"/>
      <use x="201.59993" xlink:href="#AUPassata-Regular-98"/>
      <use x="261.899918" xlink:href="#AUPassata-Regular-105"/>
      <use x="284.299911" xlink:href="#AUPassata-Regular-108"/>
      <use x="306.699905" xlink:href="#AUPassata-Regular-108"/>
      <use x="329.099899" xlink:href="#AUPassata-Regular-105"/>
      <use x="351.499893" xlink:href="#AUPassata-Regular-110"/>
      <use x="407.999878" xlink:href="#AUPassata-Regular-103"/>
      <use x="468.299866" xlink:href="#AUPassata-Regular-32"/>
      <use x="492.29985" xlink:href="#AUPassata-Regular-104"/>
      <use x="548.799835" xlink:href="#AUPassata-Regular-111"/>
      <use x="606.79982" xlink:href="#AUPassata-Regular-117"/>
      <use x="662.199814" xlink:href="#AUPassata-Regular-114"/>
      <use x="691.599808" xlink:href="#AUPassata-Regular-115"/>
     </g>
    </g>
   </g>
   <g id="patch_3">
    <path clip-path="url(#p7ccafd0036)" d="M 428.538318 302.3 
L 428.538318 7.2 
L 520.807921 7.2 
L 520.807921 302.3 
z
" style="opacity:0.05;stroke:#ffffff;stroke-linejoin:miter;"/>
   </g>
   <g id="line2d_1">
    <path clip-path="url(#p7ccafd0036)" d="M 82.527983 288.886364 
L 82.927096 288.776558 
L 83.058747 288.734907 
L 83.447391 288.632127 
L 83.559974 288.580495 
L 84.652542 288.559382 
L 85.916851 288.412516 
L 86.021536 288.37789 
L 86.74013 288.281485 
L 86.856156 288.075851 
L 86.87639 288.075368 
L 86.987821 287.880978 
L 87.31749 287.76831 
L 87.588324 287.713686 
L 88.004467 287.59771 
L 88.345279 287.478742 
L 88.457946 287.360108 
L 88.651889 287.25125 
L 88.802678 287.179267 
L 89.165805 286.959749 
L 89.280074 286.832175 
L 89.407284 286.736532 
L 89.514584 286.599405 
L 89.760743 286.505844 
L 89.862604 286.434697 
L 90.402867 286.32491 
L 90.524373 286.275044 
L 91.279248 286.022592 
L 91.533066 285.92063 
L 91.639789 285.863757 
L 91.942689 285.746814 
L 92.051815 285.690833 
L 92.596012 285.591919 
L 92.707851 285.538466 
L 93.000479 285.428456 
L 93.114102 285.368424 
L 93.504671 285.246556 
L 93.617226 285.19814 
L 94.061276 285.072276 
L 94.170318 285.012913 
L 94.333557 284.940799 
L 94.971775 284.823262 
L 95.765981 284.715724 
L 96.803607 284.560996 
L 100.884988 282.856948 
L 100.995618 282.65031 
L 101.224086 282.544203 
L 102.373395 282.170069 
L 102.595006 282.064668 
L 102.980825 281.941592 
L 103.082659 281.936518 
L 103.196478 281.770044 
L 103.825871 281.627899 
L 103.870542 281.582048 
L 103.99483 280.033675 
L 104.017987 280.026779 
L 104.10338 279.488364 
L 104.179681 279.463552 
L 104.28372 278.321244 
L 104.316096 278.316449 
L 104.442899 277.870108 
L 104.934599 277.310282 
L 105.04735 276.603943 
L 106.396939 276.432804 
L 106.525752 276.408178 
L 107.765625 276.304933 
L 107.878208 276.260402 
L 111.104412 275.761575 
L 111.247951 275.411007 
L 111.261075 275.410635 
L 111.369189 274.329735 
L 111.394693 274.329698 
L 111.564636 272.803423 
L 111.611934 272.800673 
L 111.723435 271.646098 
L 112.2026 268.274262 
L 112.418253 268.165646 
L 112.534686 267.638066 
L 113.587642 267.525659 
L 113.708249 267.519916 
L 114.878425 267.484231 
L 115.069964 266.036965 
L 115.103281 266.031519 
L 115.212716 264.087713 
L 115.248478 264.087211 
L 115.361707 260.560814 
L 115.4265 260.26489 
L 116.217953 260.162741 
L 116.319266 260.11189 
L 116.64545 260.107801 
L 117.432097 259.998126 
L 117.604329 259.810055 
L 117.908944 259.722906 
L 119.653894 259.565781 
L 119.890399 258.85067 
L 120.737145 258.483375 
L 120.847944 258.436576 
L 120.871593 258.426279 
L 120.981281 256.685263 
L 121.018125 256.664707 
L 121.125368 255.677796 
L 121.379733 255.361092 
L 121.489337 255.10994 
L 121.580758 255.000432 
L 121.810814 254.51205 
L 121.848416 254.438562 
L 122.192095 250.750338 
L 122.309286 250.613787 
L 123.757364 250.491046 
L 123.874964 250.169324 
L 124.0676 250.142932 
L 125.67598 250.037829 
L 125.839754 249.934305 
L 126.085969 249.856059 
L 126.24266 249.731905 
L 127.967221 249.628902 
L 128.080015 249.493894 
L 128.127636 249.460662 
L 128.225718 249.077086 
L 128.560937 248.962597 
L 128.673197 248.945888 
L 129.579508 248.838443 
L 129.749043 248.732578 
L 130.144882 248.614483 
L 130.442217 248.52423 
L 130.553212 248.454273 
L 131.695959 248.322108 
L 131.982025 248.301589 
L 133.079877 248.239011 
L 133.199682 247.990796 
L 133.430525 247.852442 
L 134.392973 247.74141 
L 134.517837 247.649652 
L 134.6454 247.550124 
L 135.665235 247.236004 
L 137.720617 247.119972 
L 137.848966 247.057746 
L 138.016098 246.946677 
L 138.141805 246.727475 
L 138.177216 246.652797 
L 138.32476 246.572468 
L 140.1964 246.467142 
L 140.308379 246.350311 
L 140.439356 246.243535 
L 140.551236 246.05145 
L 141.939945 244.197524 
L 142.439444 244.08573 
L 144.647807 243.632755 
L 147.833641 243.429759 
L 147.95495 243.424258 
L 148.742903 243.323578 
L 148.853786 243.09696 
L 148.929483 243.023509 
L 149.112521 242.726952 
L 149.199277 242.653575 
L 149.303429 242.511653 
L 149.937178 242.355531 
L 150.17343 241.951436 
L 150.222415 241.877911 
L 150.516224 241.548122 
L 151.269287 241.444878 
L 151.376375 241.224133 
L 151.452353 241.149306 
L 151.580843 241.008276 
L 152.94839 240.897727 
L 155.01788 240.532161 
L 155.131081 240.307234 
L 155.215265 240.229991 
L 155.321468 240.069168 
L 156.030409 239.957801 
L 156.51275 239.883866 
L 157.749855 239.652862 
L 158.506726 239.467059 
L 158.616456 239.32575 
L 158.732566 239.227784 
L 159.274529 238.672418 
L 163.617386 237.895453 
L 163.720076 237.641737 
L 164.657583 237.40105 
L 164.768789 237.241322 
L 164.828804 237.15514 
L 164.941808 237.041227 
L 165.995537 236.768869 
L 166.103609 236.675419 
L 166.754642 236.566896 
L 166.874715 236.526843 
L 167.208248 236.376762 
L 167.259691 236.322175 
L 167.411465 236.228669 
L 167.513832 236.098196 
L 169.84179 235.962556 
L 170.95923 235.822251 
L 171.678344 235.669122 
L 172.405439 235.557254 
L 175.658749 234.959735 
L 175.787281 234.888997 
L 176.675803 234.842681 
L 176.770779 234.741109 
L 177.276024 234.713732 
L 179.447123 234.570621 
L 179.777747 234.555845 
L 181.7525 234.341661 
L 181.857607 234.282985 
L 182.63727 234.174184 
L 182.744555 234.114467 
L 184.008569 234.048115 
L 184.119241 233.140733 
L 185.374205 233.046372 
L 185.50802 232.891329 
L 187.556587 232.773717 
L 187.76253 232.748942 
L 188.888892 232.636795 
L 189.123599 232.5902 
L 190.168138 232.476826 
L 190.282211 232.374511 
L 190.962991 232.035039 
L 191.144639 231.917 
L 191.49086 231.809053 
L 191.592047 231.752143 
L 192.332927 231.264077 
L 192.497797 231.126672 
L 192.817615 231.017033 
L 192.92594 230.997964 
L 195.490165 230.691018 
L 196.072949 230.579503 
L 197.668514 230.441837 
L 198.689559 230.231872 
L 198.78757 229.952544 
L 199.450167 229.821309 
L 199.561233 229.789472 
L 200.002093 229.71641 
L 200.131243 229.584357 
L 200.343383 229.481243 
L 200.444373 229.255331 
L 201.557906 228.399265 
L 202.629987 228.339827 
L 202.776575 228.08953 
L 202.949187 228.012975 
L 203.147092 227.826949 
L 203.725688 227.714708 
L 203.843274 227.553606 
L 203.934709 227.462312 
L 204.571437 227.161313 
L 204.997922 227.052827 
L 205.125203 227.006864 
L 205.283342 226.905274 
L 205.50314 226.758445 
L 206.020119 226.639867 
L 206.161353 226.616375 
L 207.195016 226.536529 
L 207.302021 226.459286 
L 208.194084 226.350336 
L 208.302985 226.330932 
L 208.35204 226.317532 
L 208.464876 226.025677 
L 209.401933 225.913493 
L 210.029921 225.703825 
L 210.147464 225.527241 
L 210.859341 225.44641 
L 211.017508 225.20879 
L 211.137243 225.151118 
L 213.339058 225.039268 
L 213.517474 225.01689 
L 214.337451 224.991669 
L 215.495079 224.885302 
L 215.60502 224.591719 
L 215.950005 224.491783 
L 216.238755 224.415097 
L 216.726619 224.372071 
L 216.855755 223.96924 
L 217.731855 223.862483 
L 217.910636 223.482289 
L 217.998179 223.393356 
L 218.12161 223.32732 
L 218.306123 223.215284 
L 218.553927 223.10546 
L 218.656111 222.970229 
L 218.923713 222.863825 
L 219.788685 222.530505 
L 220.63477 222.426257 
L 220.890414 222.311545 
L 221.485072 222.174102 
L 221.600352 221.920609 
L 221.64307 221.884218 
L 221.749723 221.713506 
L 221.790866 221.712465 
L 221.895032 221.567068 
L 222.754945 221.463711 
L 222.887186 221.230031 
L 223.05651 221.111973 
L 223.165355 220.994455 
L 223.423725 220.888459 
L 224.686123 220.371251 
L 224.785427 220.267151 
L 225.140642 219.787374 
L 225.247365 219.661306 
L 225.39259 219.550664 
L 225.619681 218.634082 
L 225.6872 218.572786 
L 225.794696 218.23915 
L 225.926867 218.115479 
L 226.394187 217.569277 
L 226.50958 216.388161 
L 226.545258 216.387325 
L 226.651517 215.867254 
L 226.793454 215.038081 
L 226.918501 213.796617 
L 227.110701 211.968749 
L 227.143456 211.968675 
L 227.308747 210.665134 
L 227.331103 210.664725 
L 227.527828 209.425789 
L 227.550663 209.42577 
L 227.671803 208.860313 
L 227.69541 208.796935 
L 227.830602 208.485175 
L 227.913817 208.384848 
L 228.026807 208.297197 
L 229.092536 208.20542 
L 229.183985 207.806566 
L 229.944341 207.7404 
L 230.054957 207.211018 
L 230.242267 207.206353 
L 230.35107 206.828836 
L 231.219638 206.752634 
L 231.330422 206.338782 
L 231.332362 206.332871 
L 231.52074 205.64116 
L 232.417665 205.575775 
L 232.521339 203.333125 
L 232.535334 203.333107 
L 232.648437 202.69429 
L 232.685674 202.616062 
L 232.795784 202.355562 
L 232.82504 202.352477 
L 232.93744 201.936339 
L 233.07859 201.684871 
L 233.838019 201.42781 
L 233.952808 200.799011 
L 233.971806 200.798974 
L 234.126614 200.233926 
L 234.129846 200.233833 
L 234.24826 199.689712 
L 234.539596 198.945941 
L 234.647542 198.258523 
L 234.786528 198.052126 
L 234.849705 197.865004 
L 234.974091 197.158033 
L 234.992681 197.157977 
L 235.111728 195.083809 
L 235.137864 195.080984 
L 235.25826 194.188526 
L 235.478873 194.170516 
L 235.557521 193.766849 
L 236.353835 193.677544 
L 236.478067 193.551717 
L 236.782794 193.439886 
L 238.686599 193.103258 
L 238.810128 193.035642 
L 239.303528 192.881045 
L 239.93583 192.7757 
L 240.059767 192.620656 
L 240.25364 192.508602 
L 240.80142 192.352982 
L 240.915338 192.025331 
L 241.014698 191.990278 
L 241.120058 191.565572 
L 241.143033 191.56007 
L 241.279813 190.670549 
L 241.374297 190.254764 
L 241.474388 189.676203 
L 241.650695 189.56558 
L 242.027887 189.294393 
L 242.135327 188.08209 
L 242.192883 188.065344 
L 242.301827 187.683329 
L 242.365748 187.674129 
L 242.483095 187.242156 
L 242.774177 187.136086 
L 242.943642 187.069084 
L 243.120315 186.969575 
L 243.308061 186.863858 
L 243.374259 186.78879 
L 243.646624 186.420343 
L 243.657107 186.420064 
L 243.767132 186.030578 
L 243.938466 185.921404 
L 244.16068 185.866576 
L 244.809395 185.752737 
L 245.61948 185.606912 
L 246.538003 185.503482 
L 246.647859 185.365296 
L 246.96817 184.96371 
L 247.294607 184.85212 
L 247.444146 184.793128 
L 247.843792 184.683881 
L 249.46371 184.262371 
L 249.577754 184.213397 
L 249.691629 184.167267 
L 249.775504 184.055863 
L 250.05654 183.642085 
L 250.106803 183.540662 
L 250.257719 183.388945 
L 250.820086 183.204777 
L 250.942027 183.101774 
L 251.058601 182.857611 
L 251.151258 182.738698 
L 251.31513 182.463646 
L 251.382592 182.399227 
L 251.495695 182.214725 
L 251.551368 182.146291 
L 252.196345 181.022811 
L 252.311064 180.747609 
L 252.396808 180.669028 
L 252.501718 180.463654 
L 252.631599 180.354554 
L 252.821256 180.134237 
L 252.885332 180.066938 
L 253.063663 179.805843 
L 253.217375 179.69758 
L 253.32445 179.527482 
L 253.400287 179.446782 
L 253.513699 179.382772 
L 253.873874 179.243192 
L 253.989774 179.149333 
L 254.222457 178.827221 
L 254.371237 178.732172 
L 254.48434 178.589656 
L 254.702395 178.381029 
L 254.861237 178.322112 
L 255.077662 178.227416 
L 255.185552 178.152218 
L 255.381209 178.037933 
L 255.491347 177.939576 
L 255.688816 177.836425 
L 255.812444 177.751543 
L 256.323577 177.618691 
L 256.81161 177.461101 
L 260.735232 176.610201 
L 261.75726 176.50547 
L 261.808127 176.474877 
L 262.179474 176.340575 
L 262.288234 176.3003 
L 263.53384 176.188059 
L 263.961436 176.128622 
L 264.072459 175.782719 
L 264.386952 175.593162 
L 264.502233 175.46215 
L 264.605457 175.359407 
L 264.727876 175.314392 
L 265.099082 175.282666 
L 265.206452 175.158419 
L 266.065086 175.046253 
L 266.166483 175.037406 
L 267.427897 174.925259 
L 267.542419 174.86387 
L 267.976915 174.753581 
L 268.089371 174.690723 
L 268.829914 174.21024 
L 268.967228 173.845492 
L 269.499551 173.705577 
L 270.574822 173.622015 
L 270.774582 173.525108 
L 270.904041 173.416176 
L 271.024605 173.380175 
L 272.477432 173.268028 
L 273.984401 173.140808 
L 278.472947 172.807841 
L 278.688993 172.670101 
L 278.909452 172.562061 
L 280.37078 172.196811 
L 280.48304 172.195082 
L 281.79594 172.084329 
L 281.95124 172.05028 
L 282.43479 171.952035 
L 282.584863 171.917762 
L 283.309022 171.804927 
L 283.433745 171.785895 
L 283.623247 171.674398 
L 283.736392 171.566693 
L 283.862254 171.462891 
L 284.022037 171.318962 
L 284.145454 171.222017 
L 284.404639 171.015417 
L 284.579555 170.890278 
L 284.687923 170.764563 
L 284.833092 170.660928 
L 284.949848 170.579298 
L 285.253198 170.45429 
L 285.458578 170.376396 
L 285.783596 170.277575 
L 285.89327 170.224828 
L 286.191126 170.11768 
L 286.313095 170.050158 
L 286.457533 169.960927 
L 286.560631 169.856511 
L 286.764762 169.739383 
L 287.118866 169.532633 
L 287.368581 169.424184 
L 287.557605 169.26639 
L 288.218657 169.113428 
L 288.538855 169.089341 
L 288.968811 168.979907 
L 289.08457 168.954835 
L 289.69526 168.856218 
L 289.816485 168.695598 
L 289.948038 168.190768 
L 290.580269 168.083881 
L 290.691784 168.054849 
L 290.791706 167.94772 
L 290.902786 167.638172 
L 290.994516 167.607338 
L 291.100649 167.385385 
L 291.871234 167.251362 
L 292.160322 166.603272 
L 292.470318 166.509915 
L 292.584629 166.007556 
L 292.8155 165.901877 
L 292.925919 165.857475 
L 293.176912 165.762018 
L 293.290815 165.648997 
L 293.57438 165.556402 
L 293.677956 165.378981 
L 293.826919 165.284639 
L 293.933291 165.190371 
L 294.228055 165.11231 
L 294.335326 164.97825 
L 294.433984 164.933793 
L 294.545358 164.628185 
L 294.690752 164.527319 
L 294.811358 164.346608 
L 294.839082 164.273975 
L 294.948377 164.164875 
L 295.009924 164.097223 
L 295.128732 163.97937 
L 295.145777 163.934466 
L 295.250589 163.64408 
L 295.386554 163.537973 
L 295.497015 163.189004 
L 297.377579 162.669491 
L 297.950385 162.615703 
L 298.05739 162.025173 
L 298.076767 162.018873 
L 298.194718 161.735735 
L 298.315802 161.619536 
L 298.635086 161.499787 
L 298.743032 161.44626 
L 299.08553 161.321455 
L 299.207275 161.206223 
L 299.442558 161.101101 
L 299.566747 161.041905 
L 299.84656 160.933363 
L 299.955462 160.894072 
L 300.256563 160.801477 
L 300.365493 160.742337 
L 300.504156 160.635728 
L 300.613844 160.388629 
L 300.808152 160.277615 
L 300.919709 160.23089 
L 301.316953 160.191507 
L 301.566821 160.128259 
L 301.676917 159.705894 
L 301.769153 159.606311 
L 301.878687 159.39984 
L 302.026062 159.305349 
L 302.145165 159.225225 
L 302.292961 159.129192 
L 302.584915 158.988237 
L 302.785054 158.910919 
L 302.897117 158.800054 
L 303.033771 158.758366 
L 303.142855 158.632298 
L 303.185474 158.559683 
L 303.29772 158.337674 
L 304.314211 158.23679 
L 304.450359 158.117933 
L 304.608146 158.018907 
L 304.722429 157.95276 
L 304.83438 157.921387 
L 306.722349 157.581154 
L 306.847199 157.386782 
L 306.878464 157.385277 
L 307.136342 157.324724 
L 307.24426 157.16416 
L 307.984142 157.043556 
L 308.292916 156.933844 
L 308.399921 156.86647 
L 308.955303 156.757798 
L 309.063347 156.739212 
L 310.118228 156.61701 
L 310.231472 156.593443 
L 310.722792 156.494306 
L 310.828981 156.389704 
L 310.96097 156.315825 
L 311.132612 156.014009 
L 311.22215 155.929908 
L 311.35338 155.669463 
L 311.430538 155.5704 
L 311.535378 155.331646 
L 313.053083 155.164521 
L 313.157235 155.099824 
L 313.359313 154.906419 
L 314.253695 154.800052 
L 314.470106 154.713256 
L 315.058932 154.600439 
L 315.111725 154.492883 
L 315.302211 154.079458 
L 315.344366 154.077692 
L 315.438457 153.874938 
L 316.052786 153.774965 
L 316.209885 153.702443 
L 316.385884 153.596968 
L 316.49234 153.506938 
L 317.148896 153.234004 
L 317.347377 153.153508 
L 317.45781 153.07909 
L 317.792495 152.948598 
L 317.940081 152.701239 
L 318.108871 152.59056 
L 318.213992 152.503763 
L 318.570669 152.413455 
L 318.680582 152.220458 
L 319.576706 152.01185 
L 319.980737 151.926095 
L 320.089301 151.881303 
L 321.099258 151.762911 
L 321.297655 151.63714 
L 321.402608 151.577516 
L 321.633703 151.471688 
L 321.959705 151.387996 
L 322.290751 151.245014 
L 322.490342 151.126771 
L 322.863403 151.017876 
L 322.9734 150.895488 
L 323.136415 150.811405 
L 323.227161 150.241524 
L 323.319186 150.15142 
L 323.427315 149.787527 
L 323.466435 149.786133 
L 323.5895 149.285503 
L 323.976233 149.178615 
L 324.087524 149.145569 
L 324.688364 149.038663 
L 324.797588 148.977107 
L 325.038941 148.875423 
L 325.146578 148.790114 
L 325.29162 148.704117 
L 325.398667 148.639773 
L 326.051414 148.526064 
L 326.158292 148.493557 
L 326.708054 148.443636 
L 326.818979 147.850689 
L 326.859841 147.84963 
L 326.969895 147.512723 
L 327.06251 147.418642 
L 327.172381 147.373218 
L 327.396268 147.267631 
L 327.526879 147.047537 
L 327.686283 146.938865 
L 327.827433 146.599524 
L 328.075503 146.388852 
L 328.192919 146.290236 
L 328.428483 146.177568 
L 328.551408 146.05412 
L 328.959711 145.944463 
L 329.339559 145.839397 
L 329.454053 145.777358 
L 329.541314 145.724183 
L 329.64593 145.34176 
L 329.743393 145.253532 
L 329.847109 144.998757 
L 329.946427 144.921458 
L 330.05856 144.721567 
L 330.808546 144.60284 
L 331.03114 144.480731 
L 331.210132 144.381612 
L 331.312499 144.307473 
L 331.485111 144.202091 
L 331.788461 144.111484 
L 332.120982 144.004225 
L 332.234169 143.925198 
L 332.525603 143.818812 
L 332.638593 143.775451 
L 333.132949 143.662245 
L 333.241738 143.606227 
L 334.044937 143.499674 
L 334.151576 143.477129 
L 335.056202 143.372193 
L 335.174321 143.294206 
L 335.528876 143.089631 
L 335.84965 142.466818 
L 336.02791 141.648183 
L 336.066483 141.648016 
L 336.167669 141.402217 
L 338.605864 141.294549 
L 338.719163 141.259924 
L 340.055923 141.161195 
L 340.164234 140.983756 
L 340.337985 140.885195 
L 340.491163 140.779069 
L 341.231158 140.755818 
L 341.294307 140.588879 
L 341.888809 140.487921 
L 341.989813 140.449299 
L 342.99186 140.339159 
L 343.18555 140.299924 
L 345.217999 140.195137 
L 345.327701 140.151758 
L 345.802876 140.056709 
L 346.049372 140.011583 
L 347.17988 139.884306 
L 347.469136 139.788403 
L 349.039099 139.671795 
L 349.183032 139.561562 
L 350.150426 139.445865 
L 350.317769 139.352824 
L 350.380538 139.244412 
L 350.501496 139.055654 
L 350.601516 138.960866 
L 350.692375 138.891819 
L 351.062274 138.779858 
L 351.441124 138.676873 
L 351.572846 138.607027 
L 351.952581 138.498895 
L 352.0604 138.416856 
L 352.655212 138.310285 
L 352.789772 138.242223 
L 353.062236 138.068501 
L 353.167652 137.931504 
L 353.316714 137.800213 
L 353.419783 137.669238 
L 353.547865 137.558782 
L 353.761888 137.46392 
L 353.872265 137.373723 
L 353.983583 137.2828 
L 354.172973 137.138481 
L 354.337308 137.033359 
L 354.566929 136.89876 
L 354.734356 136.779438 
L 354.932457 136.675301 
L 355.004304 136.649969 
L 357.869378 136.534197 
L 357.973951 136.526912 
L 358.704756 136.489981 
L 358.79931 136.381551 
L 359.658549 136.268512 
L 360.385391 136.116665 
L 360.551272 135.984612 
L 360.895948 135.873803 
L 361.034513 135.829308 
L 361.30515 135.723016 
L 361.451879 135.608601 
L 361.664356 135.567377 
L 362.215368 135.457404 
L 362.350827 135.374511 
L 362.574026 135.258498 
L 362.681943 135.163617 
L 362.866654 135.044426 
L 363.029374 134.906332 
L 363.998033 134.821543 
L 364.248309 134.7196 
L 365.229784 134.602825 
L 365.785546 134.41507 
L 366.463151 134.304948 
L 366.62084 134.264152 
L 366.963282 134.155127 
L 367.098432 134.130798 
L 367.785634 134.018558 
L 368.718166 133.881375 
L 368.871724 133.840821 
L 369.759487 133.621619 
L 369.872478 133.499026 
L 370.010185 133.396395 
L 370.117316 133.299246 
L 370.313774 133.183605 
L 370.418825 133.112384 
L 370.590748 133.01715 
L 370.947186 132.796814 
L 371.173996 132.705966 
L 371.284949 132.620173 
L 371.383845 132.527467 
L 371.605708 132.385173 
L 372.844246 132.244794 
L 373.675564 132.134319 
L 374.464079 131.949259 
L 375.034877 131.499815 
L 375.372218 131.398336 
L 375.480501 131.368059 
L 375.82179 131.220859 
L 375.961114 131.097003 
L 376.161773 130.998999 
L 376.570483 130.819794 
L 376.788482 130.711234 
L 376.899365 130.641165 
L 377.076235 130.530095 
L 377.182185 130.483036 
L 377.837841 130.319108 
L 378.181801 130.182818 
L 379.267497 129.996717 
L 379.376848 129.808423 
L 379.485693 129.696555 
L 379.593695 129.599945 
L 380.247342 129.562402 
L 381.003173 129.45689 
L 381.106861 129.440757 
L 382.045689 129.337921 
L 382.162937 129.294021 
L 382.921311 129.170183 
L 384.326517 128.279435 
L 384.436514 128.19578 
L 385.551059 127.608763 
L 386.040258 127.496987 
L 386.603987 127.306686 
L 386.712003 127.199762 
L 386.858367 127.095848 
L 386.968013 127.016858 
L 387.361392 126.904729 
L 387.51384 126.888689 
L 387.86765 126.790779 
L 387.978659 126.761469 
L 388.030299 126.725542 
L 388.215965 124.712838 
L 388.323757 123.705444 
L 389.387378 123.600694 
L 390.10229 123.433756 
L 390.78352 123.397216 
L 390.914076 123.223326 
L 391.548471 123.11458 
L 391.813994 122.89666 
L 391.92319 122.591926 
L 391.940825 122.591889 
L 392.117442 122.128468 
L 392.16963 122.045723 
L 392.279529 121.918744 
L 394.343089 120.800784 
L 394.455967 120.685681 
L 394.595276 120.593495 
L 394.701114 120.513613 
L 394.921193 120.417133 
L 395.303121 120.227557 
L 395.422378 119.830618 
L 395.481241 119.722262 
L 395.72896 119.362105 
L 395.919474 119.169592 
L 396.21324 119.093167 
L 396.325823 118.872738 
L 396.476641 118.761668 
L 396.587734 118.724329 
L 397.22539 118.573821 
L 397.331973 118.500276 
L 397.627116 118.378501 
L 397.756112 118.355827 
L 398.953084 118.010277 
L 399.067213 117.564011 
L 399.814908 117.45415 
L 400.165669 117.04632 
L 400.281638 116.602711 
L 400.338154 116.597935 
L 400.485656 116.167968 
L 401.244213 116.073515 
L 401.356402 115.806658 
L 401.574121 115.696909 
L 401.681476 115.678676 
L 401.779178 115.577699 
L 401.895892 115.512834 
L 402.536977 115.205051 
L 402.637362 114.971835 
L 402.85175 114.863108 
L 402.938267 114.825155 
L 403.05411 114.482636 
L 403.167817 114.413533 
L 405.336217 113.689055 
L 405.615735 113.578376 
L 405.904654 113.531056 
L 406.393726 113.4135 
L 408.70915 112.932943 
L 408.816942 112.889303 
L 409.26813 112.763384 
L 409.678526 112.693111 
L 412.357189 111.836468 
L 412.464025 111.675923 
L 412.555572 111.64481 
L 412.665724 111.186481 
L 413.323544 111.054429 
L 413.435663 110.905035 
L 413.489959 110.868291 
L 413.594181 110.523782 
L 413.672997 110.414553 
L 413.783093 110.154759 
L 414.873174 110.043653 
L 415.019158 109.857329 
L 415.790868 109.689944 
L 415.906935 109.629224 
L 416.094091 109.522262 
L 416.197877 109.51533 
L 416.960538 109.41045 
L 417.0735 109.171695 
L 417.274342 109.064157 
L 417.675169 108.880658 
L 418.36788 108.769329 
L 418.42996 108.638856 
L 418.545101 108.200935 
L 418.638306 108.125588 
L 418.750341 107.169399 
L 418.775662 107.153749 
L 418.87765 105.769527 
L 418.928489 105.768914 
L 419.02896 104.943495 
L 419.08126 104.93961 
L 419.188939 103.607336 
L 419.220696 103.606462 
L 419.345307 103.058829 
L 419.512987 102.976679 
L 419.620174 102.810502 
L 419.933571 102.700771 
L 420.081972 102.691757 
L 420.495389 102.685847 
L 420.604136 102.550188 
L 420.647977 102.444825 
L 420.755038 102.353196 
L 420.900572 102.249468 
L 421.001295 102.222816 
L 421.919256 102.117229 
L 422.126646 101.822383 
L 423.119208 101.708024 
L 423.232634 101.663901 
L 423.724207 101.552943 
L 424.304841 101.542999 
L 425.431049 101.424161 
L 425.53891 101.263244 
L 425.614438 101.173196 
L 425.721864 100.96903 
L 425.908725 100.858425 
L 426.184926 100.820658 
L 426.869909 100.718027 
L 426.980215 100.623053 
L 427.520239 100.512392 
L 427.633974 100.495795 
L 427.832582 100.469106 
L 427.932097 100.066238 
L 427.949633 100.066201 
L 428.061528 99.728402 
L 428.128555 99.631253 
L 428.310061 99.205264 
L 428.336071 99.198034 
L 428.438101 98.904061 
L 428.892592 98.729725 
L 429.005456 98.699746 
L 429.243085 98.581912 
L 429.499559 98.445882 
L 430.367382 98.28227 
L 430.544589 98.057195 
L 430.676606 97.971365 
L 430.784228 97.913395 
L 431.6243 97.650219 
L 431.740058 97.506866 
L 433.664211 97.07887 
L 433.704708 96.930722 
L 433.886257 96.816381 
L 434.052307 96.687246 
L 434.157906 96.487429 
L 434.522241 96.339002 
L 435.170463 96.226093 
L 435.513439 95.818095 
L 435.642898 95.604171 
L 435.717513 95.527411 
L 435.842026 95.276483 
L 435.879235 95.195467 
L 436.26757 94.80087 
L 436.385535 94.683853 
L 436.505354 94.532341 
L 436.580882 94.448667 
L 436.691582 94.17893 
L 436.769218 94.091316 
L 436.99392 93.69341 
L 437.463868 93.580612 
L 437.744679 93.457722 
L 437.880503 93.404548 
L 438.301649 93.292977 
L 438.428902 93.162876 
L 438.781798 93.062233 
L 438.897009 92.868624 
L 439.012908 92.620855 
L 439.216364 92.5159 
L 439.315654 92.302125 
L 439.965057 91.527855 
L 440.08645 91.403683 
L 440.795882 91.294936 
L 440.901678 91.279417 
L 442.306041 91.15584 
L 442.603138 90.870193 
L 442.720273 90.42309 
L 442.918797 90.313025 
L 443.058781 90.210821 
L 443.362046 90.094584 
L 443.477397 90.03747 
L 443.583741 89.926494 
L 443.8728 89.645233 
L 443.978076 89.389528 
L 444.066026 89.279035 
L 444.176909 89.078047 
L 444.239102 88.966792 
L 444.265365 88.950065 
L 444.382233 88.679063 
L 444.726755 88.578068 
L 444.898847 88.284671 
L 445.045182 88.173397 
L 445.17148 88.115892 
L 445.357005 88.008596 
L 445.45371 87.92784 
L 445.996755 87.874517 
L 446.114748 87.774525 
L 446.18436 87.696055 
L 446.317796 87.467727 
L 446.383895 87.37253 
L 446.564039 87.005719 
L 446.694889 86.914685 
L 446.827102 86.77386 
L 447.154635 86.3233 
L 447.731925 86.195596 
L 448.571013 86.091757 
L 448.68146 86.035033 
L 448.928349 85.919075 
L 449.05001 85.871607 
L 449.530159 85.771671 
L 449.636194 85.748066 
L 450.553199 85.619991 
L 451.043423 85.510799 
L 451.186302 85.305703 
L 451.229174 85.288549 
L 451.345298 82.94232 
L 452.119017 82.754862 
L 453.529576 82.078967 
L 453.640023 81.663833 
L 453.704324 81.570011 
L 453.912108 80.843581 
L 453.97402 80.822876 
L 454.089512 80.182443 
L 454.481978 80.071299 
L 454.995191 79.749931 
L 455.111498 79.705678 
L 455.292077 79.595389 
L 455.476591 79.549686 
L 455.855033 79.346133 
L 455.961967 79.288145 
L 456.201199 79.176314 
L 456.821669 78.782404 
L 456.952407 78.337922 
L 457.074194 78.227782 
L 457.18176 78.018245 
L 457.272366 77.910056 
L 457.403792 77.693326 
L 457.583543 77.586531 
L 457.681863 77.504586 
L 457.879136 77.380116 
L 457.992506 77.344524 
L 458.182626 77.243844 
L 458.293692 77.154428 
L 458.662368 77.051722 
L 458.764117 76.987619 
L 458.85714 76.896381 
L 458.967882 76.750723 
L 459.04223 76.679892 
L 459.146902 76.523269 
L 459.295106 76.412664 
L 459.406058 76.278065 
L 459.54822 76.176976 
L 459.657599 76.011469 
L 459.916953 75.834364 
L 460.02199 75.762399 
L 460.138522 75.697126 
L 460.273123 75.315538 
L 460.916302 75.085408 
L 461.049316 74.939713 
L 461.166957 74.834368 
L 461.272219 74.743483 
L 461.508415 74.632376 
L 462.615836 74.052738 
L 463.232049 73.717169 
L 463.374267 73.50042 
L 463.562659 73.391507 
L 463.696306 73.354893 
L 464.134651 73.325211 
L 464.451209 73.254232 
L 464.567474 73.143181 
L 464.657012 73.086364 
L 464.761023 72.655654 
L 465.819656 72.536834 
L 465.949059 72.499161 
L 466.883572 72.29795 
L 467.008057 71.823359 
L 467.132514 71.736693 
L 467.2603 71.557636 
L 467.896284 71.46874 
L 468.000843 71.235263 
L 468.150551 71.167369 
L 468.290071 70.871853 
L 468.350747 70.761434 
L 468.469456 70.643879 
L 468.602765 70.531936 
L 468.733039 70.284111 
L 469.212345 70.185253 
L 469.323383 69.959397 
L 469.404208 69.843049 
L 469.513658 69.645871 
L 469.619945 69.382174 
L 469.868086 69.258968 
L 469.973797 69.223507 
L 470.224987 69.149479 
L 470.33504 68.844652 
L 470.424059 68.733601 
L 470.533171 68.499084 
L 470.729095 68.397753 
L 470.943258 68.149148 
L 471.08289 68.008174 
L 471.188616 67.961784 
L 471.546191 67.864078 
L 471.675074 67.545776 
L 471.689491 67.523733 
L 471.807189 67.127054 
L 471.840661 67.056799 
L 471.950742 66.735653 
L 471.991253 66.733795 
L 472.101911 66.282566 
L 472.176245 66.194896 
L 472.298973 66.060111 
L 472.752228 65.950324 
L 472.86141 65.793998 
L 473.192905 65.493632 
L 473.769633 65.403843 
L 473.923275 65.313832 
L 474.168029 65.213914 
L 474.277745 65.049837 
L 474.303024 65.049633 
L 474.44312 64.653493 
L 475.343657 64.538446 
L 476.3193 64.430927 
L 476.434075 64.291012 
L 476.548625 64.154647 
L 476.687344 63.955072 
L 476.747387 63.879167 
L 476.855712 63.704218 
L 477.354916 63.592926 
L 479.138817 62.504758 
L 479.550872 62.083471 
L 480.037443 62.000615 
L 480.147047 61.907333 
L 480.589692 61.678838 
L 480.703694 61.532622 
L 481.351551 61.340463 
L 481.466073 61.28372 
L 481.605537 61.141203 
L 481.721366 61.077881 
L 482.210719 60.921313 
L 482.321138 60.898044 
L 482.646732 60.792234 
L 482.784018 60.759635 
L 483.126698 60.649792 
L 483.290668 60.587102 
L 484.032279 60.461963 
L 484.166375 60.409736 
L 484.2876 60.312365 
L 484.404314 60.097252 
L 484.494077 60.024358 
L 484.593873 59.755587 
L 484.69097 59.676913 
L 484.804565 59.411023 
L 484.884899 59.333594 
L 485.023745 59.148869 
L 485.135527 59.037874 
L 485.302138 58.903907 
L 485.48054 58.79516 
L 485.602608 58.602202 
L 485.751697 58.496634 
L 485.859432 58.362127 
L 486.055693 58.261113 
L 486.162459 58.207883 
L 486.501655 58.088338 
L 486.864598 57.978644 
L 487.20659 57.866014 
L 487.313299 57.783716 
L 487.693498 57.622631 
L 487.855656 57.301987 
L 487.921446 57.203687 
L 488.043908 54.786776 
L 488.074245 54.785661 
L 488.185535 49.033807 
L 488.234112 49.033472 
L 488.333964 45.305549 
L 488.373829 45.30553 
L 488.500506 39.383764 
L 488.68568 39.286281 
L 488.794778 39.166866 
L 488.930167 39.060629 
L 489.147843 38.903708 
L 489.697577 38.782677 
L 489.804525 38.740208 
L 489.987353 38.61072 
L 490.151056 38.513349 
L 490.268403 38.413412 
L 490.807878 38.305149 
L 490.935145 38.238705 
L 491.270646 38.127691 
L 491.396662 38.05476 
L 491.82097 37.943672 
L 491.937543 37.91544 
L 492.277329 37.804482 
L 492.385219 37.734042 
L 492.640722 37.619701 
L 493.289802 37.468189 
L 493.400614 37.388493 
L 493.666783 37.277051 
L 494.250663 36.619705 
L 494.654975 36.483303 
L 494.771548 36.310269 
L 494.919527 36.195928 
L 495.297085 35.932566 
L 495.593746 35.823039 
L 495.759711 35.772207 
L 495.900089 35.663795 
L 496.058663 35.509532 
L 496.425513 35.286074 
L 496.529412 35.169206 
L 496.728048 35.05953 
L 496.844551 34.986097 
L 497.105394 34.761561 
L 497.23883 34.660491 
L 497.34797 34.559811 
L 497.699363 34.194431 
L 497.840738 34.087487 
L 497.955007 34.030466 
L 498.116687 33.957572 
L 498.253607 33.856316 
L 498.470904 33.718148 
L 498.601628 33.610889 
L 498.722445 33.49902 
L 498.812418 33.398489 
L 498.932252 33.290672 
L 499.125998 33.122024 
L 499.316526 33.013371 
L 499.425835 32.925794 
L 499.570947 32.820858 
L 499.904874 32.488746 
L 499.998079 32.325804 
L 500.314835 32.108051 
L 500.472861 31.993841 
L 500.577743 31.924107 
L 500.766684 31.711019 
L 500.88788 31.303653 
L 501.008557 31.166434 
L 501.142569 31.073579 
L 501.379636 30.866569 
L 501.535077 30.752042 
L 501.704499 30.627666 
L 501.862736 30.516466 
L 502.200654 30.187923 
L 502.394568 30.095904 
L 502.518533 29.816279 
L 502.831691 29.5605 
L 502.965365 29.482123 
L 503.504645 28.639829 
L 503.567751 28.57409 
L 503.683608 28.448041 
L 504.265534 28.340317 
L 504.385747 28.187243 
L 504.843835 28.083608 
L 504.965524 27.923008 
L 506.771318 27.538781 
L 507.099596 27.437655 
L 507.217462 27.325917 
L 507.798812 27.052723 
L 508.318377 26.946467 
L 508.430721 26.924592 
L 508.740225 26.815139 
L 509.419657 26.655709 
L 510.377004 26.558431 
L 510.523171 26.429017 
L 511.157735 26.313896 
L 512.298838 26.025071 
L 513.012177 25.895248 
L 513.214115 25.761263 
L 513.375893 25.602279 
L 513.845096 25.493421 
L 514.118445 25.36555 
L 514.283525 25.261395 
L 514.391513 25.144508 
L 514.498911 25.104325 
L 514.738508 24.991788 
L 515.147092 24.868433 
L 517.907845 24.650662 
L 518.02817 24.625775 
L 519.026479 24.407911 
L 519.141001 24.323234 
L 519.80239 24.104924 
L 519.899994 24.01363 
L 520.164181 23.904903 
L 520.337749 23.80387 
L 520.504473 23.693098 
L 520.614934 23.654253 
L 521.163277 23.532887 
L 521.283827 23.480531 
L 521.517395 23.385371 
L 521.626943 23.300563 
L 522.460804 23.187635 
L 522.728209 23.050639 
L 522.844614 22.806736 
L 522.940855 22.717598 
L 523.038824 22.567368 
L 523.137285 22.462153 
L 523.251188 22.38504 
L 523.602792 22.274194 
L 523.716668 22.063448 
L 523.741975 22.038432 
L 523.848234 21.703514 
L 524.048528 21.598522 
L 524.252462 21.442066 
L 525.01064 21.103059 
L 525.463444 20.97989 
L 525.569043 20.963516 
L 526.791717 20.849547 
L 526.910623 20.800425 
L 527.118322 20.7537 
L 528.087642 20.613636 
L 528.087642 20.613636 
" style="fill:none;stroke:#4c72b0;stroke-linecap:round;stroke-width:3;"/>
   </g>
   <g id="patch_4">
    <path d="M 50.25 302.3 
L 50.25 7.2 
" style="fill:none;stroke:#262626;stroke-linecap:square;stroke-linejoin:miter;stroke-width:1.25;"/>
   </g>
   <g id="patch_5">
    <path d="M 60.25 312.3 
L 550.365625 312.3 
" style="fill:none;stroke:#262626;stroke-linecap:square;stroke-linejoin:miter;stroke-width:1.25;"/>
   </g>
  </g>
 </g>
 <defs>
  <clipPath id="p7ccafd0036">
   <rect height="295.1" width="490.115625" x="60.25" y="7.2"/>
  </clipPath>
 </defs>
</svg>
